{"glyphs":{"0":{"ha":975,"x_min":79,"x_max":907,"o":"m 767 854 l 642 854 l 642 979 l 767 979 l 767 854 m 907 714 l 783 714 l 783 838 l 907 838 l 907 714 m 625 854 l 501 854 l 501 979 l 625 979 l 625 854 m 767 714 l 642 714 l 642 838 l 767 838 l 767 714 m 907 572 l 783 572 l 783 697 l 907 697 l 907 572 m 485 854 l 361 854 l 361 979 l 485 979 l 485 854 m 767 572 l 642 572 l 642 697 l 767 697 l 767 572 m 907 432 l 783 432 l 783 556 l 907 556 l 907 432 m 344 854 l 219 854 l 219 979 l 344 979 l 344 854 m 767 432 l 642 432 l 642 556 l 767 556 l 767 432 m 907 292 l 783 292 l 783 415 l 907 415 l 907 292 m 344 714 l 219 714 l 219 838 l 344 838 l 344 714 m 907 150 l 783 150 l 783 275 l 907 275 l 907 150 m 767 292 l 642 292 l 642 415 l 767 415 l 767 292 m 203 714 l 79 714 l 79 838 l 203 838 l 203 714 m 344 572 l 219 572 l 219 697 l 344 697 l 344 572 m 767 150 l 642 150 l 642 275 l 767 275 l 767 150 m 203 572 l 79 572 l 79 697 l 203 697 l 203 572 m 344 432 l 219 432 l 219 556 l 344 556 l 344 432 m 767 10 l 642 10 l 642 133 l 767 133 l 767 10 m 203 432 l 79 432 l 79 556 l 203 556 l 203 432 m 344 292 l 219 292 l 219 415 l 344 415 l 344 292 m 625 10 l 501 10 l 501 133 l 625 133 l 625 10 m 344 150 l 219 150 l 219 275 l 344 275 l 344 150 m 203 292 l 79 292 l 79 415 l 203 415 l 203 292 m 485 10 l 361 10 l 361 133 l 485 133 l 485 10 m 203 150 l 79 150 l 79 275 l 203 275 l 203 150 m 344 10 l 219 10 l 219 133 l 344 133 l 344 10 z "},"1":{"ha":557,"x_min":79,"x_max":485,"o":"m 485 854 l 361 854 l 361 979 l 485 979 l 485 854 m 344 854 l 219 854 l 219 979 l 344 979 l 344 854 m 485 714 l 361 714 l 361 838 l 485 838 l 485 714 m 344 714 l 219 714 l 219 838 l 344 838 l 344 714 m 485 572 l 361 572 l 361 697 l 485 697 l 485 572 m 203 714 l 79 714 l 79 838 l 203 838 l 203 714 m 344 572 l 219 572 l 219 697 l 344 697 l 344 572 m 485 432 l 361 432 l 361 556 l 485 556 l 485 432 m 344 432 l 219 432 l 219 556 l 344 556 l 344 432 m 485 292 l 361 292 l 361 415 l 485 415 l 485 292 m 344 292 l 219 292 l 219 415 l 344 415 l 344 292 m 485 150 l 361 150 l 361 275 l 485 275 l 485 150 m 344 150 l 219 150 l 219 275 l 344 275 l 344 150 m 485 10 l 361 10 l 361 133 l 485 133 l 485 10 m 344 10 l 219 10 l 219 133 l 344 133 l 344 10 z "},"2":{"ha":965,"x_min":69,"x_max":899,"o":"m 757 854 l 633 854 l 633 979 l 757 979 l 757 854 m 899 714 l 774 714 l 774 838 l 899 838 l 899 714 m 617 854 l 493 854 l 493 979 l 617 979 l 617 854 m 757 714 l 633 714 l 633 838 l 757 838 l 757 714 m 899 572 l 774 572 l 774 697 l 899 697 l 899 572 m 476 854 l 351 854 l 351 979 l 476 979 l 476 854 m 757 572 l 633 572 l 633 697 l 757 697 l 757 572 m 335 854 l 211 854 l 211 979 l 335 979 l 335 854 m 757 432 l 633 432 l 633 556 l 757 556 l 757 432 m 335 714 l 211 714 l 211 838 l 335 838 l 335 714 m 617 432 l 493 432 l 493 556 l 617 556 l 617 432 m 194 714 l 69 714 l 69 838 l 194 838 l 194 714 m 476 432 l 351 432 l 351 556 l 476 556 l 476 432 m 899 10 l 774 10 l 774 133 l 899 133 l 899 10 m 476 292 l 351 292 l 351 415 l 476 415 l 476 292 m 757 10 l 633 10 l 633 133 l 757 133 l 757 10 m 335 292 l 211 292 l 211 415 l 335 415 l 335 292 m 617 10 l 493 10 l 493 133 l 617 133 l 617 10 m 335 150 l 211 150 l 211 275 l 335 275 l 335 150 m 476 10 l 351 10 l 351 133 l 476 133 l 476 10 m 194 150 l 69 150 l 69 275 l 194 275 l 194 150 m 335 10 l 211 10 l 211 133 l 335 133 l 335 10 m 194 10 l 69 10 l 69 133 l 194 133 l 194 10 z "},"3":{"ha":993,"x_min":82,"x_max":911,"o":"m 769 854 l 646 854 l 646 979 l 769 979 l 769 854 m 911 714 l 786 714 l 786 838 l 911 838 l 911 714 m 629 854 l 506 854 l 506 979 l 629 979 l 629 854 m 769 714 l 646 714 l 646 838 l 769 838 l 769 714 m 911 572 l 786 572 l 786 697 l 911 697 l 911 572 m 489 854 l 364 854 l 364 979 l 489 979 l 489 854 m 769 572 l 646 572 l 646 697 l 769 697 l 769 572 m 347 854 l 224 854 l 224 979 l 347 979 l 347 854 m 769 432 l 646 432 l 646 556 l 769 556 l 769 432 m 911 292 l 786 292 l 786 415 l 911 415 l 911 292 m 347 714 l 224 714 l 224 838 l 347 838 l 347 714 m 911 150 l 786 150 l 786 275 l 911 275 l 911 150 m 629 432 l 506 432 l 506 556 l 629 556 l 629 432 m 769 292 l 646 292 l 646 415 l 769 415 l 769 292 m 207 714 l 82 714 l 82 838 l 207 838 l 207 714 m 489 432 l 364 432 l 364 556 l 489 556 l 489 432 m 769 150 l 646 150 l 646 275 l 769 275 l 769 150 m 769 10 l 646 10 l 646 133 l 769 133 l 769 10 m 629 10 l 506 10 l 506 133 l 629 133 l 629 10 m 489 10 l 364 10 l 364 133 l 489 133 l 489 10 m 347 10 l 224 10 l 224 133 l 347 133 l 347 10 m 207 149 l 82 149 l 82 272 l 207 272 l 207 149 m 347 149 l 222 149 l 222 272 l 347 272 l 347 149 z "},"4":{"ha":975,"x_min":65,"x_max":894,"o":"m 753 854 l 629 854 l 629 979 l 753 979 l 753 854 m 613 854 l 489 854 l 489 979 l 613 979 l 613 854 m 753 714 l 629 714 l 629 838 l 753 838 l 753 714 m 613 714 l 489 714 l 489 838 l 613 838 l 613 714 m 753 572 l 629 572 l 629 697 l 753 697 l 753 572 m 472 714 l 347 714 l 347 838 l 472 838 l 472 714 m 613 572 l 489 572 l 489 697 l 613 697 l 613 572 m 753 432 l 629 432 l 629 556 l 753 556 l 753 432 m 894 292 l 769 292 l 769 415 l 894 415 l 894 292 m 613 432 l 489 432 l 489 556 l 613 556 l 613 432 m 753 292 l 629 292 l 629 415 l 753 415 l 753 292 m 331 572 l 207 572 l 207 697 l 331 697 l 331 572 m 753 150 l 629 150 l 629 275 l 753 275 l 753 150 m 613 292 l 489 292 l 489 415 l 613 415 l 613 292 m 472 292 l 347 292 l 347 415 l 472 415 l 472 292 m 613 150 l 489 150 l 489 275 l 613 275 l 613 150 m 753 10 l 629 10 l 629 133 l 753 133 l 753 10 m 190 432 l 65 432 l 65 556 l 190 556 l 190 432 m 331 292 l 207 292 l 207 415 l 331 415 l 331 292 m 613 10 l 489 10 l 489 133 l 613 133 l 613 10 m 190 292 l 65 292 l 65 415 l 190 415 l 190 292 z "},"5":{"ha":844,"x_min":90,"x_max":778,"o":"m 778 854 l 654 854 l 654 979 l 778 979 l 778 854 m 638 854 l 514 854 l 514 979 l 638 979 l 638 854 m 497 854 l 372 854 l 372 979 l 497 979 l 497 854 m 356 854 l 232 854 l 232 979 l 356 979 l 356 854 m 215 854 l 90 854 l 90 979 l 215 979 l 215 854 m 356 714 l 232 714 l 232 838 l 356 838 l 356 714 m 638 432 l 514 432 l 514 556 l 638 556 l 638 432 m 778 292 l 654 292 l 654 415 l 778 415 l 778 292 m 215 714 l 90 714 l 90 838 l 215 838 l 215 714 m 356 572 l 232 572 l 232 697 l 356 697 l 356 572 m 497 432 l 372 432 l 372 556 l 497 556 l 497 432 m 778 150 l 654 150 l 654 275 l 778 275 l 778 150 m 638 292 l 514 292 l 514 415 l 638 415 l 638 292 m 215 572 l 90 572 l 90 697 l 215 697 l 215 572 m 356 432 l 232 432 l 232 556 l 356 556 l 356 432 m 638 150 l 514 150 l 514 275 l 638 275 l 638 150 m 215 432 l 90 432 l 90 556 l 215 556 l 215 432 m 638 10 l 514 10 l 514 133 l 638 133 l 638 10 m 497 10 l 372 10 l 372 133 l 497 133 l 497 10 m 356 10 l 232 10 l 232 133 l 356 133 l 356 10 m 215 10 l 90 10 l 90 133 l 215 133 l 215 10 z "},"6":{"ha":972,"x_min":76,"x_max":906,"o":"m 764 854 l 640 854 l 640 979 l 764 979 l 764 854 m 624 854 l 500 854 l 500 979 l 624 979 l 624 854 m 483 854 l 358 854 l 358 979 l 483 979 l 483 854 m 483 714 l 358 714 l 358 838 l 483 838 l 483 714 m 764 432 l 640 432 l 640 556 l 764 556 l 764 432 m 906 292 l 781 292 l 781 415 l 906 415 l 906 292 m 342 714 l 218 714 l 218 838 l 342 838 l 342 714 m 906 150 l 781 150 l 781 275 l 906 275 l 906 150 m 624 432 l 500 432 l 500 556 l 624 556 l 624 432 m 764 292 l 640 292 l 640 415 l 764 415 l 764 292 m 342 572 l 218 572 l 218 697 l 342 697 l 342 572 m 483 432 l 358 432 l 358 556 l 483 556 l 483 432 m 764 150 l 640 150 l 640 275 l 764 275 l 764 150 m 201 572 l 76 572 l 76 697 l 201 697 l 201 572 m 342 432 l 218 432 l 218 556 l 342 556 l 342 432 m 764 10 l 640 10 l 640 133 l 764 133 l 764 10 m 201 432 l 76 432 l 76 556 l 201 556 l 201 432 m 342 292 l 218 292 l 218 415 l 342 415 l 342 292 m 624 10 l 500 10 l 500 133 l 624 133 l 624 10 m 342 150 l 218 150 l 218 275 l 342 275 l 342 150 m 483 10 l 358 10 l 358 133 l 483 133 l 483 10 m 201 292 l 76 292 l 76 415 l 201 415 l 201 292 m 201 150 l 76 150 l 76 275 l 201 275 l 201 150 m 342 10 l 218 10 l 218 133 l 342 133 l 342 10 z "},"7":{"ha":978,"x_min":76,"x_max":906,"o":"m 906 854 l 781 854 l 781 979 l 906 979 l 906 854 m 764 854 l 640 854 l 640 979 l 764 979 l 764 854 m 906 714 l 781 714 l 781 838 l 906 838 l 906 714 m 624 854 l 500 854 l 500 979 l 624 979 l 624 854 m 764 714 l 640 714 l 640 838 l 764 838 l 764 714 m 483 854 l 358 854 l 358 979 l 483 979 l 483 854 m 764 572 l 640 572 l 640 697 l 764 697 l 764 572 m 342 854 l 218 854 l 218 979 l 342 979 l 342 854 m 624 572 l 500 572 l 500 697 l 624 697 l 624 572 m 764 432 l 640 432 l 640 556 l 764 556 l 764 432 m 201 854 l 76 854 l 76 979 l 201 979 l 201 854 m 624 432 l 500 432 l 500 556 l 624 556 l 624 432 m 624 292 l 500 292 l 500 415 l 624 415 l 624 292 m 483 292 l 358 292 l 358 415 l 483 415 l 483 292 m 624 150 l 500 150 l 500 275 l 624 275 l 624 150 m 483 150 l 358 150 l 358 275 l 483 275 l 483 150 m 624 10 l 500 10 l 500 133 l 624 133 l 624 10 m 483 10 l 358 10 l 358 133 l 483 133 l 483 10 z "},"8":{"ha":985,"x_min":76,"x_max":906,"o":"m 764 854 l 640 854 l 640 979 l 764 979 l 764 854 m 906 714 l 781 714 l 781 838 l 906 838 l 906 714 m 624 854 l 500 854 l 500 979 l 624 979 l 624 854 m 764 714 l 640 714 l 640 838 l 764 838 l 764 714 m 906 572 l 781 572 l 781 697 l 906 697 l 906 572 m 483 854 l 358 854 l 358 979 l 483 979 l 483 854 m 764 572 l 640 572 l 640 697 l 764 697 l 764 572 m 342 854 l 218 854 l 218 979 l 342 979 l 342 854 m 764 432 l 640 432 l 640 556 l 764 556 l 764 432 m 906 292 l 781 292 l 781 415 l 906 415 l 906 292 m 342 714 l 218 714 l 218 838 l 342 838 l 342 714 m 906 150 l 781 150 l 781 275 l 906 275 l 906 150 m 624 432 l 500 432 l 500 556 l 624 556 l 624 432 m 764 292 l 640 292 l 640 415 l 764 415 l 764 292 m 201 714 l 76 714 l 76 838 l 201 838 l 201 714 m 342 572 l 218 572 l 218 697 l 342 697 l 342 572 m 483 432 l 358 432 l 358 556 l 483 556 l 483 432 m 764 150 l 640 150 l 640 275 l 764 275 l 764 150 m 201 572 l 76 572 l 76 697 l 201 697 l 201 572 m 342 432 l 218 432 l 218 556 l 342 556 l 342 432 m 764 10 l 640 10 l 640 133 l 764 133 l 764 10 m 342 292 l 218 292 l 218 415 l 342 415 l 342 292 m 624 10 l 500 10 l 500 133 l 624 133 l 624 10 m 342 150 l 218 150 l 218 275 l 342 275 l 342 150 m 483 10 l 358 10 l 358 133 l 483 133 l 483 10 m 201 292 l 76 292 l 76 415 l 201 415 l 201 292 m 201 150 l 76 150 l 76 275 l 201 275 l 201 150 m 342 10 l 218 10 l 218 133 l 342 133 l 342 10 z "},"9":{"ha":985,"x_min":76,"x_max":906,"o":"m 764 854 l 640 854 l 640 979 l 764 979 l 764 854 m 906 714 l 781 714 l 781 838 l 906 838 l 906 714 m 624 854 l 500 854 l 500 979 l 624 979 l 624 854 m 764 714 l 640 714 l 640 838 l 764 838 l 764 714 m 906 572 l 781 572 l 781 697 l 906 697 l 906 572 m 483 854 l 358 854 l 358 979 l 483 979 l 483 854 m 764 572 l 640 572 l 640 697 l 764 697 l 764 572 m 906 432 l 781 432 l 781 556 l 906 556 l 906 432 m 342 854 l 218 854 l 218 979 l 342 979 l 342 854 m 764 432 l 640 432 l 640 556 l 764 556 l 764 432 m 906 292 l 781 292 l 781 415 l 906 415 l 906 292 m 342 714 l 218 714 l 218 838 l 342 838 l 342 714 m 624 432 l 500 432 l 500 556 l 624 556 l 624 432 m 764 292 l 640 292 l 640 415 l 764 415 l 764 292 m 201 714 l 76 714 l 76 838 l 201 838 l 201 714 m 342 572 l 218 572 l 218 697 l 342 697 l 342 572 m 483 432 l 358 432 l 358 556 l 483 556 l 483 432 m 764 150 l 640 150 l 640 275 l 764 275 l 764 150 m 201 572 l 76 572 l 76 697 l 201 697 l 201 572 m 342 432 l 218 432 l 218 556 l 342 556 l 342 432 m 624 150 l 500 150 l 500 275 l 624 275 l 624 150 m 624 10 l 500 10 l 500 133 l 624 133 l 624 10 m 483 10 l 358 10 l 358 133 l 483 133 l 483 10 m 342 10 l 218 10 l 218 133 l 342 133 l 342 10 z "}," ":{"ha":281,"x_min":0,"x_max":0,"o":""},"!":{"ha":415,"x_min":64,"x_max":329,"o":"m 329 854 l 206 854 l 206 979 l 329 979 l 329 854 m 189 854 l 64 854 l 64 979 l 189 979 l 189 854 m 329 714 l 206 714 l 206 838 l 329 838 l 329 714 m 189 714 l 64 714 l 64 838 l 189 838 l 189 714 m 329 572 l 206 572 l 206 697 l 329 697 l 329 572 m 189 572 l 64 572 l 64 697 l 189 697 l 189 572 m 329 432 l 206 432 l 206 556 l 329 556 l 329 432 m 189 432 l 64 432 l 64 556 l 189 556 l 189 432 m 329 292 l 206 292 l 206 415 l 329 415 l 329 292 m 189 292 l 64 292 l 64 415 l 189 415 l 189 292 m 329 10 l 206 10 l 206 133 l 329 133 l 329 10 m 189 10 l 64 10 l 64 133 l 189 133 l 189 10 z "},"\"":{"ha":836,"x_min":76,"x_max":764,"o":"m 764 994 l 640 994 l 640 1119 l 764 1119 l 764 994 m 624 994 l 500 994 l 500 1119 l 624 1119 l 624 994 m 764 854 l 640 854 l 640 978 l 764 978 l 764 854 m 624 854 l 500 854 l 500 978 l 624 978 l 624 854 m 764 713 l 640 713 l 640 838 l 764 838 l 764 713 m 342 994 l 218 994 l 218 1119 l 342 1119 l 342 994 m 201 994 l 76 994 l 76 1119 l 201 1119 l 201 994 m 342 854 l 218 854 l 218 978 l 342 978 l 342 854 m 201 854 l 76 854 l 76 978 l 201 978 l 201 854 m 342 713 l 218 713 l 218 838 l 342 838 l 342 713 z "},"#":{"ha":1406,"x_min":76,"x_max":1329,"o":"m 1188 854 l 1063 854 l 1063 979 l 1188 979 l 1188 854 m 1046 854 l 922 854 l 922 979 l 1046 979 l 1046 854 m 1188 714 l 1063 714 l 1063 838 l 1188 838 l 1188 714 m 1046 714 l 922 714 l 922 838 l 1046 838 l 1046 714 m 1188 572 l 1063 572 l 1063 697 l 1188 697 l 1188 572 m 764 854 l 640 854 l 640 979 l 764 979 l 764 854 m 1046 572 l 922 572 l 922 697 l 1046 697 l 1046 572 m 1329 574 l 1204 574 l 1204 697 l 1329 697 l 1329 574 m 624 854 l 500 854 l 500 979 l 624 979 l 624 854 m 764 714 l 640 714 l 640 838 l 764 838 l 764 714 m 906 572 l 781 572 l 781 697 l 906 697 l 906 572 m 1046 432 l 922 432 l 922 556 l 1046 556 l 1046 432 m 1188 292 l 1063 292 l 1063 415 l 1188 415 l 1188 292 m 624 714 l 500 714 l 500 838 l 624 838 l 624 714 m 764 572 l 640 572 l 640 697 l 764 697 l 764 572 m 906 432 l 781 432 l 781 556 l 906 556 l 906 432 m 1046 292 l 922 292 l 922 415 l 1046 415 l 1046 292 m 624 572 l 500 572 l 500 697 l 624 697 l 624 572 m 906 292 l 781 292 l 781 415 l 906 415 l 906 292 m 483 572 l 358 572 l 358 697 l 483 697 l 483 572 m 906 150 l 781 150 l 781 275 l 906 275 l 906 150 m 624 432 l 500 432 l 500 556 l 624 556 l 624 432 m 764 292 l 640 292 l 640 415 l 764 415 l 764 292 m 342 572 l 218 572 l 218 697 l 342 697 l 342 572 m 483 432 l 358 432 l 358 556 l 483 556 l 483 432 m 764 150 l 640 150 l 640 275 l 764 275 l 764 150 m 906 10 l 781 10 l 781 133 l 906 133 l 906 10 m 624 292 l 500 292 l 500 415 l 624 415 l 624 292 m 483 292 l 358 292 l 358 415 l 483 415 l 483 292 m 764 10 l 640 10 l 640 133 l 764 133 l 764 10 m 483 150 l 358 150 l 358 275 l 483 275 l 483 150 m 342 292 l 218 292 l 218 415 l 342 415 l 342 292 m 342 150 l 218 150 l 218 275 l 342 275 l 342 150 m 483 10 l 358 10 l 358 133 l 483 133 l 483 10 m 201 292 l 76 292 l 76 415 l 201 415 l 201 292 m 342 10 l 218 10 l 218 133 l 342 133 l 342 10 z "},"$":{"ha":840,"x_min":76,"x_max":764,"o":"m 764 854 l 640 854 l 640 979 l 764 979 l 764 854 m 624 854 l 500 854 l 500 979 l 624 979 l 624 854 m 483 854 l 358 854 l 358 979 l 483 979 l 483 854 m 342 854 l 218 854 l 218 979 l 342 979 l 342 854 m 482 714 l 358 714 l 358 838 l 482 838 l 482 714 m 483 572 l 358 572 l 358 697 l 483 697 l 483 572 m 624 432 l 500 432 l 500 556 l 624 556 l 624 432 m 764 292 l 640 292 l 640 415 l 764 415 l 764 292 m 201 714 l 76 714 l 76 838 l 201 838 l 201 714 m 342 572 l 218 572 l 218 697 l 342 697 l 342 572 m 483 432 l 358 432 l 358 556 l 483 556 l 483 432 m 764 150 l 640 150 l 640 275 l 764 275 l 764 150 m 624 292 l 500 292 l 500 415 l 624 415 l 624 292 m 201 572 l 76 572 l 76 697 l 201 697 l 201 572 m 342 432 l 218 432 l 218 556 l 342 556 l 342 432 m 481 150 l 357 150 l 357 275 l 481 275 l 481 150 m 624 10 l 500 10 l 500 133 l 624 133 l 624 10 m 483 10 l 358 10 l 358 133 l 483 133 l 483 10 m 342 10 l 218 10 l 218 133 l 342 133 l 342 10 m 201 10 l 76 10 l 76 133 l 201 133 l 201 10 m 481 292 l 357 292 l 357 415 l 481 415 l 481 292 m 483 997 l 358 997 l 358 1122 l 483 1122 l 483 997 m 483 -135 l 358 -135 l 358 -11 l 483 -11 l 483 -135 z "},"%":{"ha":1826,"x_min":64,"x_max":1757,"o":"m 1338 854 l 1213 854 l 1213 979 l 1338 979 l 1338 854 m 1338 714 l 1213 714 l 1213 838 l 1338 838 l 1338 714 m 1053 572 l 929 572 l 929 697 l 1053 697 l 1053 572 m 1461 432 l 1336 432 l 1336 556 l 1461 556 l 1461 432 m 611 854 l 488 854 l 488 979 l 611 979 l 611 854 m 751 714 l 628 714 l 628 838 l 751 838 l 751 714 m 471 854 l 346 854 l 346 979 l 471 979 l 471 854 m 611 714 l 488 714 l 488 838 l 611 838 l 611 714 m 751 572 l 628 572 l 628 697 l 751 697 l 751 572 m 1031 432 l 906 432 l 906 556 l 1031 556 l 1031 432 m 1176 292 l 1053 292 l 1053 415 l 1176 415 l 1176 292 m 329 854 l 206 854 l 206 979 l 329 979 l 329 854 m 1176 150 l 1053 150 l 1053 275 l 1176 275 l 1176 150 m 1461 10 l 1336 10 l 1336 133 l 1461 133 l 1461 10 m 611 572 l 488 572 l 488 697 l 611 697 l 611 572 m 329 714 l 206 714 l 206 838 l 329 838 l 329 714 m 892 432 l 768 432 l 768 556 l 892 556 l 892 432 m 894 292 l 771 292 l 771 415 l 894 415 l 894 292 m 189 714 l 64 714 l 64 838 l 189 838 l 189 714 m 329 572 l 206 572 l 206 697 l 329 697 l 329 572 m 471 432 l 346 432 l 346 556 l 471 556 l 471 432 m 754 292 l 631 292 l 631 415 l 754 415 l 754 292 m 189 572 l 64 572 l 64 697 l 189 697 l 189 572 m 329 432 l 206 432 l 206 556 l 329 556 l 329 432 m 754 150 l 631 150 l 631 275 l 754 275 l 754 150 m 614 150 l 489 150 l 489 275 l 614 275 l 614 150 m 614 10 l 489 10 l 489 133 l 614 133 l 614 10 m 472 10 l 349 10 l 349 133 l 472 133 l 472 10 m 1488 854 l 1363 854 l 1363 979 l 1488 979 l 1488 854 m 1611 292 l 1486 292 l 1486 415 l 1611 415 l 1611 292 m 1611 150 l 1486 150 l 1486 275 l 1611 275 l 1611 150 m 1199 714 l 1074 714 l 1074 838 l 1199 838 l 1199 714 m 1199 572 l 1074 572 l 1074 697 l 1199 697 l 1199 572 m 1322 432 l 1197 432 l 1197 556 l 1322 556 l 1322 432 m 1322 292 l 1197 292 l 1197 415 l 1322 415 l 1322 292 m 1322 150 l 1197 150 l 1197 275 l 1322 275 l 1322 150 m 1322 10 l 1197 10 l 1197 133 l 1322 133 l 1322 10 m 1757 292 l 1632 292 l 1632 415 l 1757 415 l 1757 292 m 1757 150 l 1632 150 l 1632 275 l 1757 275 l 1757 150 m 1611 10 l 1486 10 l 1486 133 l 1611 133 l 1611 10 m 1611 432 l 1486 432 l 1486 556 l 1611 556 l 1611 432 m 611 432 l 488 432 l 488 556 l 611 556 l 611 432 z "},"&":{"ha":1244,"x_min":64,"x_max":1175,"o":"m 751 854 l 628 854 l 628 979 l 751 979 l 751 854 m 893 714 l 768 714 l 768 838 l 893 838 l 893 714 m 1175 432 l 1050 432 l 1050 556 l 1175 556 l 1175 432 m 611 854 l 488 854 l 488 979 l 611 979 l 611 854 m 751 714 l 628 714 l 628 838 l 751 838 l 751 714 m 1033 432 l 910 432 l 910 556 l 1033 556 l 1033 432 m 471 854 l 346 854 l 346 979 l 471 979 l 471 854 m 751 572 l 628 572 l 628 697 l 751 697 l 751 572 m 1033 292 l 910 292 l 910 415 l 1033 415 l 1033 292 m 471 714 l 346 714 l 346 838 l 471 838 l 471 714 m 1033 150 l 910 150 l 910 275 l 1033 275 l 1033 150 m 1175 10 l 1050 10 l 1050 133 l 1175 133 l 1175 10 m 611 572 l 488 572 l 488 697 l 611 697 l 611 572 m 751 432 l 628 432 l 628 556 l 751 556 l 751 432 m 893 292 l 768 292 l 768 415 l 893 415 l 893 292 m 329 714 l 206 714 l 206 838 l 329 838 l 329 714 m 471 572 l 346 572 l 346 697 l 471 697 l 471 572 m 893 150 l 768 150 l 768 275 l 893 275 l 893 150 m 1033 10 l 910 10 l 910 133 l 1033 133 l 1033 10 m 611 432 l 488 432 l 488 556 l 611 556 l 611 432 m 751 292 l 628 292 l 628 415 l 751 415 l 751 292 m 471 432 l 346 432 l 346 556 l 471 556 l 471 432 m 751 150 l 628 150 l 628 275 l 751 275 l 751 150 m 329 432 l 206 432 l 206 556 l 329 556 l 329 432 m 751 10 l 628 10 l 628 133 l 751 133 l 751 10 m 329 292 l 206 292 l 206 415 l 329 415 l 329 292 m 611 10 l 488 10 l 488 133 l 611 133 l 611 10 m 329 150 l 206 150 l 206 275 l 329 275 l 329 150 m 471 10 l 346 10 l 346 133 l 471 133 l 471 10 m 189 292 l 64 292 l 64 415 l 189 415 l 189 292 m 189 150 l 64 150 l 64 275 l 189 275 l 189 150 m 329 10 l 206 10 l 206 133 l 329 133 l 329 10 z "},"'":{"ha":415,"x_min":64,"x_max":329,"o":"m 329 996 l 206 996 l 206 1121 l 329 1121 l 329 996 m 189 996 l 64 996 l 64 1121 l 189 1121 l 189 996 m 329 856 l 206 856 l 206 979 l 329 979 l 329 856 m 189 856 l 64 856 l 64 979 l 189 979 l 189 856 m 329 714 l 206 714 l 206 839 l 329 839 l 329 714 z "},"(":{"ha":689,"x_min":64,"x_max":611,"o":"m 611 997 l 488 997 l 488 1122 l 611 1122 l 611 997 m 471 997 l 346 997 l 346 1122 l 471 1122 l 471 997 m 471 857 l 346 857 l 346 981 l 471 981 l 471 857 m 329 857 l 206 857 l 206 981 l 329 981 l 329 857 m 329 715 l 206 715 l 206 840 l 329 840 l 329 715 m 329 575 l 206 575 l 206 699 l 329 699 l 329 575 m 189 575 l 64 575 l 64 699 l 189 699 l 189 575 m 329 435 l 206 435 l 206 558 l 329 558 l 329 435 m 329 293 l 206 293 l 206 418 l 329 418 l 329 293 m 189 435 l 64 435 l 64 558 l 189 558 l 189 435 m 189 293 l 64 293 l 64 418 l 189 418 l 189 293 m 329 153 l 206 153 l 206 276 l 329 276 l 329 153 m 471 11 l 346 11 l 346 136 l 471 136 l 471 11 m 329 11 l 206 11 l 206 136 l 329 136 l 329 11 m 611 -132 l 488 -132 l 488 -7 l 611 -7 l 611 -132 m 471 -132 l 346 -132 l 346 -7 l 471 -7 l 471 -132 z "},")":{"ha":690,"x_min":64,"x_max":611,"o":"m 329 994 l 206 994 l 206 1119 l 329 1119 l 329 994 m 471 854 l 346 854 l 346 978 l 471 978 l 471 854 m 189 994 l 64 994 l 64 1119 l 189 1119 l 189 994 m 329 854 l 206 854 l 206 978 l 329 978 l 329 854 m 471 713 l 346 713 l 346 838 l 471 838 l 471 713 m 611 572 l 488 572 l 488 696 l 611 696 l 611 572 m 471 572 l 346 572 l 346 696 l 471 696 l 471 572 m 611 432 l 488 432 l 488 556 l 611 556 l 611 432 m 471 432 l 346 432 l 346 556 l 471 556 l 471 432 m 611 290 l 488 290 l 488 415 l 611 415 l 611 290 m 471 290 l 346 290 l 346 415 l 471 415 l 471 290 m 471 150 l 346 150 l 346 274 l 471 274 l 471 150 m 471 8 l 346 8 l 346 133 l 471 133 l 471 8 m 329 8 l 206 8 l 206 133 l 329 133 l 329 8 m 329 -135 l 206 -135 l 206 -10 l 329 -10 l 329 -135 m 189 -135 l 64 -135 l 64 -10 l 189 -10 l 189 -135 z "},"*":{"ha":1235,"x_min":64,"x_max":751,"o":"m 611 994 l 488 994 l 488 1119 l 611 1119 l 611 994 m 751 713 l 628 713 l 628 838 l 751 838 l 751 713 m 329 994 l 206 994 l 206 1119 l 329 1119 l 329 994 m 471 854 l 346 854 l 346 978 l 471 978 l 471 854 m 611 713 l 488 713 l 488 838 l 611 838 l 611 713 m 471 713 l 346 713 l 346 838 l 471 838 l 471 713 m 329 713 l 206 713 l 206 838 l 329 838 l 329 713 m 471 572 l 346 572 l 346 696 l 471 696 l 471 572 m 611 432 l 488 432 l 488 556 l 611 556 l 611 432 m 189 713 l 64 713 l 64 838 l 189 838 l 189 713 m 329 432 l 206 432 l 206 556 l 329 556 l 329 432 z "},"+":{"ha":829,"x_min":64,"x_max":751,"o":"m 471 572 l 346 572 l 346 697 l 471 697 l 471 572 m 751 292 l 628 292 l 628 415 l 751 415 l 751 292 m 471 432 l 346 432 l 346 556 l 471 556 l 471 432 m 611 292 l 488 292 l 488 415 l 611 415 l 611 292 m 471 292 l 346 292 l 346 415 l 471 415 l 471 292 m 471 150 l 346 150 l 346 275 l 471 275 l 471 150 m 329 292 l 206 292 l 206 415 l 329 415 l 329 292 m 471 10 l 346 10 l 346 133 l 471 133 l 471 10 m 189 292 l 64 292 l 64 415 l 189 415 l 189 292 z "},",":{"ha":404,"x_min":64,"x_max":329,"o":"m 329 10 l 206 10 l 206 133 l 329 133 l 329 10 m 189 10 l 64 10 l 64 133 l 189 133 l 189 10 m 329 -132 l 206 -132 l 206 -7 l 329 -7 l 329 -132 m 189 -275 l 64 -275 l 64 -150 l 189 -150 l 189 -275 z "},"­":{"ha":544,"x_min":64,"x_max":471,"o":"m 471 433 l 346 433 l 346 557 l 471 557 l 471 433 m 329 433 l 206 433 l 206 557 l 329 557 l 329 433 m 189 433 l 64 433 l 64 557 l 189 557 l 189 433 z "},".":{"ha":394,"x_min":64,"x_max":329,"o":"m 329 10 l 206 10 l 206 133 l 329 133 l 329 10 m 189 10 l 64 10 l 64 133 l 189 133 l 189 10 z "},"/":{"ha":829,"x_min":64,"x_max":751,"o":"m 751 854 l 628 854 l 628 979 l 751 979 l 751 854 m 611 854 l 488 854 l 488 979 l 611 979 l 611 854 m 751 714 l 628 714 l 628 838 l 751 838 l 751 714 m 611 714 l 488 714 l 488 838 l 611 838 l 611 714 m 611 572 l 488 572 l 488 697 l 611 697 l 611 572 m 471 572 l 346 572 l 346 697 l 471 697 l 471 572 m 471 432 l 346 432 l 346 556 l 471 556 l 471 432 m 329 432 l 206 432 l 206 556 l 329 556 l 329 432 m 471 292 l 346 292 l 346 415 l 471 415 l 471 292 m 329 292 l 206 292 l 206 415 l 329 415 l 329 292 m 329 150 l 206 150 l 206 275 l 329 275 l 329 150 m 189 150 l 64 150 l 64 275 l 189 275 l 189 150 m 329 10 l 206 10 l 206 133 l 329 133 l 329 10 m 189 10 l 64 10 l 64 133 l 189 133 l 189 10 z "},":":{"ha":429,"x_min":76,"x_max":342,"o":"m 342 572 l 218 572 l 218 697 l 342 697 l 342 572 m 201 572 l 76 572 l 76 697 l 201 697 l 201 572 m 342 10 l 218 10 l 218 133 l 342 133 l 342 10 m 201 10 l 76 10 l 76 133 l 201 133 l 201 10 z "},";":{"ha":410,"x_min":76,"x_max":342,"o":"m 342 572 l 218 572 l 218 697 l 342 697 l 342 572 m 201 572 l 76 572 l 76 697 l 201 697 l 201 572 m 342 10 l 218 10 l 218 133 l 342 133 l 342 10 m 201 10 l 76 10 l 76 133 l 201 133 l 201 10 m 342 -132 l 218 -132 l 218 -7 l 342 -7 l 342 -132 m 201 -272 l 76 -272 l 76 -147 l 201 -147 l 201 -272 z "},"<":{"ha":690,"x_min":76,"x_max":624,"o":"m 624 572 l 500 572 l 500 697 l 624 697 l 624 572 m 483 572 l 358 572 l 358 697 l 483 697 l 483 572 m 483 432 l 358 432 l 358 556 l 483 556 l 483 432 m 342 432 l 218 432 l 218 556 l 342 556 l 342 432 m 483 150 l 358 150 l 358 275 l 483 275 l 483 150 m 342 292 l 218 292 l 218 415 l 342 415 l 342 292 m 624 10 l 500 10 l 500 133 l 624 133 l 624 10 m 342 150 l 218 150 l 218 275 l 342 275 l 342 150 m 483 10 l 358 10 l 358 133 l 483 133 l 483 10 m 201 292 l 76 292 l 76 415 l 201 415 l 201 292 z "},"=":{"ha":836,"x_min":76,"x_max":764,"o":"m 764 572 l 640 572 l 640 697 l 764 697 l 764 572 m 624 572 l 500 572 l 500 697 l 624 697 l 624 572 m 483 572 l 358 572 l 358 697 l 483 697 l 483 572 m 764 292 l 640 292 l 640 415 l 764 415 l 764 292 m 342 572 l 218 572 l 218 697 l 342 697 l 342 572 m 624 292 l 500 292 l 500 415 l 624 415 l 624 292 m 201 572 l 76 572 l 76 697 l 201 697 l 201 572 m 483 292 l 358 292 l 358 415 l 483 415 l 483 292 m 342 292 l 218 292 l 218 415 l 342 415 l 342 292 m 201 292 l 76 292 l 76 415 l 201 415 l 201 292 z "},">":{"ha":697,"x_min":76,"x_max":624,"o":"m 342 572 l 218 572 l 218 697 l 342 697 l 342 572 m 483 432 l 358 432 l 358 556 l 483 556 l 483 432 m 624 292 l 500 292 l 500 415 l 624 415 l 624 292 m 201 572 l 76 572 l 76 697 l 201 697 l 201 572 m 342 432 l 218 432 l 218 556 l 342 556 l 342 432 m 483 292 l 358 292 l 358 415 l 483 415 l 483 292 m 483 150 l 358 150 l 358 275 l 483 275 l 483 150 m 342 150 l 218 150 l 218 275 l 342 275 l 342 150 m 342 10 l 218 10 l 218 133 l 342 133 l 342 10 m 201 10 l 76 10 l 76 133 l 201 133 l 201 10 z "},"?":{"ha":840,"x_min":76,"x_max":764,"o":"m 624 854 l 500 854 l 500 979 l 624 979 l 624 854 m 764 714 l 640 714 l 640 838 l 764 838 l 764 714 m 483 854 l 358 854 l 358 979 l 483 979 l 483 854 m 624 714 l 500 714 l 500 838 l 624 838 l 624 714 m 342 854 l 218 854 l 218 979 l 342 979 l 342 854 m 624 572 l 500 572 l 500 697 l 624 697 l 624 572 m 201 854 l 76 854 l 76 979 l 201 979 l 201 854 m 483 572 l 358 572 l 358 697 l 483 697 l 483 572 m 483 432 l 358 432 l 358 556 l 483 556 l 483 432 m 342 432 l 218 432 l 218 556 l 342 556 l 342 432 m 483 292 l 358 292 l 358 415 l 483 415 l 483 292 m 342 292 l 218 292 l 218 415 l 342 415 l 342 292 m 483 10 l 358 10 l 358 133 l 483 133 l 483 10 m 342 10 l 218 10 l 218 133 l 342 133 l 342 10 z "},"@":{"ha":1388,"x_min":64,"x_max":1317,"o":"m 893 854 l 768 854 l 768 979 l 893 979 l 893 854 m 1033 714 l 910 714 l 910 838 l 1033 838 l 1033 714 m 1317 572 l 1192 572 l 1192 697 l 1317 697 l 1317 572 m 751 854 l 628 854 l 628 979 l 751 979 l 751 854 m 1175 572 l 1051 572 l 1051 697 l 1175 697 l 1175 572 m 1317 432 l 1192 432 l 1192 556 l 1317 556 l 1317 432 m 611 854 l 488 854 l 488 979 l 611 979 l 611 854 m 893 572 l 768 572 l 768 697 l 893 697 l 893 572 m 1175 432 l 1051 432 l 1051 556 l 1175 556 l 1175 432 m 1175 292 l 1050 292 l 1050 415 l 1175 415 l 1175 292 m 471 854 l 346 854 l 346 979 l 471 979 l 471 854 m 751 572 l 628 572 l 628 697 l 751 697 l 751 572 m 893 432 l 768 432 l 768 556 l 893 556 l 893 432 m 1033 292 l 910 292 l 910 415 l 1033 415 l 1033 292 m 471 714 l 346 714 l 346 838 l 471 838 l 471 714 m 893 292 l 768 292 l 768 415 l 893 415 l 893 292 m 329 714 l 206 714 l 206 838 l 329 838 l 329 714 m 611 432 l 488 432 l 488 556 l 611 556 l 611 432 m 751 292 l 628 292 l 628 415 l 751 415 l 751 292 m 329 572 l 206 572 l 206 697 l 329 697 l 329 572 m 893 10 l 768 10 l 768 133 l 893 133 l 893 10 m 189 572 l 64 572 l 64 697 l 189 697 l 189 572 m 329 432 l 206 432 l 206 556 l 329 556 l 329 432 m 751 10 l 628 10 l 628 133 l 751 133 l 751 10 m 471 150 l 346 150 l 346 275 l 471 275 l 471 150 m 189 432 l 64 432 l 64 556 l 189 556 l 189 432 m 329 292 l 206 292 l 206 415 l 329 415 l 329 292 m 611 10 l 488 10 l 488 133 l 611 133 l 611 10 m 329 150 l 206 150 l 206 275 l 329 275 l 329 150 m 471 10 l 346 10 l 346 133 l 471 133 l 471 10 m 189 292 l 64 292 l 64 415 l 189 415 l 189 292 m 1174 714 l 1050 714 l 1050 838 l 1174 838 l 1174 714 z "},"A":{"ha":846,"x_min":76,"x_max":764,"o":"m 624 854 l 499 854 l 499 979 l 624 979 l 624 854 m 764 714 l 640 714 l 640 838 l 764 838 l 764 714 m 482 854 l 358 854 l 358 979 l 482 979 l 482 854 m 624 714 l 499 714 l 499 838 l 624 838 l 624 714 m 764 572 l 640 572 l 640 697 l 764 697 l 764 572 m 342 854 l 218 854 l 218 979 l 342 979 l 342 854 m 624 572 l 499 572 l 499 697 l 624 697 l 624 572 m 764 432 l 640 432 l 640 556 l 764 556 l 764 432 m 624 432 l 499 432 l 499 556 l 624 556 l 624 432 m 764 292 l 640 292 l 640 415 l 764 415 l 764 292 m 201 714 l 76 714 l 76 838 l 201 838 l 201 714 m 764 150 l 640 150 l 640 275 l 764 275 l 764 150 m 482 290 l 358 290 l 358 414 l 482 414 l 482 290 m 624 292 l 499 292 l 499 415 l 624 415 l 624 292 m 201 572 l 76 572 l 76 697 l 201 697 l 201 572 m 624 150 l 499 150 l 499 275 l 624 275 l 624 150 m 764 10 l 640 10 l 640 133 l 764 133 l 764 10 m 342 290 l 218 290 l 218 414 l 342 414 l 342 290 m 201 432 l 76 432 l 76 556 l 201 556 l 201 432 m 624 10 l 499 10 l 499 133 l 624 133 l 624 10 m 201 292 l 76 292 l 76 415 l 201 415 l 201 292 m 201 150 l 76 150 l 76 275 l 201 275 l 201 150 m 201 10 l 76 10 l 76 133 l 201 133 l 201 10 m 482 715 l 358 715 l 358 839 l 482 839 l 482 715 m 342 715 l 218 715 l 218 839 l 342 839 l 342 715 z "},"B":{"ha":996,"x_min":76,"x_max":906,"o":"m 764 854 l 640 854 l 640 979 l 764 979 l 764 854 m 906 714 l 781 714 l 781 838 l 906 838 l 906 714 m 624 854 l 500 854 l 500 979 l 624 979 l 624 854 m 764 714 l 640 714 l 640 838 l 764 838 l 764 714 m 906 572 l 781 572 l 781 697 l 906 697 l 906 572 m 483 854 l 358 854 l 358 979 l 483 979 l 483 854 m 764 572 l 640 572 l 640 697 l 764 697 l 764 572 m 342 854 l 218 854 l 218 979 l 342 979 l 342 854 m 764 432 l 640 432 l 640 556 l 764 556 l 764 432 m 906 292 l 781 292 l 781 415 l 906 415 l 906 292 m 201 854 l 76 854 l 76 979 l 201 979 l 201 854 m 342 714 l 218 714 l 218 838 l 342 838 l 342 714 m 906 150 l 781 150 l 781 275 l 906 275 l 906 150 m 624 432 l 500 432 l 500 556 l 624 556 l 624 432 m 764 292 l 640 292 l 640 415 l 764 415 l 764 292 m 201 714 l 76 714 l 76 838 l 201 838 l 201 714 m 342 572 l 218 572 l 218 697 l 342 697 l 342 572 m 483 432 l 358 432 l 358 556 l 483 556 l 483 432 m 764 150 l 640 150 l 640 275 l 764 275 l 764 150 m 201 572 l 76 572 l 76 697 l 201 697 l 201 572 m 342 432 l 218 432 l 218 556 l 342 556 l 342 432 m 764 10 l 640 10 l 640 133 l 764 133 l 764 10 m 201 432 l 76 432 l 76 556 l 201 556 l 201 432 m 342 292 l 218 292 l 218 415 l 342 415 l 342 292 m 624 10 l 500 10 l 500 133 l 624 133 l 624 10 m 342 150 l 218 150 l 218 275 l 342 275 l 342 150 m 483 10 l 358 10 l 358 133 l 483 133 l 483 10 m 201 292 l 76 292 l 76 415 l 201 415 l 201 292 m 201 150 l 76 150 l 76 275 l 201 275 l 201 150 m 342 10 l 218 10 l 218 133 l 342 133 l 342 10 m 201 10 l 76 10 l 76 133 l 201 133 l 201 10 z "},"C":{"ha":983,"x_min":76,"x_max":906,"o":"m 906 854 l 781 854 l 781 979 l 906 979 l 906 854 m 764 854 l 640 854 l 640 979 l 764 979 l 764 854 m 624 854 l 500 854 l 500 979 l 624 979 l 624 854 m 483 854 l 358 854 l 358 979 l 483 979 l 483 854 m 483 714 l 358 714 l 358 838 l 483 838 l 483 714 m 342 714 l 218 714 l 218 838 l 342 838 l 342 714 m 342 572 l 218 572 l 218 697 l 342 697 l 342 572 m 201 572 l 76 572 l 76 697 l 201 697 l 201 572 m 342 432 l 218 432 l 218 556 l 342 556 l 342 432 m 906 4 l 781 4 l 781 129 l 906 129 l 906 4 m 483 150 l 358 150 l 358 275 l 483 275 l 483 150 m 201 432 l 76 432 l 76 556 l 201 556 l 201 432 m 342 292 l 218 292 l 218 415 l 342 415 l 342 292 m 764 4 l 640 4 l 640 129 l 764 129 l 764 4 m 342 150 l 218 150 l 218 275 l 342 275 l 342 150 m 483 10 l 358 10 l 358 133 l 483 133 l 483 10 m 201 292 l 76 292 l 76 415 l 201 415 l 201 292 m 624 4 l 500 4 l 500 129 l 624 129 l 624 4 z "},"D":{"ha":1110,"x_min":72,"x_max":1042,"o":"m 760 854 l 635 854 l 635 979 l 760 979 l 760 854 m 900 714 l 776 714 l 776 838 l 900 838 l 900 714 m 1042 572 l 917 572 l 917 697 l 1042 697 l 1042 572 m 618 854 l 494 854 l 494 979 l 618 979 l 618 854 m 760 714 l 635 714 l 635 838 l 760 838 l 760 714 m 900 572 l 776 572 l 776 697 l 900 697 l 900 572 m 1042 432 l 917 432 l 917 556 l 1042 556 l 1042 432 m 478 854 l 354 854 l 354 979 l 478 979 l 478 854 m 900 432 l 776 432 l 776 556 l 900 556 l 900 432 m 1042 292 l 917 292 l 917 415 l 1042 415 l 1042 292 m 338 854 l 213 854 l 213 979 l 338 979 l 338 854 m 900 292 l 776 292 l 776 415 l 900 415 l 900 292 m 196 854 l 72 854 l 72 979 l 196 979 l 196 854 m 338 714 l 213 714 l 213 838 l 338 838 l 338 714 m 900 150 l 776 150 l 776 275 l 900 275 l 900 150 m 196 714 l 72 714 l 72 838 l 196 838 l 196 714 m 338 572 l 213 572 l 213 697 l 338 697 l 338 572 m 760 150 l 635 150 l 635 275 l 760 275 l 760 150 m 196 572 l 72 572 l 72 697 l 196 697 l 196 572 m 338 432 l 213 432 l 213 556 l 338 556 l 338 432 m 760 10 l 635 10 l 635 133 l 760 133 l 760 10 m 196 432 l 72 432 l 72 556 l 196 556 l 196 432 m 338 292 l 213 292 l 213 415 l 338 415 l 338 292 m 618 10 l 494 10 l 494 133 l 618 133 l 618 10 m 338 150 l 213 150 l 213 275 l 338 275 l 338 150 m 196 292 l 72 292 l 72 415 l 196 415 l 196 292 m 478 10 l 354 10 l 354 133 l 478 133 l 478 10 m 196 150 l 72 150 l 72 275 l 196 275 l 196 150 m 338 10 l 213 10 l 213 133 l 338 133 l 338 10 m 196 10 l 72 10 l 72 133 l 196 133 l 196 10 z "},"E":{"ha":839,"x_min":79,"x_max":767,"o":"m 767 854 l 642 854 l 642 979 l 767 979 l 767 854 m 625 854 l 501 854 l 501 979 l 625 979 l 625 854 m 485 854 l 361 854 l 361 979 l 485 979 l 485 854 m 344 854 l 219 854 l 219 979 l 344 979 l 344 854 m 625 572 l 501 572 l 501 697 l 625 697 l 625 572 m 203 854 l 79 854 l 79 979 l 203 979 l 203 854 m 344 714 l 219 714 l 219 838 l 344 838 l 344 714 m 485 572 l 361 572 l 361 697 l 485 697 l 485 572 m 203 714 l 79 714 l 79 838 l 203 838 l 203 714 m 344 572 l 219 572 l 219 697 l 344 697 l 344 572 m 203 572 l 79 572 l 79 697 l 203 697 l 203 572 m 344 432 l 219 432 l 219 556 l 344 556 l 344 432 m 767 10 l 642 10 l 642 133 l 767 133 l 767 10 m 203 432 l 79 432 l 79 556 l 203 556 l 203 432 m 344 292 l 219 292 l 219 415 l 344 415 l 344 292 m 625 10 l 501 10 l 501 133 l 625 133 l 625 10 m 344 150 l 219 150 l 219 275 l 344 275 l 344 150 m 203 292 l 79 292 l 79 415 l 203 415 l 203 292 m 485 10 l 361 10 l 361 133 l 485 133 l 485 10 m 203 150 l 79 150 l 79 275 l 203 275 l 203 150 m 344 10 l 219 10 l 219 133 l 344 133 l 344 10 m 203 10 l 79 10 l 79 133 l 203 133 l 203 10 z "},"F":{"ha":850,"x_min":76,"x_max":764,"o":"m 764 854 l 640 854 l 640 979 l 764 979 l 764 854 m 624 854 l 500 854 l 500 979 l 624 979 l 624 854 m 483 854 l 358 854 l 358 979 l 483 979 l 483 854 m 342 854 l 218 854 l 218 979 l 342 979 l 342 854 m 624 572 l 500 572 l 500 697 l 624 697 l 624 572 m 201 854 l 76 854 l 76 979 l 201 979 l 201 854 m 342 714 l 218 714 l 218 838 l 342 838 l 342 714 m 483 572 l 358 572 l 358 697 l 483 697 l 483 572 m 201 714 l 76 714 l 76 838 l 201 838 l 201 714 m 342 572 l 218 572 l 218 697 l 342 697 l 342 572 m 201 572 l 76 572 l 76 697 l 201 697 l 201 572 m 342 432 l 218 432 l 218 556 l 342 556 l 342 432 m 201 432 l 76 432 l 76 556 l 201 556 l 201 432 m 342 292 l 218 292 l 218 415 l 342 415 l 342 292 m 342 150 l 218 150 l 218 275 l 342 275 l 342 150 m 201 292 l 76 292 l 76 415 l 201 415 l 201 292 m 201 150 l 76 150 l 76 275 l 201 275 l 201 150 m 342 10 l 218 10 l 218 133 l 342 133 l 342 10 m 201 10 l 76 10 l 76 133 l 201 133 l 201 10 z "},"G":{"ha":1147,"x_min":83,"x_max":1053,"o":"m 913 854 l 788 854 l 788 979 l 913 979 l 913 854 m 771 854 l 647 854 l 647 979 l 771 979 l 771 854 m 631 854 l 507 854 l 507 979 l 631 979 l 631 854 m 1053 432 l 929 432 l 929 556 l 1053 556 l 1053 432 m 490 854 l 365 854 l 365 979 l 490 979 l 490 854 m 913 432 l 788 432 l 788 556 l 913 556 l 913 432 m 1053 292 l 929 292 l 929 415 l 1053 415 l 1053 292 m 490 714 l 365 714 l 365 838 l 490 838 l 490 714 m 1053 150 l 929 150 l 929 275 l 1053 275 l 1053 150 m 771 432 l 647 432 l 647 556 l 771 556 l 771 432 m 913 292 l 788 292 l 788 415 l 913 415 l 913 292 m 349 714 l 225 714 l 225 838 l 349 838 l 349 714 m 913 150 l 788 150 l 788 275 l 913 275 l 913 150 m 1053 10 l 929 10 l 929 133 l 1053 133 l 1053 10 m 349 572 l 225 572 l 225 697 l 349 697 l 349 572 m 913 10 l 788 10 l 788 133 l 913 133 l 913 10 m 208 572 l 83 572 l 83 697 l 208 697 l 208 572 m 349 432 l 225 432 l 225 556 l 349 556 l 349 432 m 771 10 l 647 10 l 647 133 l 771 133 l 771 10 m 490 150 l 365 150 l 365 275 l 490 275 l 490 150 m 208 432 l 83 432 l 83 556 l 208 556 l 208 432 m 349 292 l 225 292 l 225 415 l 349 415 l 349 292 m 631 10 l 507 10 l 507 133 l 631 133 l 631 10 m 349 150 l 225 150 l 225 275 l 349 275 l 349 150 m 490 10 l 365 10 l 365 133 l 490 133 l 490 10 m 208 292 l 83 292 l 83 415 l 208 415 l 208 292 z "},"H":{"ha":1132,"x_min":76,"x_max":1046,"o":"m 1046 854 l 922 854 l 922 979 l 1046 979 l 1046 854 m 906 854 l 781 854 l 781 979 l 906 979 l 906 854 m 1046 714 l 922 714 l 922 838 l 1046 838 l 1046 714 m 906 714 l 781 714 l 781 838 l 906 838 l 906 714 m 1046 572 l 922 572 l 922 697 l 1046 697 l 1046 572 m 906 572 l 781 572 l 781 697 l 906 697 l 906 572 m 1046 432 l 922 432 l 922 556 l 1046 556 l 1046 432 m 906 432 l 781 432 l 781 556 l 906 556 l 906 432 m 1046 292 l 922 292 l 922 415 l 1046 415 l 1046 292 m 342 854 l 218 854 l 218 979 l 342 979 l 342 854 m 1046 150 l 922 150 l 922 275 l 1046 275 l 1046 150 m 764 432 l 640 432 l 640 556 l 764 556 l 764 432 m 906 292 l 781 292 l 781 415 l 906 415 l 906 292 m 201 854 l 76 854 l 76 979 l 201 979 l 201 854 m 342 714 l 218 714 l 218 838 l 342 838 l 342 714 m 906 150 l 781 150 l 781 275 l 906 275 l 906 150 m 1046 10 l 922 10 l 922 133 l 1046 133 l 1046 10 m 624 432 l 500 432 l 500 556 l 624 556 l 624 432 m 201 714 l 76 714 l 76 838 l 201 838 l 201 714 m 342 572 l 218 572 l 218 697 l 342 697 l 342 572 m 483 432 l 358 432 l 358 556 l 483 556 l 483 432 m 906 10 l 781 10 l 781 133 l 906 133 l 906 10 m 201 572 l 76 572 l 76 697 l 201 697 l 201 572 m 342 432 l 218 432 l 218 556 l 342 556 l 342 432 m 201 432 l 76 432 l 76 556 l 201 556 l 201 432 m 342 292 l 218 292 l 218 415 l 342 415 l 342 292 m 342 150 l 218 150 l 218 275 l 342 275 l 342 150 m 201 292 l 76 292 l 76 415 l 201 415 l 201 292 m 201 150 l 76 150 l 76 275 l 201 275 l 201 150 m 342 10 l 218 10 l 218 133 l 342 133 l 342 10 m 201 10 l 76 10 l 76 133 l 201 133 l 201 10 z "},"I":{"ha":431,"x_min":90,"x_max":356,"o":"m 356 854 l 232 854 l 232 979 l 356 979 l 356 854 m 215 854 l 90 854 l 90 979 l 215 979 l 215 854 m 356 714 l 232 714 l 232 838 l 356 838 l 356 714 m 215 714 l 90 714 l 90 838 l 215 838 l 215 714 m 356 572 l 232 572 l 232 697 l 356 697 l 356 572 m 215 572 l 90 572 l 90 697 l 215 697 l 215 572 m 356 432 l 232 432 l 232 556 l 356 556 l 356 432 m 215 432 l 90 432 l 90 556 l 215 556 l 215 432 m 356 292 l 232 292 l 232 415 l 356 415 l 356 292 m 356 150 l 232 150 l 232 275 l 356 275 l 356 150 m 215 292 l 90 292 l 90 415 l 215 415 l 215 292 m 215 150 l 90 150 l 90 275 l 215 275 l 215 150 m 356 10 l 232 10 l 232 133 l 356 133 l 356 10 m 215 10 l 90 10 l 90 133 l 215 133 l 215 10 z "},"J":{"ha":708,"x_min":76,"x_max":624,"o":"m 624 854 l 500 854 l 500 979 l 624 979 l 624 854 m 483 854 l 358 854 l 358 979 l 483 979 l 483 854 m 624 714 l 500 714 l 500 838 l 624 838 l 624 714 m 483 714 l 358 714 l 358 838 l 483 838 l 483 714 m 624 572 l 500 572 l 500 697 l 624 697 l 624 572 m 483 572 l 358 572 l 358 697 l 483 697 l 483 572 m 624 432 l 500 432 l 500 556 l 624 556 l 624 432 m 483 432 l 358 432 l 358 556 l 483 556 l 483 432 m 624 292 l 500 292 l 500 415 l 624 415 l 624 292 m 483 292 l 358 292 l 358 415 l 483 415 l 483 292 m 624 150 l 500 150 l 500 275 l 624 275 l 624 150 m 483 150 l 358 150 l 358 275 l 483 275 l 483 150 m 483 10 l 358 10 l 358 133 l 483 133 l 483 10 m 342 10 l 218 10 l 218 133 l 342 133 l 342 10 m 201 10 l 76 10 l 76 133 l 201 133 l 201 10 z "},"K":{"ha":979,"x_min":90,"x_max":919,"o":"m 919 854 l 794 854 l 794 979 l 919 979 l 919 854 m 778 854 l 654 854 l 654 979 l 778 979 l 778 854 m 778 714 l 654 714 l 654 838 l 778 838 l 778 714 m 638 714 l 514 714 l 514 838 l 638 838 l 638 714 m 356 854 l 232 854 l 232 979 l 356 979 l 356 854 m 638 572 l 514 572 l 514 697 l 638 697 l 638 572 m 215 854 l 90 854 l 90 979 l 215 979 l 215 854 m 356 714 l 232 714 l 232 838 l 356 838 l 356 714 m 497 572 l 372 572 l 372 697 l 497 697 l 497 572 m 215 714 l 90 714 l 90 838 l 215 838 l 215 714 m 356 572 l 232 572 l 232 697 l 356 697 l 356 572 m 497 432 l 372 432 l 372 556 l 497 556 l 497 432 m 778 150 l 654 150 l 654 275 l 778 275 l 778 150 m 919 10 l 794 10 l 794 133 l 919 133 l 919 10 m 638 292 l 514 292 l 514 415 l 638 415 l 638 292 m 215 572 l 90 572 l 90 697 l 215 697 l 215 572 m 356 432 l 232 432 l 232 556 l 356 556 l 356 432 m 497 292 l 372 292 l 372 415 l 497 415 l 497 292 m 638 150 l 514 150 l 514 275 l 638 275 l 638 150 m 778 10 l 654 10 l 654 133 l 778 133 l 778 10 m 215 432 l 90 432 l 90 556 l 215 556 l 215 432 m 356 292 l 232 292 l 232 415 l 356 415 l 356 292 m 356 150 l 232 150 l 232 275 l 356 275 l 356 150 m 215 292 l 90 292 l 90 415 l 215 415 l 215 292 m 215 150 l 90 150 l 90 275 l 215 275 l 215 150 m 356 10 l 232 10 l 232 133 l 356 133 l 356 10 m 215 10 l 90 10 l 90 133 l 215 133 l 215 10 z "},"L":{"ha":858,"x_min":90,"x_max":778,"o":"m 356 854 l 232 854 l 232 979 l 356 979 l 356 854 m 215 854 l 90 854 l 90 979 l 215 979 l 215 854 m 356 714 l 232 714 l 232 838 l 356 838 l 356 714 m 215 714 l 90 714 l 90 838 l 215 838 l 215 714 m 356 572 l 232 572 l 232 697 l 356 697 l 356 572 m 215 572 l 90 572 l 90 697 l 215 697 l 215 572 m 356 432 l 232 432 l 232 556 l 356 556 l 356 432 m 778 10 l 654 10 l 654 133 l 778 133 l 778 10 m 215 432 l 90 432 l 90 556 l 215 556 l 215 432 m 356 292 l 232 292 l 232 415 l 356 415 l 356 292 m 638 10 l 514 10 l 514 133 l 638 133 l 638 10 m 356 150 l 232 150 l 232 275 l 356 275 l 356 150 m 497 10 l 372 10 l 372 133 l 497 133 l 497 10 m 215 292 l 90 292 l 90 415 l 215 415 l 215 292 m 215 150 l 90 150 l 90 275 l 215 275 l 215 150 m 356 10 l 232 10 l 232 133 l 356 133 l 356 10 m 215 10 l 90 10 l 90 133 l 215 133 l 215 10 z "},"M":{"ha":981,"x_min":79,"x_max":907,"o":"m 907 854 l 783 854 l 783 979 l 907 979 l 907 854 m 767 854 l 642 854 l 642 979 l 767 979 l 767 854 m 907 714 l 783 714 l 783 838 l 907 838 l 907 714 m 767 714 l 642 714 l 642 838 l 767 838 l 767 714 m 907 572 l 783 572 l 783 697 l 907 697 l 907 572 m 625 714 l 501 714 l 501 838 l 625 838 l 625 714 m 767 572 l 642 572 l 642 697 l 767 697 l 767 572 m 907 432 l 783 432 l 783 556 l 907 556 l 907 432 m 625 572 l 501 572 l 501 697 l 625 697 l 625 572 m 767 432 l 642 432 l 642 556 l 767 556 l 767 432 m 907 292 l 783 292 l 783 415 l 907 415 l 907 292 m 203 854 l 79 854 l 79 979 l 203 979 l 203 854 m 344 714 l 219 714 l 219 838 l 344 838 l 344 714 m 907 150 l 783 150 l 783 275 l 907 275 l 907 150 m 485 572 l 361 572 l 361 697 l 485 697 l 485 572 m 767 292 l 642 292 l 642 415 l 767 415 l 767 292 m 203 714 l 79 714 l 79 838 l 203 838 l 203 714 m 344 572 l 219 572 l 219 697 l 344 697 l 344 572 m 767 150 l 642 150 l 642 275 l 767 275 l 767 150 m 907 10 l 783 10 l 783 133 l 907 133 l 907 10 m 485 432 l 361 432 l 361 556 l 485 556 l 485 432 m 203 572 l 79 572 l 79 697 l 203 697 l 203 572 m 767 10 l 642 10 l 642 133 l 767 133 l 767 10 m 203 432 l 79 432 l 79 556 l 203 556 l 203 432 m 203 292 l 79 292 l 79 415 l 203 415 l 203 292 m 203 150 l 79 150 l 79 275 l 203 275 l 203 150 m 203 10 l 79 10 l 79 133 l 203 133 l 203 10 z "},"N":{"ha":860,"x_min":90,"x_max":778,"o":"m 778 854 l 654 854 l 654 979 l 778 979 l 778 854 m 778 714 l 654 714 l 654 838 l 778 838 l 778 714 m 778 572 l 654 572 l 654 697 l 778 697 l 778 572 m 778 432 l 654 432 l 654 556 l 778 556 l 778 432 m 215 854 l 90 854 l 90 979 l 215 979 l 215 854 m 356 714 l 232 714 l 232 838 l 356 838 l 356 714 m 497 572 l 372 572 l 372 697 l 497 697 l 497 572 m 638 432 l 514 432 l 514 556 l 638 556 l 638 432 m 778 292 l 654 292 l 654 415 l 778 415 l 778 292 m 215 714 l 90 714 l 90 838 l 215 838 l 215 714 m 356 572 l 232 572 l 232 697 l 356 697 l 356 572 m 497 432 l 372 432 l 372 556 l 497 556 l 497 432 m 778 150 l 654 150 l 654 275 l 778 275 l 778 150 m 638 292 l 514 292 l 514 415 l 638 415 l 638 292 m 215 572 l 90 572 l 90 697 l 215 697 l 215 572 m 356 432 l 232 432 l 232 556 l 356 556 l 356 432 m 497 292 l 372 292 l 372 415 l 497 415 l 497 292 m 638 150 l 514 150 l 514 275 l 638 275 l 638 150 m 778 10 l 654 10 l 654 133 l 778 133 l 778 10 m 215 432 l 90 432 l 90 556 l 215 556 l 215 432 m 215 292 l 90 292 l 90 415 l 215 415 l 215 292 m 215 150 l 90 150 l 90 275 l 215 275 l 215 150 m 215 10 l 90 10 l 90 133 l 215 133 l 215 10 z "},"O":{"ha":1264,"x_min":76,"x_max":1188,"o":"m 906 854 l 781 854 l 781 979 l 906 979 l 906 854 m 1046 714 l 922 714 l 922 838 l 1046 838 l 1046 714 m 1188 572 l 1063 572 l 1063 697 l 1188 697 l 1188 572 m 764 854 l 640 854 l 640 979 l 764 979 l 764 854 m 906 714 l 781 714 l 781 838 l 906 838 l 906 714 m 1046 572 l 922 572 l 922 697 l 1046 697 l 1046 572 m 1188 432 l 1063 432 l 1063 556 l 1188 556 l 1188 432 m 624 854 l 500 854 l 500 979 l 624 979 l 624 854 m 1046 432 l 922 432 l 922 556 l 1046 556 l 1046 432 m 1188 292 l 1063 292 l 1063 415 l 1188 415 l 1188 292 m 483 854 l 358 854 l 358 979 l 483 979 l 483 854 m 1046 292 l 922 292 l 922 415 l 1046 415 l 1046 292 m 483 714 l 358 714 l 358 838 l 483 838 l 483 714 m 1046 150 l 922 150 l 922 275 l 1046 275 l 1046 150 m 342 714 l 218 714 l 218 838 l 342 838 l 342 714 m 906 150 l 781 150 l 781 275 l 906 275 l 906 150 m 342 572 l 218 572 l 218 697 l 342 697 l 342 572 m 906 10 l 781 10 l 781 133 l 906 133 l 906 10 m 201 572 l 76 572 l 76 697 l 201 697 l 201 572 m 342 432 l 218 432 l 218 556 l 342 556 l 342 432 m 764 10 l 640 10 l 640 133 l 764 133 l 764 10 m 483 150 l 358 150 l 358 275 l 483 275 l 483 150 m 201 432 l 76 432 l 76 556 l 201 556 l 201 432 m 342 292 l 218 292 l 218 415 l 342 415 l 342 292 m 624 10 l 500 10 l 500 133 l 624 133 l 624 10 m 342 150 l 218 150 l 218 275 l 342 275 l 342 150 m 483 10 l 358 10 l 358 133 l 483 133 l 483 10 m 201 292 l 76 292 l 76 415 l 201 415 l 201 292 z "},"P":{"ha":989,"x_min":76,"x_max":906,"o":"m 764 854 l 640 854 l 640 979 l 764 979 l 764 854 m 906 714 l 781 714 l 781 838 l 906 838 l 906 714 m 624 854 l 500 854 l 500 979 l 624 979 l 624 854 m 764 714 l 640 714 l 640 838 l 764 838 l 764 714 m 906 572 l 781 572 l 781 697 l 906 697 l 906 572 m 483 854 l 358 854 l 358 979 l 483 979 l 483 854 m 764 572 l 640 572 l 640 697 l 764 697 l 764 572 m 342 854 l 218 854 l 218 979 l 342 979 l 342 854 m 764 432 l 640 432 l 640 556 l 764 556 l 764 432 m 201 854 l 76 854 l 76 979 l 201 979 l 201 854 m 342 714 l 218 714 l 218 838 l 342 838 l 342 714 m 624 432 l 500 432 l 500 556 l 624 556 l 624 432 m 201 714 l 76 714 l 76 838 l 201 838 l 201 714 m 342 572 l 218 572 l 218 697 l 342 697 l 342 572 m 483 432 l 358 432 l 358 556 l 483 556 l 483 432 m 201 572 l 76 572 l 76 697 l 201 697 l 201 572 m 342 432 l 218 432 l 218 556 l 342 556 l 342 432 m 201 432 l 76 432 l 76 556 l 201 556 l 201 432 m 342 292 l 218 292 l 218 415 l 342 415 l 342 292 m 342 150 l 218 150 l 218 275 l 342 275 l 342 150 m 201 292 l 76 292 l 76 415 l 201 415 l 201 292 m 201 150 l 76 150 l 76 275 l 201 275 l 201 150 m 342 10 l 218 10 l 218 133 l 342 133 l 342 10 m 201 10 l 76 10 l 76 133 l 201 133 l 201 10 z "},"Q":{"ha":1271,"x_min":76,"x_max":1188,"o":"m 1188 -132 l 1063 -132 l 1063 -7 l 1188 -7 l 1188 -132 m 1046 -132 l 922 -132 l 922 -7 l 1046 -7 l 1046 -132 m 906 -132 l 781 -132 l 781 -7 l 906 -7 l 906 -132 m 906 854 l 781 854 l 781 979 l 906 979 l 906 854 m 1046 714 l 922 714 l 922 838 l 1046 838 l 1046 714 m 1188 572 l 1063 572 l 1063 697 l 1188 697 l 1188 572 m 764 854 l 640 854 l 640 979 l 764 979 l 764 854 m 906 714 l 781 714 l 781 838 l 906 838 l 906 714 m 1046 572 l 922 572 l 922 697 l 1046 697 l 1046 572 m 1188 432 l 1063 432 l 1063 556 l 1188 556 l 1188 432 m 624 854 l 500 854 l 500 979 l 624 979 l 624 854 m 1046 432 l 922 432 l 922 556 l 1046 556 l 1046 432 m 1188 292 l 1063 292 l 1063 415 l 1188 415 l 1188 292 m 483 854 l 358 854 l 358 979 l 483 979 l 483 854 m 1046 292 l 922 292 l 922 415 l 1046 415 l 1046 292 m 483 714 l 358 714 l 358 838 l 483 838 l 483 714 m 1046 150 l 922 150 l 922 275 l 1046 275 l 1046 150 m 342 714 l 218 714 l 218 838 l 342 838 l 342 714 m 906 150 l 781 150 l 781 275 l 906 275 l 906 150 m 342 572 l 218 572 l 218 697 l 342 697 l 342 572 m 906 10 l 781 10 l 781 133 l 906 133 l 906 10 m 201 572 l 76 572 l 76 697 l 201 697 l 201 572 m 342 432 l 218 432 l 218 556 l 342 556 l 342 432 m 764 10 l 640 10 l 640 133 l 764 133 l 764 10 m 483 150 l 358 150 l 358 275 l 483 275 l 483 150 m 201 432 l 76 432 l 76 556 l 201 556 l 201 432 m 342 292 l 218 292 l 218 415 l 342 415 l 342 292 m 624 10 l 500 10 l 500 133 l 624 133 l 624 10 m 342 150 l 218 150 l 218 275 l 342 275 l 342 150 m 483 10 l 358 10 l 358 133 l 483 133 l 483 10 m 201 292 l 76 292 l 76 415 l 201 415 l 201 292 z "},"R":{"ha":1118,"x_min":76,"x_max":1046,"o":"m 764 854 l 640 854 l 640 979 l 764 979 l 764 854 m 906 714 l 781 714 l 781 838 l 906 838 l 906 714 m 624 854 l 500 854 l 500 979 l 624 979 l 624 854 m 764 714 l 640 714 l 640 838 l 764 838 l 764 714 m 906 572 l 781 572 l 781 697 l 906 697 l 906 572 m 483 854 l 358 854 l 358 979 l 483 979 l 483 854 m 764 572 l 640 572 l 640 697 l 764 697 l 764 572 m 342 854 l 218 854 l 218 979 l 342 979 l 342 854 m 764 432 l 640 432 l 640 556 l 764 556 l 764 432 m 201 854 l 76 854 l 76 979 l 201 979 l 201 854 m 342 714 l 218 714 l 218 838 l 342 838 l 342 714 m 906 150 l 781 150 l 781 275 l 906 275 l 906 150 m 624 432 l 500 432 l 500 556 l 624 556 l 624 432 m 764 292 l 640 292 l 640 415 l 764 415 l 764 292 m 201 714 l 76 714 l 76 838 l 201 838 l 201 714 m 342 572 l 218 572 l 218 697 l 342 697 l 342 572 m 483 432 l 358 432 l 358 556 l 483 556 l 483 432 m 764 150 l 640 150 l 640 275 l 764 275 l 764 150 m 906 10 l 781 10 l 781 133 l 906 133 l 906 10 m 624 292 l 500 292 l 500 415 l 624 415 l 624 292 m 201 572 l 76 572 l 76 697 l 201 697 l 201 572 m 342 432 l 218 432 l 218 556 l 342 556 l 342 432 m 764 10 l 640 10 l 640 133 l 764 133 l 764 10 m 201 432 l 76 432 l 76 556 l 201 556 l 201 432 m 342 292 l 218 292 l 218 415 l 342 415 l 342 292 m 342 150 l 218 150 l 218 275 l 342 275 l 342 150 m 201 292 l 76 292 l 76 415 l 201 415 l 201 292 m 201 150 l 76 150 l 76 275 l 201 275 l 201 150 m 342 10 l 218 10 l 218 133 l 342 133 l 342 10 m 201 10 l 76 10 l 76 133 l 201 133 l 201 10 m 1046 10 l 921 10 l 921 133 l 1046 133 l 1046 10 z "},"S":{"ha":840,"x_min":76,"x_max":764,"o":"m 764 854 l 640 854 l 640 979 l 764 979 l 764 854 m 624 854 l 500 854 l 500 979 l 624 979 l 624 854 m 483 854 l 358 854 l 358 979 l 483 979 l 483 854 m 342 854 l 218 854 l 218 979 l 342 979 l 342 854 m 342 714 l 218 714 l 218 838 l 342 838 l 342 714 m 483 572 l 358 572 l 358 697 l 483 697 l 483 572 m 624 432 l 500 432 l 500 556 l 624 556 l 624 432 m 764 292 l 640 292 l 640 415 l 764 415 l 764 292 m 201 714 l 76 714 l 76 838 l 201 838 l 201 714 m 342 572 l 218 572 l 218 697 l 342 697 l 342 572 m 483 432 l 358 432 l 358 556 l 483 556 l 483 432 m 764 150 l 640 150 l 640 275 l 764 275 l 764 150 m 624 292 l 500 292 l 500 415 l 624 415 l 624 292 m 201 572 l 76 572 l 76 697 l 201 697 l 201 572 m 342 432 l 218 432 l 218 556 l 342 556 l 342 432 m 624 150 l 500 150 l 500 275 l 624 275 l 624 150 m 624 10 l 500 10 l 500 133 l 624 133 l 624 10 m 483 10 l 358 10 l 358 133 l 483 133 l 483 10 m 342 10 l 218 10 l 218 133 l 342 133 l 342 10 m 201 10 l 76 10 l 76 133 l 201 133 l 201 10 m 482 292 l 358 292 l 358 415 l 482 415 l 482 292 z "},"T":{"ha":974,"x_min":76,"x_max":903,"o":"m 764 854 l 640 854 l 640 979 l 764 979 l 764 854 m 624 854 l 500 854 l 500 979 l 624 979 l 624 854 m 483 854 l 358 854 l 358 979 l 483 979 l 483 854 m 624 714 l 500 714 l 500 838 l 624 838 l 624 714 m 342 854 l 218 854 l 218 979 l 342 979 l 342 854 m 483 714 l 358 714 l 358 838 l 483 838 l 483 714 m 624 572 l 500 572 l 500 697 l 624 697 l 624 572 m 201 854 l 76 854 l 76 979 l 201 979 l 201 854 m 483 572 l 358 572 l 358 697 l 483 697 l 483 572 m 624 432 l 500 432 l 500 556 l 624 556 l 624 432 m 483 432 l 358 432 l 358 556 l 483 556 l 483 432 m 624 292 l 500 292 l 500 415 l 624 415 l 624 292 m 483 292 l 358 292 l 358 415 l 483 415 l 483 292 m 624 150 l 500 150 l 500 275 l 624 275 l 624 150 m 483 150 l 358 150 l 358 275 l 483 275 l 483 150 m 624 10 l 500 10 l 500 133 l 624 133 l 624 10 m 483 10 l 358 10 l 358 133 l 483 133 l 483 10 m 903 854 l 779 854 l 779 979 l 903 979 l 903 854 z "},"U":{"ha":978,"x_min":76,"x_max":906,"o":"m 906 854 l 781 854 l 781 979 l 906 979 l 906 854 m 906 714 l 781 714 l 781 838 l 906 838 l 906 714 m 906 572 l 781 572 l 781 697 l 906 697 l 906 572 m 906 432 l 781 432 l 781 556 l 906 556 l 906 432 m 342 854 l 218 854 l 218 979 l 342 979 l 342 854 m 906 292 l 781 292 l 781 415 l 906 415 l 906 292 m 201 854 l 76 854 l 76 979 l 201 979 l 201 854 m 342 714 l 218 714 l 218 838 l 342 838 l 342 714 m 906 150 l 781 150 l 781 275 l 906 275 l 906 150 m 201 714 l 76 714 l 76 838 l 201 838 l 201 714 m 342 572 l 218 572 l 218 697 l 342 697 l 342 572 m 764 150 l 640 150 l 640 275 l 764 275 l 764 150 m 201 572 l 76 572 l 76 697 l 201 697 l 201 572 m 342 432 l 218 432 l 218 556 l 342 556 l 342 432 m 764 10 l 640 10 l 640 133 l 764 133 l 764 10 m 483 150 l 358 150 l 358 275 l 483 275 l 483 150 m 201 432 l 76 432 l 76 556 l 201 556 l 201 432 m 342 292 l 218 292 l 218 415 l 342 415 l 342 292 m 624 10 l 500 10 l 500 133 l 624 133 l 624 10 m 342 150 l 218 150 l 218 275 l 342 275 l 342 150 m 483 10 l 358 10 l 358 133 l 483 133 l 483 10 m 201 292 l 76 292 l 76 415 l 201 415 l 201 292 m 201 150 l 76 150 l 76 275 l 201 275 l 201 150 m 342 10 l 218 10 l 218 133 l 342 133 l 342 10 z "},"V":{"ha":1115,"x_min":69,"x_max":1039,"o":"m 1039 854 l 915 854 l 915 979 l 1039 979 l 1039 854 m 899 854 l 774 854 l 774 979 l 899 979 l 899 854 m 1039 714 l 915 714 l 915 838 l 1039 838 l 1039 714 m 899 714 l 774 714 l 774 838 l 899 838 l 899 714 m 899 572 l 774 572 l 774 697 l 899 697 l 899 572 m 899 432 l 774 432 l 774 556 l 899 556 l 899 432 m 335 854 l 211 854 l 211 979 l 335 979 l 335 854 m 757 432 l 633 432 l 633 556 l 757 556 l 757 432 m 194 854 l 69 854 l 69 979 l 194 979 l 194 854 m 335 714 l 211 714 l 211 838 l 335 838 l 335 714 m 476 572 l 351 572 l 351 697 l 476 697 l 476 572 m 757 292 l 633 292 l 633 415 l 757 415 l 757 292 m 194 714 l 69 714 l 69 838 l 194 838 l 194 714 m 335 572 l 211 572 l 211 697 l 335 697 l 335 572 m 476 432 l 351 432 l 351 556 l 476 556 l 476 432 m 757 150 l 633 150 l 633 275 l 757 275 l 757 150 m 335 432 l 211 432 l 211 556 l 335 556 l 335 432 m 476 292 l 351 292 l 351 415 l 476 415 l 476 292 m 617 150 l 493 150 l 493 275 l 617 275 l 617 150 m 757 10 l 633 10 l 633 133 l 757 133 l 757 10 m 476 150 l 351 150 l 351 275 l 476 275 l 476 150 m 335 292 l 211 292 l 211 415 l 335 415 l 335 292 m 617 10 l 493 10 l 493 133 l 617 133 l 617 10 m 476 10 l 351 10 l 351 133 l 476 133 l 476 10 z "},"W":{"ha":1544,"x_min":76,"x_max":1472,"o":"m 906 854 l 781 854 l 781 979 l 906 979 l 906 854 m 1188 572 l 1063 572 l 1063 697 l 1188 697 l 1188 572 m 764 854 l 640 854 l 640 979 l 764 979 l 764 854 m 906 714 l 781 714 l 781 838 l 906 838 l 906 714 m 1188 432 l 1063 432 l 1063 556 l 1188 556 l 1188 432 m 764 714 l 640 714 l 640 838 l 764 838 l 764 714 m 906 572 l 781 572 l 781 697 l 906 697 l 906 572 m 1188 292 l 1063 292 l 1063 415 l 1188 415 l 1188 292 m 1188 150 l 1063 150 l 1063 275 l 1188 275 l 1188 150 m 764 572 l 640 572 l 640 697 l 764 697 l 764 572 m 906 432 l 781 432 l 781 556 l 906 556 l 906 432 m 1046 292 l 922 292 l 922 415 l 1046 415 l 1046 292 m 342 854 l 218 854 l 218 979 l 342 979 l 342 854 m 1046 150 l 922 150 l 922 275 l 1046 275 l 1046 150 m 1188 10 l 1063 10 l 1063 133 l 1188 133 l 1188 10 m 764 432 l 640 432 l 640 556 l 764 556 l 764 432 m 906 292 l 781 292 l 781 415 l 906 415 l 906 292 m 201 854 l 76 854 l 76 979 l 201 979 l 201 854 m 342 714 l 218 714 l 218 838 l 342 838 l 342 714 m 483 572 l 358 572 l 358 697 l 483 697 l 483 572 m 1046 10 l 922 10 l 922 133 l 1046 133 l 1046 10 m 201 714 l 76 714 l 76 838 l 201 838 l 201 714 m 342 572 l 218 572 l 218 697 l 342 697 l 342 572 m 483 432 l 358 432 l 358 556 l 483 556 l 483 432 m 624 292 l 500 292 l 500 415 l 624 415 l 624 292 m 342 432 l 218 432 l 218 556 l 342 556 l 342 432 m 483 292 l 358 292 l 358 415 l 483 415 l 483 292 m 624 150 l 500 150 l 500 275 l 624 275 l 624 150 m 483 150 l 358 150 l 358 275 l 483 275 l 483 150 m 342 292 l 218 292 l 218 415 l 342 415 l 342 292 m 624 10 l 500 10 l 500 133 l 624 133 l 624 10 m 483 10 l 358 10 l 358 133 l 483 133 l 483 10 m 1329 854 l 1204 854 l 1204 979 l 1329 979 l 1329 854 m 1329 714 l 1204 714 l 1204 838 l 1329 838 l 1329 714 m 1329 572 l 1204 572 l 1204 697 l 1329 697 l 1329 572 m 1329 432 l 1204 432 l 1204 556 l 1329 556 l 1329 432 m 1472 854 l 1347 854 l 1347 979 l 1472 979 l 1472 854 z "},"X":{"ha":993,"x_min":76,"x_max":906,"o":"m 906 854 l 781 854 l 781 979 l 906 979 l 906 854 m 906 714 l 781 714 l 781 838 l 906 838 l 906 714 m 764 714 l 640 714 l 640 838 l 764 838 l 764 714 m 764 572 l 640 572 l 640 697 l 764 697 l 764 572 m 342 854 l 218 854 l 218 979 l 342 979 l 342 854 m 483 714 l 358 714 l 358 838 l 483 838 l 483 714 m 624 572 l 500 572 l 500 697 l 624 697 l 624 572 m 201 854 l 76 854 l 76 979 l 201 979 l 201 854 m 342 714 l 218 714 l 218 838 l 342 838 l 342 714 m 483 572 l 358 572 l 358 697 l 483 697 l 483 572 m 906 150 l 781 150 l 781 275 l 906 275 l 906 150 m 624 432 l 500 432 l 500 556 l 624 556 l 624 432 m 764 292 l 640 292 l 640 415 l 764 415 l 764 292 m 201 714 l 76 714 l 76 838 l 201 838 l 201 714 m 342 572 l 218 572 l 218 697 l 342 697 l 342 572 m 483 432 l 358 432 l 358 556 l 483 556 l 483 432 m 764 150 l 640 150 l 640 275 l 764 275 l 764 150 m 906 10 l 781 10 l 781 133 l 906 133 l 906 10 m 624 292 l 500 292 l 500 415 l 624 415 l 624 292 m 483 292 l 358 292 l 358 415 l 483 415 l 483 292 m 624 150 l 500 150 l 500 275 l 624 275 l 624 150 m 764 10 l 640 10 l 640 133 l 764 133 l 764 10 m 342 292 l 218 292 l 218 415 l 342 415 l 342 292 m 342 150 l 218 150 l 218 275 l 342 275 l 342 150 m 201 150 l 76 150 l 76 275 l 201 275 l 201 150 m 201 10 l 76 10 l 76 133 l 201 133 l 201 10 z "},"Y":{"ha":985,"x_min":76,"x_max":906,"o":"m 906 854 l 781 854 l 781 979 l 906 979 l 906 854 m 764 854 l 640 854 l 640 979 l 764 979 l 764 854 m 906 714 l 781 714 l 781 838 l 906 838 l 906 714 m 764 714 l 640 714 l 640 838 l 764 838 l 764 714 m 906 572 l 781 572 l 781 697 l 906 697 l 906 572 m 764 572 l 640 572 l 640 697 l 764 697 l 764 572 m 342 854 l 218 854 l 218 979 l 342 979 l 342 854 m 764 432 l 640 432 l 640 556 l 764 556 l 764 432 m 201 854 l 76 854 l 76 979 l 201 979 l 201 854 m 342 714 l 218 714 l 218 838 l 342 838 l 342 714 m 624 432 l 500 432 l 500 556 l 624 556 l 624 432 m 201 714 l 76 714 l 76 838 l 201 838 l 201 714 m 342 572 l 218 572 l 218 697 l 342 697 l 342 572 m 483 432 l 358 432 l 358 556 l 483 556 l 483 432 m 624 292 l 500 292 l 500 415 l 624 415 l 624 292 m 201 572 l 76 572 l 76 697 l 201 697 l 201 572 m 342 432 l 218 432 l 218 556 l 342 556 l 342 432 m 483 292 l 358 292 l 358 415 l 483 415 l 483 292 m 624 150 l 500 150 l 500 275 l 624 275 l 624 150 m 483 150 l 358 150 l 358 275 l 483 275 l 483 150 m 624 10 l 500 10 l 500 133 l 624 133 l 624 10 m 483 10 l 358 10 l 358 133 l 483 133 l 483 10 z "},"Z":{"ha":989,"x_min":76,"x_max":906,"o":"m 906 854 l 781 854 l 781 979 l 906 979 l 906 854 m 764 854 l 640 854 l 640 979 l 764 979 l 764 854 m 906 714 l 781 714 l 781 838 l 906 838 l 906 714 m 624 854 l 500 854 l 500 979 l 624 979 l 624 854 m 764 714 l 640 714 l 640 838 l 764 838 l 764 714 m 483 854 l 358 854 l 358 979 l 483 979 l 483 854 m 624 714 l 500 714 l 500 838 l 624 838 l 624 714 m 764 572 l 640 572 l 640 697 l 764 697 l 764 572 m 342 854 l 218 854 l 218 979 l 342 979 l 342 854 m 624 572 l 500 572 l 500 697 l 624 697 l 624 572 m 201 854 l 76 854 l 76 979 l 201 979 l 201 854 m 483 572 l 358 572 l 358 697 l 483 697 l 483 572 m 624 432 l 500 432 l 500 556 l 624 556 l 624 432 m 483 432 l 358 432 l 358 556 l 483 556 l 483 432 m 906 10 l 781 10 l 781 133 l 906 133 l 906 10 m 342 432 l 218 432 l 218 556 l 342 556 l 342 432 m 483 292 l 358 292 l 358 415 l 483 415 l 483 292 m 764 10 l 640 10 l 640 133 l 764 133 l 764 10 m 342 292 l 218 292 l 218 415 l 342 415 l 342 292 m 624 10 l 500 10 l 500 133 l 624 133 l 624 10 m 342 150 l 218 150 l 218 275 l 342 275 l 342 150 m 483 10 l 358 10 l 358 133 l 483 133 l 483 10 m 201 292 l 76 292 l 76 415 l 201 415 l 201 292 m 201 150 l 76 150 l 76 275 l 201 275 l 201 150 m 342 10 l 218 10 l 218 133 l 342 133 l 342 10 m 201 10 l 76 10 l 76 133 l 201 133 l 201 10 z "},"[":{"ha":563,"x_min":76,"x_max":483,"o":"m 483 854 l 358 854 l 358 979 l 483 979 l 483 854 m 342 854 l 218 854 l 218 979 l 342 979 l 342 854 m 201 854 l 76 854 l 76 979 l 201 979 l 201 854 m 342 714 l 218 714 l 218 838 l 342 838 l 342 714 m 201 714 l 76 714 l 76 838 l 201 838 l 201 714 m 342 572 l 218 572 l 218 697 l 342 697 l 342 572 m 201 572 l 76 572 l 76 697 l 201 697 l 201 572 m 342 432 l 218 432 l 218 556 l 342 556 l 342 432 m 201 432 l 76 432 l 76 556 l 201 556 l 201 432 m 342 292 l 218 292 l 218 415 l 342 415 l 342 292 m 342 150 l 218 150 l 218 275 l 342 275 l 342 150 m 201 292 l 76 292 l 76 415 l 201 415 l 201 292 m 201 150 l 76 150 l 76 275 l 201 275 l 201 150 m 342 10 l 218 10 l 218 133 l 342 133 l 342 10 m 483 -132 l 358 -132 l 358 -7 l 483 -7 l 483 -132 m 201 10 l 76 10 l 76 133 l 201 133 l 201 10 m 342 -132 l 218 -132 l 218 -7 l 342 -7 l 342 -132 m 201 -132 l 76 -132 l 76 -7 l 201 -7 l 201 -132 z "},"\\":{"ha":1292,"x_min":90,"x_max":778,"o":"m 356 854 l 232 854 l 232 979 l 356 979 l 356 854 m 215 854 l 90 854 l 90 979 l 215 979 l 215 854 m 356 714 l 232 714 l 232 838 l 356 838 l 356 714 m 497 572 l 372 572 l 372 697 l 497 697 l 497 572 m 638 432 l 514 432 l 514 556 l 638 556 l 638 432 m 215 714 l 90 714 l 90 838 l 215 838 l 215 714 m 356 572 l 232 572 l 232 697 l 356 697 l 356 572 m 497 432 l 372 432 l 372 556 l 497 556 l 497 432 m 778 150 l 654 150 l 654 275 l 778 275 l 778 150 m 638 292 l 514 292 l 514 415 l 638 415 l 638 292 m 497 292 l 372 292 l 372 415 l 497 415 l 497 292 m 638 150 l 514 150 l 514 275 l 638 275 l 638 150 m 778 10 l 654 10 l 654 133 l 778 133 l 778 10 m 638 10 l 514 10 l 514 133 l 638 133 l 638 10 z "},"]":{"ha":572,"x_min":76,"x_max":483,"o":"m 483 854 l 358 854 l 358 979 l 483 979 l 483 854 m 342 854 l 218 854 l 218 979 l 342 979 l 342 854 m 483 714 l 358 714 l 358 838 l 483 838 l 483 714 m 201 854 l 76 854 l 76 979 l 201 979 l 201 854 m 342 714 l 218 714 l 218 838 l 342 838 l 342 714 m 483 572 l 358 572 l 358 697 l 483 697 l 483 572 m 342 572 l 218 572 l 218 697 l 342 697 l 342 572 m 483 432 l 358 432 l 358 556 l 483 556 l 483 432 m 342 432 l 218 432 l 218 556 l 342 556 l 342 432 m 483 292 l 358 292 l 358 415 l 483 415 l 483 292 m 483 150 l 358 150 l 358 275 l 483 275 l 483 150 m 342 292 l 218 292 l 218 415 l 342 415 l 342 292 m 342 150 l 218 150 l 218 275 l 342 275 l 342 150 m 483 10 l 358 10 l 358 133 l 483 133 l 483 10 m 342 10 l 218 10 l 218 133 l 342 133 l 342 10 m 483 -132 l 358 -132 l 358 -7 l 483 -7 l 483 -132 m 342 -132 l 218 -132 l 218 -7 l 342 -7 l 342 -132 m 201 -132 l 76 -132 l 76 -7 l 201 -7 l 201 -132 z "},"^":{"ha":554,"x_min":78,"x_max":485,"o":"m 343 1129 l 219 1129 l 219 1254 l 343 1254 l 343 1129 m 485 989 l 360 989 l 360 1113 l 485 1113 l 485 989 m 203 989 l 78 989 l 78 1113 l 203 1113 l 203 989 z "},"_":{"ha":840,"x_min":76,"x_max":764,"o":"m 764 -271 l 640 -271 l 640 -146 l 764 -146 l 764 -271 m 624 -271 l 500 -271 l 500 -146 l 624 -146 l 624 -271 m 483 -271 l 358 -271 l 358 -146 l 483 -146 l 483 -271 m 342 -271 l 218 -271 l 218 -146 l 342 -146 l 342 -271 m 201 -271 l 76 -271 l 76 -146 l 201 -146 l 201 -271 z "},"`":{"ha":569,"x_min":90,"x_max":497,"o":"m 356 994 l 232 994 l 232 1119 l 356 1119 l 356 994 m 497 854 l 372 854 l 372 978 l 497 978 l 497 854 m 215 994 l 90 994 l 90 1119 l 215 1119 l 215 994 z "},"a":{"ha":822,"x_min":64,"x_max":751,"o":"m 611 572 l 488 572 l 488 697 l 611 697 l 611 572 m 751 432 l 628 432 l 628 556 l 751 556 l 751 432 m 471 572 l 346 572 l 346 697 l 471 697 l 471 572 m 611 432 l 488 432 l 488 556 l 611 556 l 611 432 m 751 292 l 628 292 l 628 415 l 751 415 l 751 292 m 329 572 l 206 572 l 206 697 l 329 697 l 329 572 m 751 150 l 628 150 l 628 275 l 751 275 l 751 150 m 611 292 l 488 292 l 488 415 l 611 415 l 611 292 m 471 292 l 346 292 l 346 415 l 471 415 l 471 292 m 611 150 l 488 150 l 488 275 l 611 275 l 611 150 m 751 10 l 628 10 l 628 133 l 751 133 l 751 10 m 329 292 l 206 292 l 206 415 l 329 415 l 329 292 m 611 10 l 488 10 l 488 133 l 611 133 l 611 10 m 329 150 l 206 150 l 206 275 l 329 275 l 329 150 m 471 10 l 346 10 l 346 133 l 471 133 l 471 10 m 189 150 l 64 150 l 64 275 l 189 275 l 189 150 m 329 10 l 206 10 l 206 133 l 329 133 l 329 10 z "},"b":{"ha":872,"x_min":90,"x_max":778,"o":"m 356 854 l 232 854 l 232 979 l 356 979 l 356 854 m 638 572 l 514 572 l 514 697 l 638 697 l 638 572 m 778 432 l 654 432 l 654 556 l 778 556 l 778 432 m 215 854 l 90 854 l 90 979 l 215 979 l 215 854 m 356 714 l 232 714 l 232 838 l 356 838 l 356 714 m 497 572 l 372 572 l 372 697 l 497 697 l 497 572 m 638 432 l 514 432 l 514 556 l 638 556 l 638 432 m 778 292 l 654 292 l 654 415 l 778 415 l 778 292 m 215 714 l 90 714 l 90 838 l 215 838 l 215 714 m 356 572 l 232 572 l 232 697 l 356 697 l 356 572 m 778 150 l 654 150 l 654 275 l 778 275 l 778 150 m 638 292 l 514 292 l 514 415 l 638 415 l 638 292 m 215 572 l 90 572 l 90 697 l 215 697 l 215 572 m 356 432 l 232 432 l 232 556 l 356 556 l 356 432 m 638 150 l 514 150 l 514 275 l 638 275 l 638 150 m 215 432 l 90 432 l 90 556 l 215 556 l 215 432 m 356 292 l 232 292 l 232 415 l 356 415 l 356 292 m 638 10 l 514 10 l 514 133 l 638 133 l 638 10 m 356 150 l 232 150 l 232 275 l 356 275 l 356 150 m 497 10 l 372 10 l 372 133 l 497 133 l 497 10 m 215 292 l 90 292 l 90 415 l 215 415 l 215 292 m 215 150 l 90 150 l 90 275 l 215 275 l 215 150 m 356 10 l 232 10 l 232 133 l 356 133 l 356 10 m 215 10 l 90 10 l 90 133 l 215 133 l 215 10 z "},"c":{"ha":676,"x_min":64,"x_max":611,"o":"m 611 572 l 488 572 l 488 697 l 611 697 l 611 572 m 471 572 l 346 572 l 346 697 l 471 697 l 471 572 m 329 572 l 206 572 l 206 697 l 329 697 l 329 572 m 329 432 l 206 432 l 206 556 l 329 556 l 329 432 m 189 432 l 64 432 l 64 556 l 189 556 l 189 432 m 329 292 l 206 292 l 206 415 l 329 415 l 329 292 m 611 10 l 488 10 l 488 133 l 611 133 l 611 10 m 329 150 l 206 150 l 206 275 l 329 275 l 329 150 m 471 10 l 346 10 l 346 133 l 471 133 l 471 10 m 189 292 l 64 292 l 64 415 l 189 415 l 189 292 m 189 150 l 64 150 l 64 275 l 189 275 l 189 150 m 329 10 l 206 10 l 206 133 l 329 133 l 329 10 z "},"d":{"ha":844,"x_min":64,"x_max":751,"o":"m 751 854 l 628 854 l 628 979 l 751 979 l 751 854 m 611 854 l 488 854 l 488 979 l 611 979 l 611 854 m 751 714 l 628 714 l 628 838 l 751 838 l 751 714 m 611 714 l 488 714 l 488 838 l 611 838 l 611 714 m 751 572 l 628 572 l 628 697 l 751 697 l 751 572 m 611 572 l 488 572 l 488 697 l 611 697 l 611 572 m 751 432 l 628 432 l 628 556 l 751 556 l 751 432 m 471 572 l 346 572 l 346 697 l 471 697 l 471 572 m 611 432 l 488 432 l 488 556 l 611 556 l 611 432 m 751 292 l 628 292 l 628 415 l 751 415 l 751 292 m 329 572 l 206 572 l 206 697 l 329 697 l 329 572 m 751 150 l 628 150 l 628 275 l 751 275 l 751 150 m 611 292 l 488 292 l 488 415 l 611 415 l 611 292 m 329 432 l 206 432 l 206 556 l 329 556 l 329 432 m 611 150 l 488 150 l 488 275 l 611 275 l 611 150 m 751 10 l 628 10 l 628 133 l 751 133 l 751 10 m 189 432 l 64 432 l 64 556 l 189 556 l 189 432 m 329 292 l 206 292 l 206 415 l 329 415 l 329 292 m 611 10 l 488 10 l 488 133 l 611 133 l 611 10 m 329 150 l 206 150 l 206 275 l 329 275 l 329 150 m 471 10 l 346 10 l 346 133 l 471 133 l 471 10 m 189 292 l 64 292 l 64 415 l 189 415 l 189 292 m 189 150 l 64 150 l 64 275 l 189 275 l 189 150 m 329 10 l 206 10 l 206 133 l 329 133 l 329 10 z "},"e":{"ha":838,"x_min":75,"x_max":763,"o":"m 622 572 l 499 572 l 499 697 l 622 697 l 622 572 m 763 432 l 639 432 l 639 556 l 763 556 l 763 432 m 482 572 l 357 572 l 357 697 l 482 697 l 482 572 m 622 432 l 499 432 l 499 556 l 622 556 l 622 432 m 763 292 l 639 292 l 639 415 l 763 415 l 763 292 m 340 572 l 217 572 l 217 697 l 340 697 l 340 572 m 622 292 l 499 292 l 499 415 l 622 415 l 622 292 m 340 432 l 217 432 l 217 556 l 340 556 l 340 432 m 482 292 l 357 292 l 357 415 l 482 415 l 482 292 m 763 10 l 639 10 l 639 133 l 763 133 l 763 10 m 200 432 l 75 432 l 75 556 l 200 556 l 200 432 m 340 292 l 217 292 l 217 415 l 340 415 l 340 292 m 622 10 l 499 10 l 499 133 l 622 133 l 622 10 m 340 150 l 217 150 l 217 275 l 340 275 l 340 150 m 482 10 l 357 10 l 357 133 l 482 133 l 482 10 m 200 292 l 75 292 l 75 415 l 200 415 l 200 292 m 200 150 l 75 150 l 75 275 l 200 275 l 200 150 m 340 10 l 217 10 l 217 133 l 340 133 l 340 10 z "},"f":{"ha":538,"x_min":65,"x_max":471,"o":"m 471 854 l 347 854 l 347 979 l 471 979 l 471 854 m 331 854 l 206 854 l 206 979 l 331 979 l 331 854 m 331 714 l 206 714 l 206 838 l 331 838 l 331 714 m 471 572 l 347 572 l 347 697 l 471 697 l 471 572 m 189 714 l 65 714 l 65 838 l 189 838 l 189 714 m 331 572 l 206 572 l 206 697 l 331 697 l 331 572 m 189 572 l 65 572 l 65 697 l 189 697 l 189 572 m 331 432 l 206 432 l 206 556 l 331 556 l 331 432 m 189 432 l 65 432 l 65 556 l 189 556 l 189 432 m 331 292 l 206 292 l 206 415 l 331 415 l 331 292 m 331 150 l 206 150 l 206 275 l 331 275 l 331 150 m 189 292 l 65 292 l 65 415 l 189 415 l 189 292 m 189 150 l 65 150 l 65 275 l 189 275 l 189 150 m 331 10 l 206 10 l 206 133 l 331 133 l 331 10 m 189 10 l 65 10 l 65 133 l 189 133 l 189 10 z "},"g":{"ha":839,"x_min":64,"x_max":751,"o":"m 751 572 l 628 572 l 628 697 l 751 697 l 751 572 m 611 572 l 488 572 l 488 697 l 611 697 l 611 572 m 751 432 l 628 432 l 628 556 l 751 556 l 751 432 m 471 572 l 346 572 l 346 697 l 471 697 l 471 572 m 611 432 l 488 432 l 488 556 l 611 556 l 611 432 m 751 292 l 628 292 l 628 415 l 751 415 l 751 292 m 329 572 l 206 572 l 206 697 l 329 697 l 329 572 m 751 150 l 628 150 l 628 275 l 751 275 l 751 150 m 611 292 l 488 292 l 488 415 l 611 415 l 611 292 m 329 432 l 206 432 l 206 556 l 329 556 l 329 432 m 611 150 l 488 150 l 488 275 l 611 275 l 611 150 m 751 10 l 628 10 l 628 133 l 751 133 l 751 10 m 189 432 l 64 432 l 64 556 l 189 556 l 189 432 m 329 292 l 206 292 l 206 415 l 329 415 l 329 292 m 611 10 l 488 10 l 488 133 l 611 133 l 611 10 m 751 -132 l 628 -132 l 628 -7 l 751 -7 l 751 -132 m 329 150 l 206 150 l 206 275 l 329 275 l 329 150 m 471 10 l 346 10 l 346 133 l 471 133 l 471 10 m 189 292 l 64 292 l 64 415 l 189 415 l 189 292 m 611 -132 l 488 -132 l 488 -7 l 611 -7 l 611 -132 m 189 150 l 64 150 l 64 275 l 189 275 l 189 150 m 329 10 l 206 10 l 206 133 l 329 133 l 329 10 m 611 -275 l 488 -275 l 488 -150 l 611 -150 l 611 -275 m 471 -275 l 346 -275 l 346 -150 l 471 -150 l 471 -275 m 329 -275 l 206 -275 l 206 -150 l 329 -150 l 329 -275 z "},"h":{"ha":822,"x_min":64,"x_max":751,"o":"m 329 854 l 206 854 l 206 979 l 329 979 l 329 854 m 611 572 l 488 572 l 488 697 l 611 697 l 611 572 m 751 432 l 628 432 l 628 556 l 751 556 l 751 432 m 189 854 l 64 854 l 64 979 l 189 979 l 189 854 m 329 714 l 206 714 l 206 838 l 329 838 l 329 714 m 471 572 l 346 572 l 346 697 l 471 697 l 471 572 m 611 432 l 488 432 l 488 556 l 611 556 l 611 432 m 751 292 l 628 292 l 628 415 l 751 415 l 751 292 m 189 714 l 64 714 l 64 838 l 189 838 l 189 714 m 329 572 l 206 572 l 206 697 l 329 697 l 329 572 m 751 150 l 628 150 l 628 275 l 751 275 l 751 150 m 611 292 l 488 292 l 488 415 l 611 415 l 611 292 m 189 572 l 64 572 l 64 697 l 189 697 l 189 572 m 329 432 l 206 432 l 206 556 l 329 556 l 329 432 m 611 150 l 488 150 l 488 275 l 611 275 l 611 150 m 751 10 l 628 10 l 628 133 l 751 133 l 751 10 m 189 432 l 64 432 l 64 556 l 189 556 l 189 432 m 329 292 l 206 292 l 206 415 l 329 415 l 329 292 m 611 10 l 488 10 l 488 133 l 611 133 l 611 10 m 329 150 l 206 150 l 206 275 l 329 275 l 329 150 m 189 292 l 64 292 l 64 415 l 189 415 l 189 292 m 189 150 l 64 150 l 64 275 l 189 275 l 189 150 m 329 10 l 206 10 l 206 133 l 329 133 l 329 10 m 189 10 l 64 10 l 64 133 l 189 133 l 189 10 z "},"i":{"ha":410,"x_min":64,"x_max":329,"o":"m 329 854 l 206 854 l 206 979 l 329 979 l 329 854 m 189 854 l 64 854 l 64 979 l 189 979 l 189 854 m 329 572 l 206 572 l 206 697 l 329 697 l 329 572 m 189 572 l 64 572 l 64 697 l 189 697 l 189 572 m 329 432 l 206 432 l 206 556 l 329 556 l 329 432 m 189 432 l 64 432 l 64 556 l 189 556 l 189 432 m 329 292 l 206 292 l 206 415 l 329 415 l 329 292 m 329 150 l 206 150 l 206 275 l 329 275 l 329 150 m 189 292 l 64 292 l 64 415 l 189 415 l 189 292 m 189 150 l 64 150 l 64 275 l 189 275 l 189 150 m 329 10 l 206 10 l 206 133 l 329 133 l 329 10 m 189 10 l 64 10 l 64 133 l 189 133 l 189 10 z "},"j":{"ha":436,"x_min":-54,"x_max":353,"o":"m 353 854 l 228 854 l 228 979 l 353 979 l 353 854 m 211 854 l 88 854 l 88 979 l 211 979 l 211 854 m 353 572 l 228 572 l 228 697 l 353 697 l 353 572 m 211 572 l 88 572 l 88 697 l 211 697 l 211 572 m 353 432 l 228 432 l 228 556 l 353 556 l 353 432 m 211 432 l 88 432 l 88 556 l 211 556 l 211 432 m 353 292 l 228 292 l 228 415 l 353 415 l 353 292 m 353 150 l 228 150 l 228 275 l 353 275 l 353 150 m 211 292 l 88 292 l 88 415 l 211 415 l 211 292 m 211 150 l 88 150 l 88 275 l 211 275 l 211 150 m 353 10 l 228 10 l 228 133 l 353 133 l 353 10 m 211 10 l 88 10 l 88 133 l 211 133 l 211 10 m 353 -132 l 228 -132 l 228 -7 l 353 -7 l 353 -132 m 211 -132 l 88 -132 l 88 -7 l 211 -7 l 211 -132 m 211 -275 l 88 -275 l 88 -150 l 211 -150 l 211 -275 m 71 -275 l -54 -275 l -54 -150 l 71 -150 l 71 -275 z "},"k":{"ha":978,"x_min":64,"x_max":893,"o":"m 751 572 l 628 572 l 628 697 l 751 697 l 751 572 m 329 854 l 206 854 l 206 979 l 329 979 l 329 854 m 611 572 l 488 572 l 488 697 l 611 697 l 611 572 m 189 854 l 64 854 l 64 979 l 189 979 l 189 854 m 329 714 l 206 714 l 206 838 l 329 838 l 329 714 m 611 432 l 488 432 l 488 556 l 611 556 l 611 432 m 189 714 l 64 714 l 64 838 l 189 838 l 189 714 m 329 572 l 206 572 l 206 697 l 329 697 l 329 572 m 471 432 l 346 432 l 346 556 l 471 556 l 471 432 m 751 150 l 628 150 l 628 275 l 751 275 l 751 150 m 893 10 l 768 10 l 768 133 l 893 133 l 893 10 m 611 292 l 488 292 l 488 415 l 611 415 l 611 292 m 189 572 l 64 572 l 64 697 l 189 697 l 189 572 m 329 432 l 206 432 l 206 556 l 329 556 l 329 432 m 471 292 l 346 292 l 346 415 l 471 415 l 471 292 m 611 150 l 488 150 l 488 275 l 611 275 l 611 150 m 751 10 l 628 10 l 628 133 l 751 133 l 751 10 m 189 432 l 64 432 l 64 556 l 189 556 l 189 432 m 329 292 l 206 292 l 206 415 l 329 415 l 329 292 m 329 150 l 206 150 l 206 275 l 329 275 l 329 150 m 189 292 l 64 292 l 64 415 l 189 415 l 189 292 m 189 150 l 64 150 l 64 275 l 189 275 l 189 150 m 329 10 l 206 10 l 206 133 l 329 133 l 329 10 m 189 10 l 64 10 l 64 133 l 189 133 l 189 10 z "},"l":{"ha":415,"x_min":64,"x_max":329,"o":"m 329 854 l 206 854 l 206 979 l 329 979 l 329 854 m 189 854 l 64 854 l 64 979 l 189 979 l 189 854 m 329 714 l 206 714 l 206 838 l 329 838 l 329 714 m 189 714 l 64 714 l 64 838 l 189 838 l 189 714 m 329 572 l 206 572 l 206 697 l 329 697 l 329 572 m 189 572 l 64 572 l 64 697 l 189 697 l 189 572 m 329 432 l 206 432 l 206 556 l 329 556 l 329 432 m 189 432 l 64 432 l 64 556 l 189 556 l 189 432 m 329 292 l 206 292 l 206 415 l 329 415 l 329 292 m 329 150 l 206 150 l 206 275 l 329 275 l 329 150 m 189 292 l 64 292 l 64 415 l 189 415 l 189 292 m 189 150 l 64 150 l 64 275 l 189 275 l 189 150 m 329 10 l 206 10 l 206 133 l 329 133 l 329 10 m 189 10 l 64 10 l 64 133 l 189 133 l 189 10 z "},"m":{"ha":1256,"x_min":64,"x_max":1175,"o":"m 1033 572 l 910 572 l 910 697 l 1033 697 l 1033 572 m 1175 432 l 1050 432 l 1050 556 l 1175 556 l 1175 432 m 893 572 l 768 572 l 768 697 l 893 697 l 893 572 m 1033 432 l 910 432 l 910 556 l 1033 556 l 1033 432 m 1175 292 l 1050 292 l 1050 415 l 1175 415 l 1175 292 m 1175 150 l 1050 150 l 1050 275 l 1175 275 l 1175 150 m 751 572 l 628 572 l 628 697 l 751 697 l 751 572 m 1033 292 l 910 292 l 910 415 l 1033 415 l 1033 292 m 1033 150 l 910 150 l 910 275 l 1033 275 l 1033 150 m 1175 10 l 1050 10 l 1050 133 l 1175 133 l 1175 10 m 751 432 l 628 432 l 628 556 l 751 556 l 751 432 m 471 572 l 346 572 l 346 697 l 471 697 l 471 572 m 1033 10 l 910 10 l 910 133 l 1033 133 l 1033 10 m 611 432 l 488 432 l 488 556 l 611 556 l 611 432 m 751 292 l 628 292 l 628 415 l 751 415 l 751 292 m 329 572 l 206 572 l 206 697 l 329 697 l 329 572 m 751 150 l 628 150 l 628 275 l 751 275 l 751 150 m 611 292 l 488 292 l 488 415 l 611 415 l 611 292 m 189 572 l 64 572 l 64 697 l 189 697 l 189 572 m 329 432 l 206 432 l 206 556 l 329 556 l 329 432 m 611 150 l 488 150 l 488 275 l 611 275 l 611 150 m 751 10 l 628 10 l 628 133 l 751 133 l 751 10 m 189 432 l 64 432 l 64 556 l 189 556 l 189 432 m 329 292 l 206 292 l 206 415 l 329 415 l 329 292 m 611 10 l 488 10 l 488 133 l 611 133 l 611 10 m 329 150 l 206 150 l 206 275 l 329 275 l 329 150 m 189 292 l 64 292 l 64 415 l 189 415 l 189 292 m 189 150 l 64 150 l 64 275 l 189 275 l 189 150 m 329 10 l 206 10 l 206 133 l 329 133 l 329 10 m 189 10 l 64 10 l 64 133 l 189 133 l 189 10 z "},"n":{"ha":835,"x_min":64,"x_max":751,"o":"m 611 572 l 488 572 l 488 697 l 611 697 l 611 572 m 751 432 l 628 432 l 628 556 l 751 556 l 751 432 m 471 572 l 346 572 l 346 697 l 471 697 l 471 572 m 611 432 l 488 432 l 488 556 l 611 556 l 611 432 m 751 292 l 628 292 l 628 415 l 751 415 l 751 292 m 329 572 l 206 572 l 206 697 l 329 697 l 329 572 m 751 150 l 628 150 l 628 275 l 751 275 l 751 150 m 611 292 l 488 292 l 488 415 l 611 415 l 611 292 m 189 572 l 64 572 l 64 697 l 189 697 l 189 572 m 329 432 l 206 432 l 206 556 l 329 556 l 329 432 m 611 150 l 488 150 l 488 275 l 611 275 l 611 150 m 751 10 l 628 10 l 628 133 l 751 133 l 751 10 m 189 432 l 64 432 l 64 556 l 189 556 l 189 432 m 329 292 l 206 292 l 206 415 l 329 415 l 329 292 m 611 10 l 488 10 l 488 133 l 611 133 l 611 10 m 329 150 l 206 150 l 206 275 l 329 275 l 329 150 m 189 292 l 64 292 l 64 415 l 189 415 l 189 292 m 189 150 l 64 150 l 64 275 l 189 275 l 189 150 m 329 10 l 206 10 l 206 133 l 329 133 l 329 10 m 189 10 l 64 10 l 64 133 l 189 133 l 189 10 z "},"o":{"ha":832,"x_min":64,"x_max":751,"o":"m 611 572 l 488 572 l 488 697 l 611 697 l 611 572 m 751 432 l 628 432 l 628 556 l 751 556 l 751 432 m 471 572 l 346 572 l 346 697 l 471 697 l 471 572 m 611 432 l 488 432 l 488 556 l 611 556 l 611 432 m 751 292 l 628 292 l 628 415 l 751 415 l 751 292 m 329 572 l 206 572 l 206 697 l 329 697 l 329 572 m 751 150 l 628 150 l 628 275 l 751 275 l 751 150 m 611 292 l 488 292 l 488 415 l 611 415 l 611 292 m 329 432 l 206 432 l 206 556 l 329 556 l 329 432 m 611 150 l 488 150 l 488 275 l 611 275 l 611 150 m 189 432 l 64 432 l 64 556 l 189 556 l 189 432 m 329 292 l 206 292 l 206 415 l 329 415 l 329 292 m 611 10 l 488 10 l 488 133 l 611 133 l 611 10 m 329 150 l 206 150 l 206 275 l 329 275 l 329 150 m 471 10 l 346 10 l 346 133 l 471 133 l 471 10 m 189 292 l 64 292 l 64 415 l 189 415 l 189 292 m 189 150 l 64 150 l 64 275 l 189 275 l 189 150 m 329 10 l 206 10 l 206 133 l 329 133 l 329 10 z "},"p":{"ha":818,"x_min":64,"x_max":751,"o":"m 611 572 l 488 572 l 488 697 l 611 697 l 611 572 m 751 432 l 628 432 l 628 556 l 751 556 l 751 432 m 471 572 l 346 572 l 346 697 l 471 697 l 471 572 m 611 432 l 488 432 l 488 556 l 611 556 l 611 432 m 751 292 l 628 292 l 628 415 l 751 415 l 751 292 m 329 572 l 206 572 l 206 697 l 329 697 l 329 572 m 751 150 l 628 150 l 628 275 l 751 275 l 751 150 m 611 292 l 488 292 l 488 415 l 611 415 l 611 292 m 189 572 l 64 572 l 64 697 l 189 697 l 189 572 m 329 432 l 206 432 l 206 556 l 329 556 l 329 432 m 611 150 l 488 150 l 488 275 l 611 275 l 611 150 m 189 432 l 64 432 l 64 556 l 189 556 l 189 432 m 329 292 l 206 292 l 206 415 l 329 415 l 329 292 m 611 10 l 488 10 l 488 133 l 611 133 l 611 10 m 329 150 l 206 150 l 206 275 l 329 275 l 329 150 m 471 10 l 346 10 l 346 133 l 471 133 l 471 10 m 189 292 l 64 292 l 64 415 l 189 415 l 189 292 m 189 150 l 64 150 l 64 275 l 189 275 l 189 150 m 329 10 l 206 10 l 206 133 l 329 133 l 329 10 m 189 10 l 64 10 l 64 133 l 189 133 l 189 10 m 329 -132 l 206 -132 l 206 -7 l 329 -7 l 329 -132 m 189 -132 l 64 -132 l 64 -7 l 189 -7 l 189 -132 m 329 -275 l 206 -275 l 206 -150 l 329 -150 l 329 -275 m 189 -275 l 64 -275 l 64 -150 l 189 -150 l 189 -275 z "},"q":{"ha":844,"x_min":64,"x_max":751,"o":"m 751 572 l 628 572 l 628 697 l 751 697 l 751 572 m 611 572 l 488 572 l 488 697 l 611 697 l 611 572 m 751 432 l 628 432 l 628 556 l 751 556 l 751 432 m 471 572 l 346 572 l 346 697 l 471 697 l 471 572 m 611 432 l 488 432 l 488 556 l 611 556 l 611 432 m 751 292 l 628 292 l 628 415 l 751 415 l 751 292 m 329 572 l 206 572 l 206 697 l 329 697 l 329 572 m 751 150 l 628 150 l 628 275 l 751 275 l 751 150 m 611 292 l 488 292 l 488 415 l 611 415 l 611 292 m 329 432 l 206 432 l 206 556 l 329 556 l 329 432 m 611 150 l 488 150 l 488 275 l 611 275 l 611 150 m 751 10 l 628 10 l 628 133 l 751 133 l 751 10 m 189 432 l 64 432 l 64 556 l 189 556 l 189 432 m 329 292 l 206 292 l 206 415 l 329 415 l 329 292 m 611 10 l 488 10 l 488 133 l 611 133 l 611 10 m 751 -132 l 628 -132 l 628 -7 l 751 -7 l 751 -132 m 329 150 l 206 150 l 206 275 l 329 275 l 329 150 m 471 10 l 346 10 l 346 133 l 471 133 l 471 10 m 189 292 l 64 292 l 64 415 l 189 415 l 189 292 m 611 -132 l 488 -132 l 488 -7 l 611 -7 l 611 -132 m 189 150 l 64 150 l 64 275 l 189 275 l 189 150 m 329 10 l 206 10 l 206 133 l 329 133 l 329 10 m 751 -275 l 628 -275 l 628 -150 l 751 -150 l 751 -275 m 611 -275 l 488 -275 l 488 -150 l 611 -150 l 611 -275 z "},"r":{"ha":683,"x_min":64,"x_max":611,"o":"m 611 572 l 488 572 l 488 697 l 611 697 l 611 572 m 611 432 l 488 432 l 488 556 l 611 556 l 611 432 m 329 572 l 206 572 l 206 697 l 329 697 l 329 572 m 471 432 l 346 432 l 346 556 l 471 556 l 471 432 m 189 572 l 64 572 l 64 697 l 189 697 l 189 572 m 329 432 l 206 432 l 206 556 l 329 556 l 329 432 m 189 432 l 64 432 l 64 556 l 189 556 l 189 432 m 329 292 l 206 292 l 206 415 l 329 415 l 329 292 m 329 150 l 206 150 l 206 275 l 329 275 l 329 150 m 189 292 l 64 292 l 64 415 l 189 415 l 189 292 m 189 150 l 64 150 l 64 275 l 189 275 l 189 150 m 329 10 l 206 10 l 206 133 l 329 133 l 329 10 m 189 10 l 64 10 l 64 133 l 189 133 l 189 10 z "},"s":{"ha":706,"x_min":75,"x_max":622,"o":"m 622 572 l 499 572 l 499 697 l 622 697 l 622 572 m 482 572 l 357 572 l 357 697 l 482 697 l 482 572 m 340 572 l 217 572 l 217 697 l 340 697 l 340 572 m 622 292 l 499 292 l 499 415 l 622 415 l 622 292 m 340 432 l 217 432 l 217 556 l 340 556 l 340 432 m 482 292 l 357 292 l 357 415 l 482 415 l 482 292 m 622 150 l 499 150 l 499 275 l 622 275 l 622 150 m 482 150 l 357 150 l 357 275 l 482 275 l 482 150 m 200 432 l 75 432 l 75 556 l 200 556 l 200 432 m 340 292 l 217 292 l 217 415 l 340 415 l 340 292 m 482 10 l 357 10 l 357 133 l 482 133 l 482 10 m 200 292 l 75 292 l 75 415 l 200 415 l 200 292 m 340 10 l 217 10 l 217 133 l 340 133 l 340 10 m 200 10 l 75 10 l 75 133 l 200 133 l 200 10 z "},"t":{"ha":829,"x_min":64,"x_max":751,"o":"m 751 572 l 628 572 l 628 697 l 751 697 l 751 572 m 471 714 l 346 714 l 346 838 l 471 838 l 471 714 m 611 572 l 488 572 l 488 697 l 611 697 l 611 572 m 329 714 l 206 714 l 206 838 l 329 838 l 329 714 m 471 572 l 346 572 l 346 697 l 471 697 l 471 572 m 329 572 l 206 572 l 206 697 l 329 697 l 329 572 m 471 432 l 346 432 l 346 556 l 471 556 l 471 432 m 189 572 l 64 572 l 64 697 l 189 697 l 189 572 m 329 432 l 206 432 l 206 556 l 329 556 l 329 432 m 471 292 l 346 292 l 346 415 l 471 415 l 471 292 m 751 10 l 628 10 l 628 133 l 751 133 l 751 10 m 471 150 l 346 150 l 346 275 l 471 275 l 471 150 m 329 292 l 206 292 l 206 415 l 329 415 l 329 292 m 611 10 l 488 10 l 488 133 l 611 133 l 611 10 m 329 150 l 206 150 l 206 275 l 329 275 l 329 150 m 471 10 l 346 10 l 346 133 l 471 133 l 471 10 z "},"u":{"ha":839,"x_min":64,"x_max":751,"o":"m 751 572 l 628 572 l 628 697 l 751 697 l 751 572 m 611 572 l 488 572 l 488 697 l 611 697 l 611 572 m 751 432 l 628 432 l 628 556 l 751 556 l 751 432 m 611 432 l 488 432 l 488 556 l 611 556 l 611 432 m 751 292 l 628 292 l 628 415 l 751 415 l 751 292 m 329 572 l 206 572 l 206 697 l 329 697 l 329 572 m 751 150 l 628 150 l 628 275 l 751 275 l 751 150 m 611 292 l 488 292 l 488 415 l 611 415 l 611 292 m 189 572 l 64 572 l 64 697 l 189 697 l 189 572 m 329 432 l 206 432 l 206 556 l 329 556 l 329 432 m 611 150 l 488 150 l 488 275 l 611 275 l 611 150 m 751 10 l 628 10 l 628 133 l 751 133 l 751 10 m 189 432 l 64 432 l 64 556 l 189 556 l 189 432 m 329 292 l 206 292 l 206 415 l 329 415 l 329 292 m 611 10 l 488 10 l 488 133 l 611 133 l 611 10 m 329 150 l 206 150 l 206 275 l 329 275 l 329 150 m 471 10 l 346 10 l 346 133 l 471 133 l 471 10 m 189 292 l 64 292 l 64 415 l 189 415 l 189 292 m 189 150 l 64 150 l 64 275 l 189 275 l 189 150 m 329 10 l 206 10 l 206 133 l 329 133 l 329 10 z "},"v":{"ha":839,"x_min":64,"x_max":751,"o":"m 751 572 l 628 572 l 628 697 l 751 697 l 751 572 m 611 572 l 488 572 l 488 697 l 611 697 l 611 572 m 751 432 l 628 432 l 628 556 l 751 556 l 751 432 m 611 432 l 488 432 l 488 556 l 611 556 l 611 432 m 751 292 l 628 292 l 628 415 l 751 415 l 751 292 m 329 572 l 206 572 l 206 697 l 329 697 l 329 572 m 611 292 l 488 292 l 488 415 l 611 415 l 611 292 m 189 572 l 64 572 l 64 697 l 189 697 l 189 572 m 329 432 l 206 432 l 206 556 l 329 556 l 329 432 m 611 150 l 488 150 l 488 275 l 611 275 l 611 150 m 471 150 l 346 150 l 346 275 l 471 275 l 471 150 m 189 432 l 64 432 l 64 556 l 189 556 l 189 432 m 329 292 l 206 292 l 206 415 l 329 415 l 329 292 m 611 10 l 488 10 l 488 133 l 611 133 l 611 10 m 329 150 l 206 150 l 206 275 l 329 275 l 329 150 m 471 10 l 346 10 l 346 133 l 471 133 l 471 10 m 189 292 l 64 292 l 64 415 l 189 415 l 189 292 m 329 10 l 206 10 l 206 133 l 329 133 l 329 10 z "},"w":{"ha":1258,"x_min":64,"x_max":1175,"o":"m 1175 572 l 1050 572 l 1050 697 l 1175 697 l 1175 572 m 1033 572 l 910 572 l 910 697 l 1033 697 l 1033 572 m 1175 432 l 1050 432 l 1050 556 l 1175 556 l 1175 432 m 1033 432 l 910 432 l 910 556 l 1033 556 l 1033 432 m 1175 292 l 1050 292 l 1050 415 l 1175 415 l 1175 292 m 751 572 l 628 572 l 628 697 l 751 697 l 751 572 m 1033 292 l 910 292 l 910 415 l 1033 415 l 1033 292 m 1033 150 l 910 150 l 910 275 l 1033 275 l 1033 150 m 611 572 l 488 572 l 488 697 l 611 697 l 611 572 m 751 432 l 628 432 l 628 556 l 751 556 l 751 432 m 893 150 l 768 150 l 768 275 l 893 275 l 893 150 m 1033 10 l 910 10 l 910 133 l 1033 133 l 1033 10 m 611 432 l 488 432 l 488 556 l 611 556 l 611 432 m 751 292 l 628 292 l 628 415 l 751 415 l 751 292 m 329 572 l 206 572 l 206 697 l 329 697 l 329 572 m 751 150 l 628 150 l 628 275 l 751 275 l 751 150 m 893 10 l 768 10 l 768 133 l 893 133 l 893 10 m 611 292 l 488 292 l 488 415 l 611 415 l 611 292 m 189 572 l 64 572 l 64 697 l 189 697 l 189 572 m 329 432 l 206 432 l 206 556 l 329 556 l 329 432 m 611 150 l 488 150 l 488 275 l 611 275 l 611 150 m 471 150 l 346 150 l 346 275 l 471 275 l 471 150 m 189 432 l 64 432 l 64 556 l 189 556 l 189 432 m 329 292 l 206 292 l 206 415 l 329 415 l 329 292 m 329 150 l 206 150 l 206 275 l 329 275 l 329 150 m 471 10 l 346 10 l 346 133 l 471 133 l 471 10 m 189 292 l 64 292 l 64 415 l 189 415 l 189 292 m 329 10 l 206 10 l 206 133 l 329 133 l 329 10 z "},"x":{"ha":835,"x_min":75,"x_max":763,"o":"m 763 572 l 639 572 l 639 697 l 763 697 l 763 572 m 622 572 l 499 572 l 499 697 l 622 697 l 622 572 m 763 432 l 639 432 l 639 556 l 763 556 l 763 432 m 622 432 l 499 432 l 499 556 l 622 556 l 622 432 m 340 572 l 217 572 l 217 697 l 340 697 l 340 572 m 763 150 l 639 150 l 639 275 l 763 275 l 763 150 m 622 292 l 499 292 l 499 415 l 622 415 l 622 292 m 200 572 l 75 572 l 75 697 l 200 697 l 200 572 m 340 432 l 217 432 l 217 556 l 340 556 l 340 432 m 482 292 l 357 292 l 357 415 l 482 415 l 482 292 m 622 150 l 499 150 l 499 275 l 622 275 l 622 150 m 763 10 l 639 10 l 639 133 l 763 133 l 763 10 m 200 432 l 75 432 l 75 556 l 200 556 l 200 432 m 340 292 l 217 292 l 217 415 l 340 415 l 340 292 m 622 10 l 499 10 l 499 133 l 622 133 l 622 10 m 340 150 l 217 150 l 217 275 l 340 275 l 340 150 m 200 150 l 75 150 l 75 275 l 200 275 l 200 150 m 340 10 l 217 10 l 217 133 l 340 133 l 340 10 m 200 10 l 75 10 l 75 133 l 200 133 l 200 10 z "},"y":{"ha":835,"x_min":75,"x_max":763,"o":"m 763 572 l 639 572 l 639 697 l 763 697 l 763 572 m 622 572 l 499 572 l 499 697 l 622 697 l 622 572 m 763 432 l 639 432 l 639 556 l 763 556 l 763 432 m 622 432 l 499 432 l 499 556 l 622 556 l 622 432 m 763 292 l 639 292 l 639 415 l 763 415 l 763 292 m 340 572 l 217 572 l 217 697 l 340 697 l 340 572 m 622 292 l 499 292 l 499 415 l 622 415 l 622 292 m 200 572 l 75 572 l 75 697 l 200 697 l 200 572 m 340 432 l 217 432 l 217 556 l 340 556 l 340 432 m 622 150 l 499 150 l 499 275 l 622 275 l 622 150 m 482 150 l 357 150 l 357 275 l 482 275 l 482 150 m 200 432 l 75 432 l 75 556 l 200 556 l 200 432 m 340 292 l 217 292 l 217 415 l 340 415 l 340 292 m 622 10 l 499 10 l 499 133 l 622 133 l 622 10 m 340 150 l 217 150 l 217 275 l 340 275 l 340 150 m 482 10 l 357 10 l 357 133 l 482 133 l 482 10 m 200 292 l 75 292 l 75 415 l 200 415 l 200 292 m 482 -132 l 357 -132 l 357 -7 l 482 -7 l 482 -132 m 340 -132 l 217 -132 l 217 -7 l 340 -7 l 340 -132 m 340 -275 l 217 -275 l 217 -150 l 340 -150 l 340 -275 m 200 -275 l 75 -275 l 75 -150 l 200 -150 l 200 -275 z "},"z":{"ha":689,"x_min":64,"x_max":611,"o":"m 611 572 l 488 572 l 488 697 l 611 697 l 611 572 m 471 572 l 346 572 l 346 697 l 471 697 l 471 572 m 611 432 l 488 432 l 488 556 l 611 556 l 611 432 m 329 572 l 206 572 l 206 697 l 329 697 l 329 572 m 471 432 l 346 432 l 346 556 l 471 556 l 471 432 m 189 572 l 64 572 l 64 697 l 189 697 l 189 572 m 471 292 l 346 292 l 346 415 l 471 415 l 471 292 m 329 292 l 206 292 l 206 415 l 329 415 l 329 292 m 611 10 l 488 10 l 488 133 l 611 133 l 611 10 m 329 150 l 206 150 l 206 275 l 329 275 l 329 150 m 471 10 l 346 10 l 346 133 l 471 133 l 471 10 m 189 150 l 64 150 l 64 275 l 189 275 l 189 150 m 329 10 l 206 10 l 206 133 l 329 133 l 329 10 m 189 10 l 64 10 l 64 133 l 189 133 l 189 10 z "},"{":{"ha":694,"x_min":60,"x_max":611,"o":"m 611 994 l 488 994 l 488 1119 l 611 1119 l 611 994 m 471 994 l 346 994 l 346 1119 l 471 1119 l 471 994 m 469 854 l 346 854 l 346 978 l 469 978 l 469 854 m 329 854 l 204 854 l 204 978 l 329 978 l 329 854 m 469 713 l 346 713 l 346 838 l 469 838 l 469 713 m 329 713 l 204 713 l 204 838 l 329 838 l 329 713 m 469 572 l 346 572 l 346 696 l 469 696 l 469 572 m 329 572 l 204 572 l 204 696 l 329 696 l 329 572 m 469 432 l 346 432 l 346 556 l 469 556 l 469 432 m 469 290 l 346 290 l 346 415 l 469 415 l 469 290 m 329 432 l 204 432 l 204 556 l 329 556 l 329 432 m 329 290 l 204 290 l 204 415 l 329 415 l 329 290 m 469 150 l 346 150 l 346 274 l 469 274 l 469 150 m 329 150 l 204 150 l 204 274 l 329 274 l 329 150 m 469 8 l 346 8 l 346 133 l 469 133 l 469 8 m 329 8 l 204 8 l 204 133 l 329 133 l 329 8 m 611 -135 l 488 -135 l 488 -10 l 611 -10 l 611 -135 m 471 -135 l 346 -135 l 346 -10 l 471 -10 l 471 -135 m 185 432 l 60 432 l 60 556 l 185 556 l 185 432 z "},"|":{"ha":400,"x_min":64,"x_max":329,"o":"m 329 996 l 206 996 l 206 1121 l 329 1121 l 329 996 m 189 996 l 64 996 l 64 1121 l 189 1121 l 189 996 m 329 856 l 206 856 l 206 979 l 329 979 l 329 856 m 189 856 l 64 856 l 64 979 l 189 979 l 189 856 m 329 714 l 206 714 l 206 839 l 329 839 l 329 714 m 189 714 l 64 714 l 64 839 l 189 839 l 189 714 m 329 574 l 206 574 l 206 697 l 329 697 l 329 574 m 189 574 l 64 574 l 64 697 l 189 697 l 189 574 m 329 433 l 206 433 l 206 557 l 329 557 l 329 433 m 329 292 l 206 292 l 206 417 l 329 417 l 329 292 m 189 433 l 64 433 l 64 557 l 189 557 l 189 433 m 189 292 l 64 292 l 64 417 l 189 417 l 189 292 m 329 151 l 206 151 l 206 275 l 329 275 l 329 151 m 189 151 l 64 151 l 64 275 l 189 275 l 189 151 m 329 10 l 206 10 l 206 135 l 329 135 l 329 10 m 189 10 l 64 10 l 64 135 l 189 135 l 189 10 m 329 -133 l 206 -133 l 206 -8 l 329 -8 l 329 -133 m 189 -133 l 64 -133 l 64 -8 l 189 -8 l 189 -133 z "},"}":{"ha":679,"x_min":64,"x_max":611,"o":"m 329 994 l 206 994 l 206 1119 l 329 1119 l 329 994 m 471 854 l 346 854 l 346 978 l 471 978 l 471 854 m 189 994 l 64 994 l 64 1119 l 189 1119 l 189 994 m 329 854 l 206 854 l 206 978 l 329 978 l 329 854 m 471 713 l 346 713 l 346 838 l 471 838 l 471 713 m 329 713 l 206 713 l 206 838 l 329 838 l 329 713 m 471 572 l 346 572 l 346 696 l 471 696 l 471 572 m 611 432 l 488 432 l 488 556 l 611 556 l 611 432 m 329 572 l 206 572 l 206 696 l 329 696 l 329 572 m 471 432 l 346 432 l 346 556 l 471 556 l 471 432 m 471 290 l 346 290 l 346 415 l 471 415 l 471 290 m 329 290 l 206 290 l 206 415 l 329 415 l 329 290 m 471 150 l 346 150 l 346 274 l 471 274 l 471 150 m 329 150 l 206 150 l 206 274 l 329 274 l 329 150 m 471 8 l 346 8 l 346 133 l 471 133 l 471 8 m 329 8 l 206 8 l 206 133 l 329 133 l 329 8 m 329 -135 l 206 -135 l 206 -10 l 329 -10 l 329 -135 m 189 -135 l 64 -135 l 64 -10 l 189 -10 l 189 -135 z "},"~":{"ha":974,"x_min":64,"x_max":893,"o":"m 893 714 l 768 714 l 768 838 l 893 838 l 893 714 m 893 572 l 768 572 l 768 697 l 893 697 l 893 572 m 471 714 l 346 714 l 346 838 l 471 838 l 471 714 m 611 572 l 488 572 l 488 697 l 611 697 l 611 572 m 751 432 l 628 432 l 628 556 l 751 556 l 751 432 m 329 714 l 206 714 l 206 838 l 329 838 l 329 714 m 471 572 l 346 572 l 346 697 l 471 697 l 471 572 m 611 432 l 488 432 l 488 556 l 611 556 l 611 432 m 189 572 l 64 572 l 64 697 l 189 697 l 189 572 m 189 432 l 64 432 l 64 556 l 189 556 l 189 432 z "},"Ä":{"ha":822,"x_min":68,"x_max":756,"o":"m 615 854 l 490 854 l 490 979 l 615 979 l 615 854 m 756 714 l 632 714 l 632 838 l 756 838 l 756 714 m 474 854 l 350 854 l 350 979 l 474 979 l 474 854 m 615 714 l 490 714 l 490 838 l 615 838 l 615 714 m 756 572 l 632 572 l 632 697 l 756 697 l 756 572 m 333 854 l 210 854 l 210 979 l 333 979 l 333 854 m 615 572 l 490 572 l 490 697 l 615 697 l 615 572 m 756 432 l 632 432 l 632 556 l 756 556 l 756 432 m 615 432 l 490 432 l 490 556 l 615 556 l 615 432 m 756 292 l 632 292 l 632 415 l 756 415 l 756 292 m 193 714 l 68 714 l 68 838 l 193 838 l 193 714 m 756 150 l 632 150 l 632 275 l 756 275 l 756 150 m 474 290 l 350 290 l 350 414 l 474 414 l 474 290 m 615 292 l 490 292 l 490 415 l 615 415 l 615 292 m 193 572 l 68 572 l 68 697 l 193 697 l 193 572 m 615 150 l 490 150 l 490 275 l 615 275 l 615 150 m 756 10 l 632 10 l 632 133 l 756 133 l 756 10 m 333 290 l 210 290 l 210 414 l 333 414 l 333 290 m 193 432 l 68 432 l 68 556 l 193 556 l 193 432 m 615 10 l 490 10 l 490 133 l 615 133 l 615 10 m 193 292 l 68 292 l 68 415 l 193 415 l 193 292 m 193 150 l 68 150 l 68 275 l 193 275 l 193 150 m 193 10 l 68 10 l 68 133 l 193 133 l 193 10 m 474 715 l 350 715 l 350 839 l 474 839 l 474 715 m 333 715 l 210 715 l 210 839 l 333 839 l 333 715 m 336 997 l 213 997 l 213 1122 l 336 1122 l 336 997 m 615 999 l 492 999 l 492 1124 l 615 1124 l 615 999 z "},"Å":{"ha":846,"x_min":76,"x_max":764,"o":"m 624 854 l 499 854 l 499 979 l 624 979 l 624 854 m 764 714 l 640 714 l 640 838 l 764 838 l 764 714 m 482 854 l 358 854 l 358 979 l 482 979 l 482 854 m 624 714 l 499 714 l 499 838 l 624 838 l 624 714 m 764 572 l 640 572 l 640 697 l 764 697 l 764 572 m 342 854 l 218 854 l 218 979 l 342 979 l 342 854 m 624 572 l 499 572 l 499 697 l 624 697 l 624 572 m 764 432 l 640 432 l 640 556 l 764 556 l 764 432 m 624 432 l 499 432 l 499 556 l 624 556 l 624 432 m 764 292 l 640 292 l 640 415 l 764 415 l 764 292 m 201 714 l 76 714 l 76 838 l 201 838 l 201 714 m 764 150 l 640 150 l 640 275 l 764 275 l 764 150 m 482 290 l 358 290 l 358 414 l 482 414 l 482 290 m 624 292 l 499 292 l 499 415 l 624 415 l 624 292 m 201 572 l 76 572 l 76 697 l 201 697 l 201 572 m 624 150 l 499 150 l 499 275 l 624 275 l 624 150 m 764 10 l 640 10 l 640 133 l 764 133 l 764 10 m 342 290 l 218 290 l 218 414 l 342 414 l 342 290 m 201 432 l 76 432 l 76 556 l 201 556 l 201 432 m 624 10 l 499 10 l 499 133 l 624 133 l 624 10 m 201 292 l 76 292 l 76 415 l 201 415 l 201 292 m 201 150 l 76 150 l 76 275 l 201 275 l 201 150 m 201 10 l 76 10 l 76 133 l 201 133 l 201 10 m 482 715 l 358 715 l 358 839 l 482 839 l 482 715 m 342 715 l 218 715 l 218 839 l 342 839 l 342 715 m 482 1129 l 358 1129 l 358 1254 l 482 1254 l 482 1129 m 624 989 l 499 989 l 499 1113 l 624 1113 l 624 989 m 342 989 l 217 989 l 217 1113 l 342 1113 l 342 989 z "},"Ç":{"ha":983,"x_min":76,"x_max":906,"o":"m 906 854 l 781 854 l 781 979 l 906 979 l 906 854 m 764 854 l 640 854 l 640 979 l 764 979 l 764 854 m 624 854 l 500 854 l 500 979 l 624 979 l 624 854 m 483 854 l 358 854 l 358 979 l 483 979 l 483 854 m 483 714 l 358 714 l 358 838 l 483 838 l 483 714 m 342 714 l 218 714 l 218 838 l 342 838 l 342 714 m 342 572 l 218 572 l 218 697 l 342 697 l 342 572 m 201 572 l 76 572 l 76 697 l 201 697 l 201 572 m 342 432 l 218 432 l 218 556 l 342 556 l 342 432 m 906 4 l 781 4 l 781 129 l 906 129 l 906 4 m 483 150 l 358 150 l 358 275 l 483 275 l 483 150 m 201 432 l 76 432 l 76 556 l 201 556 l 201 432 m 342 292 l 218 292 l 218 415 l 342 415 l 342 292 m 764 4 l 640 4 l 640 129 l 764 129 l 764 4 m 342 150 l 218 150 l 218 275 l 342 275 l 342 150 m 483 10 l 358 10 l 358 133 l 483 133 l 483 10 m 201 292 l 76 292 l 76 415 l 201 415 l 201 292 m 624 4 l 500 4 l 500 129 l 624 129 l 624 4 m 625 -132 l 501 -132 l 501 -7 l 625 -7 l 625 -132 m 485 -272 l 360 -272 l 360 -147 l 485 -147 l 485 -272 z "},"É":{"ha":846,"x_min":79,"x_max":767,"o":"m 767 854 l 642 854 l 642 979 l 767 979 l 767 854 m 625 854 l 501 854 l 501 979 l 625 979 l 625 854 m 485 854 l 361 854 l 361 979 l 485 979 l 485 854 m 344 854 l 219 854 l 219 979 l 344 979 l 344 854 m 625 572 l 501 572 l 501 697 l 625 697 l 625 572 m 203 854 l 79 854 l 79 979 l 203 979 l 203 854 m 344 714 l 219 714 l 219 838 l 344 838 l 344 714 m 485 572 l 361 572 l 361 697 l 485 697 l 485 572 m 203 714 l 79 714 l 79 838 l 203 838 l 203 714 m 344 572 l 219 572 l 219 697 l 344 697 l 344 572 m 203 572 l 79 572 l 79 697 l 203 697 l 203 572 m 344 432 l 219 432 l 219 556 l 344 556 l 344 432 m 767 10 l 642 10 l 642 133 l 767 133 l 767 10 m 203 432 l 79 432 l 79 556 l 203 556 l 203 432 m 344 292 l 219 292 l 219 415 l 344 415 l 344 292 m 625 10 l 501 10 l 501 133 l 625 133 l 625 10 m 344 150 l 219 150 l 219 275 l 344 275 l 344 150 m 203 292 l 79 292 l 79 415 l 203 415 l 203 292 m 485 10 l 361 10 l 361 133 l 485 133 l 485 10 m 203 150 l 79 150 l 79 275 l 203 275 l 203 150 m 344 10 l 219 10 l 219 133 l 344 133 l 344 10 m 203 10 l 79 10 l 79 133 l 203 133 l 203 10 m 343 993 l 219 993 l 219 1118 l 343 1118 l 343 993 m 483 1139 l 360 1139 l 360 1264 l 483 1264 l 483 1139 m 624 1139 l 500 1139 l 500 1264 l 624 1264 l 624 1139 z "},"Ñ":{"ha":860,"x_min":90,"x_max":778,"o":"m 778 854 l 654 854 l 654 979 l 778 979 l 778 854 m 778 714 l 654 714 l 654 838 l 778 838 l 778 714 m 778 572 l 654 572 l 654 697 l 778 697 l 778 572 m 778 432 l 654 432 l 654 556 l 778 556 l 778 432 m 215 854 l 90 854 l 90 979 l 215 979 l 215 854 m 356 714 l 232 714 l 232 838 l 356 838 l 356 714 m 497 572 l 372 572 l 372 697 l 497 697 l 497 572 m 638 432 l 514 432 l 514 556 l 638 556 l 638 432 m 778 292 l 654 292 l 654 415 l 778 415 l 778 292 m 215 714 l 90 714 l 90 838 l 215 838 l 215 714 m 356 572 l 232 572 l 232 697 l 356 697 l 356 572 m 497 432 l 372 432 l 372 556 l 497 556 l 497 432 m 778 150 l 654 150 l 654 275 l 778 275 l 778 150 m 638 292 l 514 292 l 514 415 l 638 415 l 638 292 m 215 572 l 90 572 l 90 697 l 215 697 l 215 572 m 356 432 l 232 432 l 232 556 l 356 556 l 356 432 m 497 292 l 372 292 l 372 415 l 497 415 l 497 292 m 638 150 l 514 150 l 514 275 l 638 275 l 638 150 m 778 10 l 654 10 l 654 133 l 778 133 l 778 10 m 215 432 l 90 432 l 90 556 l 215 556 l 215 432 m 215 292 l 90 292 l 90 415 l 215 415 l 215 292 m 215 150 l 90 150 l 90 275 l 215 275 l 215 150 m 215 10 l 90 10 l 90 133 l 215 133 l 215 10 z "},"Ö":{"ha":1264,"x_min":76,"x_max":1188,"o":"m 906 854 l 781 854 l 781 979 l 906 979 l 906 854 m 1046 714 l 922 714 l 922 838 l 1046 838 l 1046 714 m 1188 572 l 1063 572 l 1063 697 l 1188 697 l 1188 572 m 764 854 l 640 854 l 640 979 l 764 979 l 764 854 m 906 714 l 781 714 l 781 838 l 906 838 l 906 714 m 1046 572 l 922 572 l 922 697 l 1046 697 l 1046 572 m 1188 432 l 1063 432 l 1063 556 l 1188 556 l 1188 432 m 624 854 l 500 854 l 500 979 l 624 979 l 624 854 m 1046 432 l 922 432 l 922 556 l 1046 556 l 1046 432 m 1188 292 l 1063 292 l 1063 415 l 1188 415 l 1188 292 m 483 854 l 358 854 l 358 979 l 483 979 l 483 854 m 1046 292 l 922 292 l 922 415 l 1046 415 l 1046 292 m 483 714 l 358 714 l 358 838 l 483 838 l 483 714 m 1046 150 l 922 150 l 922 275 l 1046 275 l 1046 150 m 342 714 l 218 714 l 218 838 l 342 838 l 342 714 m 906 150 l 781 150 l 781 275 l 906 275 l 906 150 m 342 572 l 218 572 l 218 697 l 342 697 l 342 572 m 906 10 l 781 10 l 781 133 l 906 133 l 906 10 m 201 572 l 76 572 l 76 697 l 201 697 l 201 572 m 342 432 l 218 432 l 218 556 l 342 556 l 342 432 m 764 10 l 640 10 l 640 133 l 764 133 l 764 10 m 483 150 l 358 150 l 358 275 l 483 275 l 483 150 m 201 432 l 76 432 l 76 556 l 201 556 l 201 432 m 342 292 l 218 292 l 218 415 l 342 415 l 342 292 m 624 10 l 500 10 l 500 133 l 624 133 l 624 10 m 342 150 l 218 150 l 218 275 l 342 275 l 342 150 m 483 10 l 358 10 l 358 133 l 483 133 l 483 10 m 201 292 l 76 292 l 76 415 l 201 415 l 201 292 m 481 997 l 357 997 l 357 1122 l 481 1122 l 481 997 m 904 999 l 781 999 l 781 1124 l 904 1124 l 904 999 z "},"Ü":{"ha":985,"x_min":76,"x_max":906,"o":"m 906 854 l 781 854 l 781 979 l 906 979 l 906 854 m 906 714 l 781 714 l 781 838 l 906 838 l 906 714 m 906 572 l 781 572 l 781 697 l 906 697 l 906 572 m 906 432 l 781 432 l 781 556 l 906 556 l 906 432 m 342 854 l 218 854 l 218 979 l 342 979 l 342 854 m 906 292 l 781 292 l 781 415 l 906 415 l 906 292 m 201 854 l 76 854 l 76 979 l 201 979 l 201 854 m 342 714 l 218 714 l 218 838 l 342 838 l 342 714 m 906 150 l 781 150 l 781 275 l 906 275 l 906 150 m 201 714 l 76 714 l 76 838 l 201 838 l 201 714 m 342 572 l 218 572 l 218 697 l 342 697 l 342 572 m 764 150 l 640 150 l 640 275 l 764 275 l 764 150 m 201 572 l 76 572 l 76 697 l 201 697 l 201 572 m 342 432 l 218 432 l 218 556 l 342 556 l 342 432 m 764 10 l 640 10 l 640 133 l 764 133 l 764 10 m 483 150 l 358 150 l 358 275 l 483 275 l 483 150 m 201 432 l 76 432 l 76 556 l 201 556 l 201 432 m 342 292 l 218 292 l 218 415 l 342 415 l 342 292 m 624 10 l 500 10 l 500 133 l 624 133 l 624 10 m 342 150 l 218 150 l 218 275 l 342 275 l 342 150 m 483 10 l 358 10 l 358 133 l 483 133 l 483 10 m 201 292 l 76 292 l 76 415 l 201 415 l 201 292 m 201 150 l 76 150 l 76 275 l 201 275 l 201 150 m 342 10 l 218 10 l 218 133 l 342 133 l 342 10 m 336 997 l 213 997 l 213 1122 l 336 1122 l 336 997 m 760 999 l 636 999 l 636 1124 l 760 1124 l 760 999 z "},"á":{"ha":819,"x_min":64,"x_max":751,"o":"m 611 572 l 488 572 l 488 697 l 611 697 l 611 572 m 751 432 l 628 432 l 628 556 l 751 556 l 751 432 m 471 572 l 346 572 l 346 697 l 471 697 l 471 572 m 611 432 l 488 432 l 488 556 l 611 556 l 611 432 m 751 292 l 628 292 l 628 415 l 751 415 l 751 292 m 329 572 l 206 572 l 206 697 l 329 697 l 329 572 m 751 150 l 628 150 l 628 275 l 751 275 l 751 150 m 611 292 l 488 292 l 488 415 l 611 415 l 611 292 m 471 292 l 346 292 l 346 415 l 471 415 l 471 292 m 611 150 l 488 150 l 488 275 l 611 275 l 611 150 m 751 10 l 628 10 l 628 133 l 751 133 l 751 10 m 329 292 l 206 292 l 206 415 l 329 415 l 329 292 m 611 10 l 488 10 l 488 133 l 611 133 l 611 10 m 329 150 l 206 150 l 206 275 l 329 275 l 329 150 m 471 10 l 346 10 l 346 133 l 471 133 l 471 10 m 189 150 l 64 150 l 64 275 l 189 275 l 189 150 m 329 10 l 206 10 l 206 133 l 329 133 l 329 10 m 329 853 l 206 853 l 206 978 l 329 978 l 329 853 m 469 999 l 346 999 l 346 1124 l 469 1124 l 469 999 m 610 999 l 486 999 l 486 1124 l 610 1124 l 610 999 z "},"à":{"ha":832,"x_min":64,"x_max":751,"o":"m 611 572 l 488 572 l 488 697 l 611 697 l 611 572 m 751 432 l 628 432 l 628 556 l 751 556 l 751 432 m 471 572 l 346 572 l 346 697 l 471 697 l 471 572 m 611 432 l 488 432 l 488 556 l 611 556 l 611 432 m 751 292 l 628 292 l 628 415 l 751 415 l 751 292 m 329 572 l 206 572 l 206 697 l 329 697 l 329 572 m 751 150 l 628 150 l 628 275 l 751 275 l 751 150 m 611 292 l 488 292 l 488 415 l 611 415 l 611 292 m 471 292 l 346 292 l 346 415 l 471 415 l 471 292 m 611 150 l 488 150 l 488 275 l 611 275 l 611 150 m 751 10 l 628 10 l 628 133 l 751 133 l 751 10 m 329 292 l 206 292 l 206 415 l 329 415 l 329 292 m 611 10 l 488 10 l 488 133 l 611 133 l 611 10 m 329 150 l 206 150 l 206 275 l 329 275 l 329 150 m 471 10 l 346 10 l 346 133 l 471 133 l 471 10 m 189 150 l 64 150 l 64 275 l 189 275 l 189 150 m 329 10 l 206 10 l 206 133 l 329 133 l 329 10 m 465 994 l 342 994 l 342 1119 l 465 1119 l 465 994 m 607 854 l 482 854 l 482 978 l 607 978 l 607 854 m 325 994 l 200 994 l 200 1119 l 325 1119 l 325 994 z "},"â":{"ha":828,"x_min":64,"x_max":751,"o":"m 611 572 l 488 572 l 488 697 l 611 697 l 611 572 m 751 432 l 628 432 l 628 556 l 751 556 l 751 432 m 471 572 l 346 572 l 346 697 l 471 697 l 471 572 m 611 432 l 488 432 l 488 556 l 611 556 l 611 432 m 751 292 l 628 292 l 628 415 l 751 415 l 751 292 m 329 572 l 206 572 l 206 697 l 329 697 l 329 572 m 751 150 l 628 150 l 628 275 l 751 275 l 751 150 m 611 292 l 488 292 l 488 415 l 611 415 l 611 292 m 471 292 l 346 292 l 346 415 l 471 415 l 471 292 m 611 150 l 488 150 l 488 275 l 611 275 l 611 150 m 751 10 l 628 10 l 628 133 l 751 133 l 751 10 m 329 292 l 206 292 l 206 415 l 329 415 l 329 292 m 611 10 l 488 10 l 488 133 l 611 133 l 611 10 m 329 150 l 206 150 l 206 275 l 329 275 l 329 150 m 471 10 l 346 10 l 346 133 l 471 133 l 471 10 m 189 150 l 64 150 l 64 275 l 189 275 l 189 150 m 329 10 l 206 10 l 206 133 l 329 133 l 329 10 m 471 992 l 347 992 l 347 1117 l 471 1117 l 471 992 m 613 851 l 488 851 l 488 975 l 613 975 l 613 851 m 331 851 l 206 851 l 206 975 l 331 975 l 331 851 z "},"ä":{"ha":828,"x_min":64,"x_max":751,"o":"m 611 572 l 488 572 l 488 697 l 611 697 l 611 572 m 751 432 l 628 432 l 628 556 l 751 556 l 751 432 m 471 572 l 346 572 l 346 697 l 471 697 l 471 572 m 611 432 l 488 432 l 488 556 l 611 556 l 611 432 m 751 292 l 628 292 l 628 415 l 751 415 l 751 292 m 329 572 l 206 572 l 206 697 l 329 697 l 329 572 m 751 150 l 628 150 l 628 275 l 751 275 l 751 150 m 611 292 l 488 292 l 488 415 l 611 415 l 611 292 m 471 292 l 346 292 l 346 415 l 471 415 l 471 292 m 611 150 l 488 150 l 488 275 l 611 275 l 611 150 m 751 10 l 628 10 l 628 133 l 751 133 l 751 10 m 329 292 l 206 292 l 206 415 l 329 415 l 329 292 m 611 10 l 488 10 l 488 133 l 611 133 l 611 10 m 329 150 l 206 150 l 206 275 l 329 275 l 329 150 m 471 10 l 346 10 l 346 133 l 471 133 l 471 10 m 189 150 l 64 150 l 64 275 l 189 275 l 189 150 m 329 10 l 206 10 l 206 133 l 329 133 l 329 10 m 329 997 l 206 997 l 206 1122 l 329 1122 l 329 997 m 610 999 l 486 999 l 486 1124 l 610 1124 l 610 999 z "},"ã":{"ha":960,"x_min":64,"x_max":893,"o":"m 611 572 l 488 572 l 488 697 l 611 697 l 611 572 m 751 432 l 628 432 l 628 556 l 751 556 l 751 432 m 471 572 l 346 572 l 346 697 l 471 697 l 471 572 m 611 432 l 488 432 l 488 556 l 611 556 l 611 432 m 751 292 l 628 292 l 628 415 l 751 415 l 751 292 m 329 572 l 206 572 l 206 697 l 329 697 l 329 572 m 751 150 l 628 150 l 628 275 l 751 275 l 751 150 m 611 292 l 488 292 l 488 415 l 611 415 l 611 292 m 471 292 l 346 292 l 346 415 l 471 415 l 471 292 m 611 150 l 488 150 l 488 275 l 611 275 l 611 150 m 751 10 l 628 10 l 628 133 l 751 133 l 751 10 m 329 292 l 206 292 l 206 415 l 329 415 l 329 292 m 611 10 l 488 10 l 488 133 l 611 133 l 611 10 m 329 150 l 206 150 l 206 275 l 329 275 l 329 150 m 471 10 l 346 10 l 346 133 l 471 133 l 471 10 m 189 150 l 64 150 l 64 275 l 189 275 l 189 150 m 329 10 l 206 10 l 206 133 l 329 133 l 329 10 m 893 1138 l 768 1138 l 768 1261 l 893 1261 l 893 1138 m 893 996 l 768 996 l 768 1121 l 893 1121 l 893 996 m 471 1138 l 346 1138 l 346 1261 l 471 1261 l 471 1138 m 611 996 l 488 996 l 488 1121 l 611 1121 l 611 996 m 751 856 l 628 856 l 628 979 l 751 979 l 751 856 m 329 1138 l 206 1138 l 206 1261 l 329 1261 l 329 1138 m 471 996 l 346 996 l 346 1121 l 471 1121 l 471 996 m 611 856 l 488 856 l 488 979 l 611 979 l 611 856 m 189 996 l 64 996 l 64 1121 l 189 1121 l 189 996 m 189 856 l 64 856 l 64 979 l 189 979 l 189 856 m 892 10 l 768 10 l 768 133 l 892 133 l 892 10 z "},"å":{"ha":828,"x_min":64,"x_max":751,"o":"m 611 572 l 488 572 l 488 697 l 611 697 l 611 572 m 751 432 l 628 432 l 628 556 l 751 556 l 751 432 m 471 572 l 346 572 l 346 697 l 471 697 l 471 572 m 611 432 l 488 432 l 488 556 l 611 556 l 611 432 m 751 292 l 628 292 l 628 415 l 751 415 l 751 292 m 329 572 l 206 572 l 206 697 l 329 697 l 329 572 m 751 150 l 628 150 l 628 275 l 751 275 l 751 150 m 611 292 l 488 292 l 488 415 l 611 415 l 611 292 m 471 292 l 346 292 l 346 415 l 471 415 l 471 292 m 611 150 l 488 150 l 488 275 l 611 275 l 611 150 m 751 10 l 628 10 l 628 133 l 751 133 l 751 10 m 329 292 l 206 292 l 206 415 l 329 415 l 329 292 m 611 10 l 488 10 l 488 133 l 611 133 l 611 10 m 329 150 l 206 150 l 206 275 l 329 275 l 329 150 m 471 10 l 346 10 l 346 133 l 471 133 l 471 10 m 189 150 l 64 150 l 64 275 l 189 275 l 189 150 m 329 10 l 206 10 l 206 133 l 329 133 l 329 10 m 471 1135 l 346 1135 l 346 1260 l 471 1260 l 471 1135 m 611 994 l 488 994 l 488 1118 l 611 1118 l 611 994 m 471 854 l 346 854 l 346 978 l 471 978 l 471 854 m 329 994 l 206 994 l 206 1118 l 329 1118 l 329 994 z "},"ç":{"ha":713,"x_min":64,"x_max":611,"o":"m 471 -132 l 347 -132 l 347 -7 l 471 -7 l 471 -132 m 331 -272 l 206 -272 l 206 -147 l 331 -147 l 331 -272 m 611 572 l 488 572 l 488 697 l 611 697 l 611 572 m 471 572 l 346 572 l 346 697 l 471 697 l 471 572 m 329 572 l 206 572 l 206 697 l 329 697 l 329 572 m 329 432 l 206 432 l 206 556 l 329 556 l 329 432 m 189 432 l 64 432 l 64 556 l 189 556 l 189 432 m 329 292 l 206 292 l 206 415 l 329 415 l 329 292 m 611 10 l 488 10 l 488 133 l 611 133 l 611 10 m 329 150 l 206 150 l 206 275 l 329 275 l 329 150 m 471 10 l 346 10 l 346 133 l 471 133 l 471 10 m 189 292 l 64 292 l 64 415 l 189 415 l 189 292 m 189 150 l 64 150 l 64 275 l 189 275 l 189 150 m 329 10 l 206 10 l 206 133 l 329 133 l 329 10 z "},"é":{"ha":838,"x_min":75,"x_max":763,"o":"m 622 572 l 499 572 l 499 697 l 622 697 l 622 572 m 763 432 l 639 432 l 639 556 l 763 556 l 763 432 m 482 572 l 357 572 l 357 697 l 482 697 l 482 572 m 622 432 l 499 432 l 499 556 l 622 556 l 622 432 m 763 292 l 639 292 l 639 415 l 763 415 l 763 292 m 340 572 l 217 572 l 217 697 l 340 697 l 340 572 m 622 292 l 499 292 l 499 415 l 622 415 l 622 292 m 340 432 l 217 432 l 217 556 l 340 556 l 340 432 m 482 292 l 357 292 l 357 415 l 482 415 l 482 292 m 763 10 l 639 10 l 639 133 l 763 133 l 763 10 m 200 432 l 75 432 l 75 556 l 200 556 l 200 432 m 340 292 l 217 292 l 217 415 l 340 415 l 340 292 m 622 10 l 499 10 l 499 133 l 622 133 l 622 10 m 340 150 l 217 150 l 217 275 l 340 275 l 340 150 m 482 10 l 357 10 l 357 133 l 482 133 l 482 10 m 200 292 l 75 292 l 75 415 l 200 415 l 200 292 m 200 150 l 75 150 l 75 275 l 200 275 l 200 150 m 340 10 l 217 10 l 217 133 l 340 133 l 340 10 m 340 853 l 217 853 l 217 978 l 340 978 l 340 853 m 481 999 l 357 999 l 357 1124 l 481 1124 l 481 999 m 621 999 l 497 999 l 497 1124 l 621 1124 l 621 999 z "},"è":{"ha":838,"x_min":75,"x_max":763,"o":"m 622 572 l 499 572 l 499 697 l 622 697 l 622 572 m 763 432 l 639 432 l 639 556 l 763 556 l 763 432 m 482 572 l 357 572 l 357 697 l 482 697 l 482 572 m 622 432 l 499 432 l 499 556 l 622 556 l 622 432 m 763 292 l 639 292 l 639 415 l 763 415 l 763 292 m 340 572 l 217 572 l 217 697 l 340 697 l 340 572 m 622 292 l 499 292 l 499 415 l 622 415 l 622 292 m 340 432 l 217 432 l 217 556 l 340 556 l 340 432 m 482 292 l 357 292 l 357 415 l 482 415 l 482 292 m 763 10 l 639 10 l 639 133 l 763 133 l 763 10 m 200 432 l 75 432 l 75 556 l 200 556 l 200 432 m 340 292 l 217 292 l 217 415 l 340 415 l 340 292 m 622 10 l 499 10 l 499 133 l 622 133 l 622 10 m 340 150 l 217 150 l 217 275 l 340 275 l 340 150 m 482 10 l 357 10 l 357 133 l 482 133 l 482 10 m 200 292 l 75 292 l 75 415 l 200 415 l 200 292 m 200 150 l 75 150 l 75 275 l 200 275 l 200 150 m 340 10 l 217 10 l 217 133 l 340 133 l 340 10 m 474 994 l 350 994 l 350 1119 l 474 1119 l 474 994 m 615 854 l 490 854 l 490 978 l 615 978 l 615 854 m 333 994 l 208 994 l 208 1119 l 333 1119 l 333 994 z "},"ê":{"ha":838,"x_min":75,"x_max":763,"o":"m 622 572 l 499 572 l 499 697 l 622 697 l 622 572 m 763 432 l 639 432 l 639 556 l 763 556 l 763 432 m 482 572 l 357 572 l 357 697 l 482 697 l 482 572 m 622 432 l 499 432 l 499 556 l 622 556 l 622 432 m 763 292 l 639 292 l 639 415 l 763 415 l 763 292 m 340 572 l 217 572 l 217 697 l 340 697 l 340 572 m 622 292 l 499 292 l 499 415 l 622 415 l 622 292 m 340 432 l 217 432 l 217 556 l 340 556 l 340 432 m 482 292 l 357 292 l 357 415 l 482 415 l 482 292 m 763 10 l 639 10 l 639 133 l 763 133 l 763 10 m 200 432 l 75 432 l 75 556 l 200 556 l 200 432 m 340 292 l 217 292 l 217 415 l 340 415 l 340 292 m 622 10 l 499 10 l 499 133 l 622 133 l 622 10 m 340 150 l 217 150 l 217 275 l 340 275 l 340 150 m 482 10 l 357 10 l 357 133 l 482 133 l 482 10 m 200 292 l 75 292 l 75 415 l 200 415 l 200 292 m 200 150 l 75 150 l 75 275 l 200 275 l 200 150 m 340 10 l 217 10 l 217 133 l 340 133 l 340 10 m 481 992 l 357 992 l 357 1117 l 481 1117 l 481 992 m 622 851 l 497 851 l 497 975 l 622 975 l 622 851 m 340 851 l 215 851 l 215 975 l 340 975 l 340 851 z "},"ë":{"ha":838,"x_min":75,"x_max":763,"o":"m 622 572 l 499 572 l 499 697 l 622 697 l 622 572 m 763 432 l 639 432 l 639 556 l 763 556 l 763 432 m 482 572 l 357 572 l 357 697 l 482 697 l 482 572 m 622 432 l 499 432 l 499 556 l 622 556 l 622 432 m 763 292 l 639 292 l 639 415 l 763 415 l 763 292 m 340 572 l 217 572 l 217 697 l 340 697 l 340 572 m 622 292 l 499 292 l 499 415 l 622 415 l 622 292 m 340 432 l 217 432 l 217 556 l 340 556 l 340 432 m 482 292 l 357 292 l 357 415 l 482 415 l 482 292 m 763 10 l 639 10 l 639 133 l 763 133 l 763 10 m 200 432 l 75 432 l 75 556 l 200 556 l 200 432 m 340 292 l 217 292 l 217 415 l 340 415 l 340 292 m 622 10 l 499 10 l 499 133 l 622 133 l 622 10 m 340 150 l 217 150 l 217 275 l 340 275 l 340 150 m 482 10 l 357 10 l 357 133 l 482 133 l 482 10 m 200 292 l 75 292 l 75 415 l 200 415 l 200 292 m 200 150 l 75 150 l 75 275 l 200 275 l 200 150 m 340 10 l 217 10 l 217 133 l 340 133 l 340 10 m 338 997 l 214 997 l 214 1122 l 338 1122 l 338 997 m 618 999 l 494 999 l 494 1124 l 618 1124 l 618 999 z "},"í":{"ha":397,"x_min":58,"x_max":329,"o":"m 324 994 l 200 994 l 200 1119 l 324 1119 l 324 994 m 183 854 l 58 854 l 58 978 l 183 978 l 183 854 m 329 572 l 206 572 l 206 697 l 329 697 l 329 572 m 189 572 l 64 572 l 64 697 l 189 697 l 189 572 m 329 432 l 206 432 l 206 556 l 329 556 l 329 432 m 189 432 l 64 432 l 64 556 l 189 556 l 189 432 m 329 292 l 206 292 l 206 415 l 329 415 l 329 292 m 329 150 l 206 150 l 206 275 l 329 275 l 329 150 m 189 292 l 64 292 l 64 415 l 189 415 l 189 292 m 189 150 l 64 150 l 64 275 l 189 275 l 189 150 m 329 10 l 206 10 l 206 133 l 329 133 l 329 10 m 189 10 l 64 10 l 64 133 l 189 133 l 189 10 z "},"ì":{"ha":329,"x_min":63,"x_max":329,"o":"m 186 997 l 63 997 l 63 1122 l 186 1122 l 186 997 m 328 857 l 203 857 l 203 981 l 328 981 l 328 857 m 329 572 l 206 572 l 206 697 l 329 697 l 329 572 m 189 572 l 64 572 l 64 697 l 189 697 l 189 572 m 329 432 l 206 432 l 206 556 l 329 556 l 329 432 m 189 432 l 64 432 l 64 556 l 189 556 l 189 432 m 329 292 l 206 292 l 206 415 l 329 415 l 329 292 m 329 150 l 206 150 l 206 275 l 329 275 l 329 150 m 189 292 l 64 292 l 64 415 l 189 415 l 189 292 m 189 150 l 64 150 l 64 275 l 189 275 l 189 150 m 329 10 l 206 10 l 206 133 l 329 133 l 329 10 m 189 10 l 64 10 l 64 133 l 189 133 l 189 10 z "},"î":{"ha":554,"x_min":64,"x_max":485,"o":"m 343 1129 l 219 1129 l 219 1254 l 343 1254 l 343 1129 m 485 989 l 360 989 l 360 1113 l 485 1113 l 485 989 m 203 989 l 78 989 l 78 1113 l 203 1113 l 203 989 m 329 572 l 206 572 l 206 697 l 329 697 l 329 572 m 189 572 l 64 572 l 64 697 l 189 697 l 189 572 m 329 432 l 206 432 l 206 556 l 329 556 l 329 432 m 189 432 l 64 432 l 64 556 l 189 556 l 189 432 m 329 292 l 206 292 l 206 415 l 329 415 l 329 292 m 329 150 l 206 150 l 206 275 l 329 275 l 329 150 m 189 292 l 64 292 l 64 415 l 189 415 l 189 292 m 189 150 l 64 150 l 64 275 l 189 275 l 189 150 m 329 10 l 206 10 l 206 133 l 329 133 l 329 10 m 189 10 l 64 10 l 64 133 l 189 133 l 189 10 z "},"ï":{"ha":554,"x_min":-67,"x_max":453,"o":"m 453 989 l 328 989 l 328 1113 l 453 1113 l 453 989 m 58 989 l -67 989 l -67 1113 l 58 1113 l 58 989 m 329 572 l 206 572 l 206 697 l 329 697 l 329 572 m 189 572 l 64 572 l 64 697 l 189 697 l 189 572 m 329 432 l 206 432 l 206 556 l 329 556 l 329 432 m 189 432 l 64 432 l 64 556 l 189 556 l 189 432 m 329 292 l 206 292 l 206 415 l 329 415 l 329 292 m 329 150 l 206 150 l 206 275 l 329 275 l 329 150 m 189 292 l 64 292 l 64 415 l 189 415 l 189 292 m 189 150 l 64 150 l 64 275 l 189 275 l 189 150 m 329 10 l 206 10 l 206 133 l 329 133 l 329 10 m 189 10 l 64 10 l 64 133 l 189 133 l 189 10 z "},"ñ":{"ha":975,"x_min":64,"x_max":893,"o":"m 611 572 l 488 572 l 488 697 l 611 697 l 611 572 m 751 432 l 628 432 l 628 556 l 751 556 l 751 432 m 471 572 l 346 572 l 346 697 l 471 697 l 471 572 m 611 432 l 488 432 l 488 556 l 611 556 l 611 432 m 751 292 l 628 292 l 628 415 l 751 415 l 751 292 m 329 572 l 206 572 l 206 697 l 329 697 l 329 572 m 751 150 l 628 150 l 628 275 l 751 275 l 751 150 m 611 292 l 488 292 l 488 415 l 611 415 l 611 292 m 189 572 l 64 572 l 64 697 l 189 697 l 189 572 m 329 432 l 206 432 l 206 556 l 329 556 l 329 432 m 611 150 l 488 150 l 488 275 l 611 275 l 611 150 m 751 10 l 628 10 l 628 133 l 751 133 l 751 10 m 189 432 l 64 432 l 64 556 l 189 556 l 189 432 m 329 292 l 206 292 l 206 415 l 329 415 l 329 292 m 611 10 l 488 10 l 488 133 l 611 133 l 611 10 m 329 150 l 206 150 l 206 275 l 329 275 l 329 150 m 189 292 l 64 292 l 64 415 l 189 415 l 189 292 m 189 150 l 64 150 l 64 275 l 189 275 l 189 150 m 329 10 l 206 10 l 206 133 l 329 133 l 329 10 m 189 10 l 64 10 l 64 133 l 189 133 l 189 10 m 893 1138 l 768 1138 l 768 1261 l 893 1261 l 893 1138 m 893 996 l 768 996 l 768 1121 l 893 1121 l 893 996 m 471 1138 l 346 1138 l 346 1261 l 471 1261 l 471 1138 m 611 996 l 488 996 l 488 1121 l 611 1121 l 611 996 m 751 856 l 628 856 l 628 979 l 751 979 l 751 856 m 329 1138 l 206 1138 l 206 1261 l 329 1261 l 329 1138 m 471 996 l 346 996 l 346 1121 l 471 1121 l 471 996 m 611 856 l 488 856 l 488 979 l 611 979 l 611 856 m 189 996 l 64 996 l 64 1121 l 189 1121 l 189 996 m 189 856 l 64 856 l 64 979 l 189 979 l 189 856 m 890 10 l 767 10 l 767 133 l 890 133 l 890 10 z "},"ó":{"ha":811,"x_min":64,"x_max":751,"o":"m 611 572 l 488 572 l 488 697 l 611 697 l 611 572 m 751 432 l 628 432 l 628 556 l 751 556 l 751 432 m 471 572 l 346 572 l 346 697 l 471 697 l 471 572 m 611 432 l 488 432 l 488 556 l 611 556 l 611 432 m 751 292 l 628 292 l 628 415 l 751 415 l 751 292 m 329 572 l 206 572 l 206 697 l 329 697 l 329 572 m 751 150 l 628 150 l 628 275 l 751 275 l 751 150 m 611 292 l 488 292 l 488 415 l 611 415 l 611 292 m 329 432 l 206 432 l 206 556 l 329 556 l 329 432 m 611 150 l 488 150 l 488 275 l 611 275 l 611 150 m 189 432 l 64 432 l 64 556 l 189 556 l 189 432 m 329 292 l 206 292 l 206 415 l 329 415 l 329 292 m 611 10 l 488 10 l 488 133 l 611 133 l 611 10 m 329 150 l 206 150 l 206 275 l 329 275 l 329 150 m 471 10 l 346 10 l 346 133 l 471 133 l 471 10 m 189 292 l 64 292 l 64 415 l 189 415 l 189 292 m 189 150 l 64 150 l 64 275 l 189 275 l 189 150 m 329 10 l 206 10 l 206 133 l 329 133 l 329 10 m 329 853 l 206 853 l 206 978 l 329 978 l 329 853 m 469 999 l 346 999 l 346 1124 l 469 1124 l 469 999 m 610 999 l 486 999 l 486 1124 l 610 1124 l 610 999 z "},"ò":{"ha":811,"x_min":64,"x_max":751,"o":"m 611 572 l 488 572 l 488 697 l 611 697 l 611 572 m 751 432 l 628 432 l 628 556 l 751 556 l 751 432 m 471 572 l 346 572 l 346 697 l 471 697 l 471 572 m 611 432 l 488 432 l 488 556 l 611 556 l 611 432 m 751 292 l 628 292 l 628 415 l 751 415 l 751 292 m 329 572 l 206 572 l 206 697 l 329 697 l 329 572 m 751 150 l 628 150 l 628 275 l 751 275 l 751 150 m 611 292 l 488 292 l 488 415 l 611 415 l 611 292 m 329 432 l 206 432 l 206 556 l 329 556 l 329 432 m 611 150 l 488 150 l 488 275 l 611 275 l 611 150 m 189 432 l 64 432 l 64 556 l 189 556 l 189 432 m 329 292 l 206 292 l 206 415 l 329 415 l 329 292 m 611 10 l 488 10 l 488 133 l 611 133 l 611 10 m 329 150 l 206 150 l 206 275 l 329 275 l 329 150 m 471 10 l 346 10 l 346 133 l 471 133 l 471 10 m 189 292 l 64 292 l 64 415 l 189 415 l 189 292 m 189 150 l 64 150 l 64 275 l 189 275 l 189 150 m 329 10 l 206 10 l 206 133 l 329 133 l 329 10 m 465 994 l 342 994 l 342 1119 l 465 1119 l 465 994 m 607 854 l 482 854 l 482 978 l 607 978 l 607 854 m 325 994 l 200 994 l 200 1119 l 325 1119 l 325 994 z "},"ô":{"ha":811,"x_min":64,"x_max":751,"o":"m 611 572 l 488 572 l 488 697 l 611 697 l 611 572 m 751 432 l 628 432 l 628 556 l 751 556 l 751 432 m 471 572 l 346 572 l 346 697 l 471 697 l 471 572 m 611 432 l 488 432 l 488 556 l 611 556 l 611 432 m 751 292 l 628 292 l 628 415 l 751 415 l 751 292 m 329 572 l 206 572 l 206 697 l 329 697 l 329 572 m 751 150 l 628 150 l 628 275 l 751 275 l 751 150 m 611 292 l 488 292 l 488 415 l 611 415 l 611 292 m 329 432 l 206 432 l 206 556 l 329 556 l 329 432 m 611 150 l 488 150 l 488 275 l 611 275 l 611 150 m 189 432 l 64 432 l 64 556 l 189 556 l 189 432 m 329 292 l 206 292 l 206 415 l 329 415 l 329 292 m 611 10 l 488 10 l 488 133 l 611 133 l 611 10 m 329 150 l 206 150 l 206 275 l 329 275 l 329 150 m 471 10 l 346 10 l 346 133 l 471 133 l 471 10 m 189 292 l 64 292 l 64 415 l 189 415 l 189 292 m 189 150 l 64 150 l 64 275 l 189 275 l 189 150 m 329 10 l 206 10 l 206 133 l 329 133 l 329 10 m 471 992 l 347 992 l 347 1117 l 471 1117 l 471 992 m 613 851 l 488 851 l 488 975 l 613 975 l 613 851 m 331 851 l 206 851 l 206 975 l 331 975 l 331 851 z "},"ö":{"ha":825,"x_min":71,"x_max":758,"o":"m 618 572 l 494 572 l 494 697 l 618 697 l 618 572 m 758 432 l 635 432 l 635 556 l 758 556 l 758 432 m 478 572 l 353 572 l 353 697 l 478 697 l 478 572 m 618 432 l 494 432 l 494 556 l 618 556 l 618 432 m 758 292 l 635 292 l 635 415 l 758 415 l 758 292 m 336 572 l 213 572 l 213 697 l 336 697 l 336 572 m 758 150 l 635 150 l 635 275 l 758 275 l 758 150 m 618 292 l 494 292 l 494 415 l 618 415 l 618 292 m 336 432 l 213 432 l 213 556 l 336 556 l 336 432 m 618 150 l 494 150 l 494 275 l 618 275 l 618 150 m 196 432 l 71 432 l 71 556 l 196 556 l 196 432 m 336 292 l 213 292 l 213 415 l 336 415 l 336 292 m 618 10 l 494 10 l 494 133 l 618 133 l 618 10 m 336 150 l 213 150 l 213 275 l 336 275 l 336 150 m 478 10 l 353 10 l 353 133 l 478 133 l 478 10 m 196 292 l 71 292 l 71 415 l 196 415 l 196 292 m 196 150 l 71 150 l 71 275 l 196 275 l 196 150 m 336 10 l 213 10 l 213 133 l 336 133 l 336 10 m 336 997 l 213 997 l 213 1122 l 336 1122 l 336 997 m 617 999 l 493 999 l 493 1124 l 617 1124 l 617 999 z "},"õ":{"ha":976,"x_min":64,"x_max":893,"o":"m 611 572 l 488 572 l 488 697 l 611 697 l 611 572 m 751 432 l 628 432 l 628 556 l 751 556 l 751 432 m 471 572 l 346 572 l 346 697 l 471 697 l 471 572 m 611 432 l 488 432 l 488 556 l 611 556 l 611 432 m 751 292 l 628 292 l 628 415 l 751 415 l 751 292 m 329 572 l 206 572 l 206 697 l 329 697 l 329 572 m 751 150 l 628 150 l 628 275 l 751 275 l 751 150 m 611 292 l 488 292 l 488 415 l 611 415 l 611 292 m 329 432 l 206 432 l 206 556 l 329 556 l 329 432 m 611 150 l 488 150 l 488 275 l 611 275 l 611 150 m 189 432 l 64 432 l 64 556 l 189 556 l 189 432 m 329 292 l 206 292 l 206 415 l 329 415 l 329 292 m 611 10 l 488 10 l 488 133 l 611 133 l 611 10 m 329 150 l 206 150 l 206 275 l 329 275 l 329 150 m 471 10 l 346 10 l 346 133 l 471 133 l 471 10 m 189 292 l 64 292 l 64 415 l 189 415 l 189 292 m 189 150 l 64 150 l 64 275 l 189 275 l 189 150 m 329 10 l 206 10 l 206 133 l 329 133 l 329 10 m 893 1138 l 768 1138 l 768 1261 l 893 1261 l 893 1138 m 893 996 l 768 996 l 768 1121 l 893 1121 l 893 996 m 471 1138 l 346 1138 l 346 1261 l 471 1261 l 471 1138 m 611 996 l 488 996 l 488 1121 l 611 1121 l 611 996 m 751 856 l 628 856 l 628 979 l 751 979 l 751 856 m 329 1138 l 206 1138 l 206 1261 l 329 1261 l 329 1138 m 471 996 l 346 996 l 346 1121 l 471 1121 l 471 996 m 611 856 l 488 856 l 488 979 l 611 979 l 611 856 m 189 996 l 64 996 l 64 1121 l 189 1121 l 189 996 m 189 856 l 64 856 l 64 979 l 189 979 l 189 856 m 892 572 l 768 572 l 768 697 l 892 697 l 892 572 m 751 572 l 626 572 l 626 697 l 751 697 l 751 572 z "},"ú":{"ha":839,"x_min":64,"x_max":751,"o":"m 751 572 l 628 572 l 628 697 l 751 697 l 751 572 m 611 572 l 488 572 l 488 697 l 611 697 l 611 572 m 751 432 l 628 432 l 628 556 l 751 556 l 751 432 m 611 432 l 488 432 l 488 556 l 611 556 l 611 432 m 751 292 l 628 292 l 628 415 l 751 415 l 751 292 m 329 572 l 206 572 l 206 697 l 329 697 l 329 572 m 751 150 l 628 150 l 628 275 l 751 275 l 751 150 m 611 292 l 488 292 l 488 415 l 611 415 l 611 292 m 189 572 l 64 572 l 64 697 l 189 697 l 189 572 m 329 432 l 206 432 l 206 556 l 329 556 l 329 432 m 611 150 l 488 150 l 488 275 l 611 275 l 611 150 m 751 10 l 628 10 l 628 133 l 751 133 l 751 10 m 189 432 l 64 432 l 64 556 l 189 556 l 189 432 m 329 292 l 206 292 l 206 415 l 329 415 l 329 292 m 611 10 l 488 10 l 488 133 l 611 133 l 611 10 m 329 150 l 206 150 l 206 275 l 329 275 l 329 150 m 471 10 l 346 10 l 346 133 l 471 133 l 471 10 m 189 292 l 64 292 l 64 415 l 189 415 l 189 292 m 189 150 l 64 150 l 64 275 l 189 275 l 189 150 m 329 10 l 206 10 l 206 133 l 329 133 l 329 10 m 329 853 l 206 853 l 206 978 l 329 978 l 329 853 m 469 999 l 346 999 l 346 1124 l 469 1124 l 469 999 m 610 999 l 486 999 l 486 1124 l 610 1124 l 610 999 z "},"ù":{"ha":839,"x_min":64,"x_max":751,"o":"m 751 572 l 628 572 l 628 697 l 751 697 l 751 572 m 611 572 l 488 572 l 488 697 l 611 697 l 611 572 m 751 432 l 628 432 l 628 556 l 751 556 l 751 432 m 611 432 l 488 432 l 488 556 l 611 556 l 611 432 m 751 292 l 628 292 l 628 415 l 751 415 l 751 292 m 329 572 l 206 572 l 206 697 l 329 697 l 329 572 m 751 150 l 628 150 l 628 275 l 751 275 l 751 150 m 611 292 l 488 292 l 488 415 l 611 415 l 611 292 m 189 572 l 64 572 l 64 697 l 189 697 l 189 572 m 329 432 l 206 432 l 206 556 l 329 556 l 329 432 m 611 150 l 488 150 l 488 275 l 611 275 l 611 150 m 751 10 l 628 10 l 628 133 l 751 133 l 751 10 m 189 432 l 64 432 l 64 556 l 189 556 l 189 432 m 329 292 l 206 292 l 206 415 l 329 415 l 329 292 m 611 10 l 488 10 l 488 133 l 611 133 l 611 10 m 329 150 l 206 150 l 206 275 l 329 275 l 329 150 m 471 10 l 346 10 l 346 133 l 471 133 l 471 10 m 189 292 l 64 292 l 64 415 l 189 415 l 189 292 m 189 150 l 64 150 l 64 275 l 189 275 l 189 150 m 329 10 l 206 10 l 206 133 l 329 133 l 329 10 m 465 994 l 342 994 l 342 1119 l 465 1119 l 465 994 m 607 854 l 482 854 l 482 978 l 607 978 l 607 854 m 325 994 l 200 994 l 200 1119 l 325 1119 l 325 994 z "},"û":{"ha":839,"x_min":64,"x_max":751,"o":"m 751 572 l 628 572 l 628 697 l 751 697 l 751 572 m 611 572 l 488 572 l 488 697 l 611 697 l 611 572 m 751 432 l 628 432 l 628 556 l 751 556 l 751 432 m 611 432 l 488 432 l 488 556 l 611 556 l 611 432 m 751 292 l 628 292 l 628 415 l 751 415 l 751 292 m 329 572 l 206 572 l 206 697 l 329 697 l 329 572 m 751 150 l 628 150 l 628 275 l 751 275 l 751 150 m 611 292 l 488 292 l 488 415 l 611 415 l 611 292 m 189 572 l 64 572 l 64 697 l 189 697 l 189 572 m 329 432 l 206 432 l 206 556 l 329 556 l 329 432 m 611 150 l 488 150 l 488 275 l 611 275 l 611 150 m 751 10 l 628 10 l 628 133 l 751 133 l 751 10 m 189 432 l 64 432 l 64 556 l 189 556 l 189 432 m 329 292 l 206 292 l 206 415 l 329 415 l 329 292 m 611 10 l 488 10 l 488 133 l 611 133 l 611 10 m 329 150 l 206 150 l 206 275 l 329 275 l 329 150 m 471 10 l 346 10 l 346 133 l 471 133 l 471 10 m 189 292 l 64 292 l 64 415 l 189 415 l 189 292 m 189 150 l 64 150 l 64 275 l 189 275 l 189 150 m 329 10 l 206 10 l 206 133 l 329 133 l 329 10 m 471 992 l 347 992 l 347 1117 l 471 1117 l 471 992 m 613 851 l 488 851 l 488 975 l 613 975 l 613 851 m 331 851 l 206 851 l 206 975 l 331 975 l 331 851 z "},"ü":{"ha":853,"x_min":78,"x_max":765,"o":"m 765 572 l 642 572 l 642 697 l 765 697 l 765 572 m 625 572 l 501 572 l 501 697 l 625 697 l 625 572 m 765 432 l 642 432 l 642 556 l 765 556 l 765 432 m 625 432 l 501 432 l 501 556 l 625 556 l 625 432 m 765 292 l 642 292 l 642 415 l 765 415 l 765 292 m 343 572 l 219 572 l 219 697 l 343 697 l 343 572 m 765 150 l 642 150 l 642 275 l 765 275 l 765 150 m 625 292 l 501 292 l 501 415 l 625 415 l 625 292 m 203 572 l 78 572 l 78 697 l 203 697 l 203 572 m 343 432 l 219 432 l 219 556 l 343 556 l 343 432 m 625 150 l 501 150 l 501 275 l 625 275 l 625 150 m 765 10 l 642 10 l 642 133 l 765 133 l 765 10 m 203 432 l 78 432 l 78 556 l 203 556 l 203 432 m 343 292 l 219 292 l 219 415 l 343 415 l 343 292 m 625 10 l 501 10 l 501 133 l 625 133 l 625 10 m 343 150 l 219 150 l 219 275 l 343 275 l 343 150 m 485 10 l 360 10 l 360 133 l 485 133 l 485 10 m 203 292 l 78 292 l 78 415 l 203 415 l 203 292 m 203 150 l 78 150 l 78 275 l 203 275 l 203 150 m 343 10 l 219 10 l 219 133 l 343 133 l 343 10 m 343 997 l 219 997 l 219 1122 l 343 1122 l 343 997 m 624 999 l 500 999 l 500 1124 l 624 1124 l 624 999 z "},"†":{"ha":539,"x_min":64,"x_max":471,"o":"m 471 854 l 346 854 l 346 979 l 471 979 l 471 854 m 329 854 l 206 854 l 206 979 l 329 979 l 329 854 m 471 714 l 346 714 l 346 838 l 471 838 l 471 714 m 189 854 l 64 854 l 64 979 l 189 979 l 189 854 m 329 714 l 206 714 l 206 838 l 329 838 l 329 714 m 471 572 l 346 572 l 346 697 l 471 697 l 471 572 m 189 714 l 64 714 l 64 838 l 189 838 l 189 714 m 329 572 l 206 572 l 206 697 l 329 697 l 329 572 m 471 432 l 346 432 l 346 556 l 471 556 l 471 432 m 189 572 l 64 572 l 64 697 l 189 697 l 189 572 m 329 432 l 206 432 l 206 556 l 329 556 l 329 432 m 471 292 l 346 292 l 346 415 l 471 415 l 471 292 m 471 150 l 346 150 l 346 275 l 471 275 l 471 150 m 189 432 l 64 432 l 64 556 l 189 556 l 189 432 m 329 292 l 206 292 l 206 415 l 329 415 l 329 292 m 329 150 l 206 150 l 206 275 l 329 275 l 329 150 m 471 10 l 346 10 l 346 133 l 471 133 l 471 10 m 189 292 l 64 292 l 64 415 l 189 415 l 189 292 m 189 150 l 64 150 l 64 275 l 189 275 l 189 150 m 329 10 l 206 10 l 206 133 l 329 133 l 329 10 m 471 -132 l 346 -132 l 346 -7 l 471 -7 l 471 -132 m 189 10 l 64 10 l 64 133 l 189 133 l 189 10 m 329 -132 l 206 -132 l 206 -7 l 329 -7 l 329 -132 m 189 -132 l 64 -132 l 64 -7 l 189 -7 l 189 -132 m 471 -275 l 346 -275 l 346 -150 l 471 -150 l 471 -275 m 329 -275 l 206 -275 l 206 -150 l 329 -150 l 329 -275 m 189 -275 l 64 -275 l 64 -150 l 189 -150 l 189 -275 z "},"°":{"ha":399,"x_min":64,"x_max":329,"o":"m 329 854 l 206 854 l 206 979 l 329 979 l 329 854 m 189 854 l 64 854 l 64 979 l 189 979 l 189 854 m 329 714 l 206 714 l 206 838 l 329 838 l 329 714 m 189 714 l 64 714 l 64 838 l 189 838 l 189 714 m 329 572 l 206 572 l 206 697 l 329 697 l 329 572 m 189 572 l 64 572 l 64 697 l 189 697 l 189 572 m 329 432 l 206 432 l 206 556 l 329 556 l 329 432 m 189 432 l 64 432 l 64 556 l 189 556 l 189 432 m 329 292 l 206 292 l 206 415 l 329 415 l 329 292 m 329 150 l 206 150 l 206 275 l 329 275 l 329 150 m 189 292 l 64 292 l 64 415 l 189 415 l 189 292 m 189 150 l 64 150 l 64 275 l 189 275 l 189 150 m 329 10 l 206 10 l 206 133 l 329 133 l 329 10 m 189 10 l 64 10 l 64 133 l 189 133 l 189 10 m 329 -132 l 206 -132 l 206 -7 l 329 -7 l 329 -132 m 189 -132 l 64 -132 l 64 -7 l 189 -7 l 189 -132 m 329 -275 l 206 -275 l 206 -150 l 329 -150 l 329 -275 m 189 -275 l 64 -275 l 64 -150 l 189 -150 l 189 -275 z "},"¢":{"ha":686,"x_min":64,"x_max":611,"o":"m 471 854 l 346 854 l 346 979 l 471 979 l 471 854 m 611 714 l 488 714 l 488 838 l 611 838 l 611 714 m 329 854 l 206 854 l 206 979 l 329 979 l 329 854 m 471 714 l 346 714 l 346 838 l 471 838 l 471 714 m 611 572 l 488 572 l 488 697 l 611 697 l 611 572 m 329 714 l 206 714 l 206 838 l 329 838 l 329 714 m 611 432 l 488 432 l 488 556 l 611 556 l 611 432 m 189 714 l 64 714 l 64 838 l 189 838 l 189 714 m 611 292 l 488 292 l 488 415 l 611 415 l 611 292 m 189 572 l 64 572 l 64 697 l 189 697 l 189 572 m 611 150 l 488 150 l 488 275 l 611 275 l 611 150 m 189 432 l 64 432 l 64 556 l 189 556 l 189 432 m 611 10 l 488 10 l 488 133 l 611 133 l 611 10 m 189 292 l 64 292 l 64 415 l 189 415 l 189 292 m 611 -132 l 488 -132 l 488 -7 l 611 -7 l 611 -132 m 189 150 l 64 150 l 64 275 l 189 275 l 189 150 m 471 -132 l 346 -132 l 346 -7 l 471 -7 l 471 -132 m 189 10 l 64 10 l 64 133 l 189 133 l 189 10 m 329 -132 l 206 -132 l 206 -7 l 329 -7 l 329 -132 m 189 -132 l 64 -132 l 64 -7 l 189 -7 l 189 -132 z "},"£":{"ha":964,"x_min":64,"x_max":893,"o":"m 751 854 l 628 854 l 628 979 l 751 979 l 751 854 m 611 854 l 488 854 l 488 979 l 611 979 l 611 854 m 471 854 l 346 854 l 346 979 l 471 979 l 471 854 m 471 714 l 346 714 l 346 838 l 471 838 l 471 714 m 751 432 l 628 432 l 628 556 l 751 556 l 751 432 m 329 714 l 206 714 l 206 838 l 329 838 l 329 714 m 471 572 l 346 572 l 346 697 l 471 697 l 471 572 m 611 432 l 488 432 l 488 556 l 611 556 l 611 432 m 329 572 l 206 572 l 206 697 l 329 697 l 329 572 m 471 432 l 346 432 l 346 556 l 471 556 l 471 432 m 893 10 l 768 10 l 768 133 l 893 133 l 893 10 m 329 432 l 206 432 l 206 556 l 329 556 l 329 432 m 471 292 l 346 292 l 346 415 l 471 415 l 471 292 m 751 10 l 628 10 l 628 133 l 751 133 l 751 10 m 471 150 l 346 150 l 346 275 l 471 275 l 471 150 m 189 432 l 64 432 l 64 556 l 189 556 l 189 432 m 329 292 l 206 292 l 206 415 l 329 415 l 329 292 m 611 10 l 488 10 l 488 133 l 611 133 l 611 10 m 329 150 l 206 150 l 206 275 l 329 275 l 329 150 m 471 10 l 346 10 l 346 133 l 471 133 l 471 10 m 329 10 l 206 10 l 206 133 l 329 133 l 329 10 m 189 10 l 64 10 l 64 133 l 189 133 l 189 10 z "},"§":{"ha":969,"x_min":64,"x_max":893,"o":"m 751 994 l 628 994 l 628 1119 l 751 1119 l 751 994 m 893 854 l 768 854 l 768 978 l 893 978 l 893 854 m 611 994 l 488 994 l 488 1119 l 611 1119 l 611 994 m 751 854 l 628 854 l 628 978 l 751 978 l 751 854 m 471 994 l 346 994 l 346 1119 l 471 1119 l 471 994 m 329 994 l 206 994 l 206 1119 l 329 1119 l 329 994 m 751 572 l 628 572 l 628 696 l 751 696 l 751 572 m 893 432 l 768 432 l 768 556 l 893 556 l 893 432 m 329 854 l 206 854 l 206 978 l 329 978 l 329 854 m 611 572 l 488 572 l 488 696 l 611 696 l 611 572 m 751 432 l 628 432 l 628 556 l 751 556 l 751 432 m 189 854 l 64 854 l 64 978 l 189 978 l 189 854 m 329 713 l 206 713 l 206 838 l 329 838 l 329 713 m 471 572 l 346 572 l 346 696 l 471 696 l 471 572 m 751 290 l 628 290 l 628 415 l 751 415 l 751 290 m 893 150 l 768 150 l 768 274 l 893 274 l 893 150 m 189 713 l 64 713 l 64 838 l 189 838 l 189 713 m 329 572 l 206 572 l 206 696 l 329 696 l 329 572 m 611 290 l 488 290 l 488 415 l 611 415 l 611 290 m 751 150 l 628 150 l 628 274 l 751 274 l 751 150 m 893 8 l 768 8 l 768 133 l 893 133 l 893 8 m 471 290 l 346 290 l 346 415 l 471 415 l 471 290 m 329 432 l 206 432 l 206 556 l 329 556 l 329 432 m 751 8 l 628 8 l 628 133 l 751 133 l 751 8 m 329 290 l 206 290 l 206 415 l 329 415 l 329 290 m 189 432 l 64 432 l 64 556 l 189 556 l 189 432 m 329 8 l 206 8 l 206 133 l 329 133 l 329 8 m 189 8 l 64 8 l 64 133 l 189 133 l 189 8 m 751 -135 l 628 -135 l 628 -10 l 751 -10 l 751 -135 m 611 -135 l 488 -135 l 488 -10 l 611 -10 l 611 -135 m 471 -135 l 346 -135 l 346 -10 l 471 -10 l 471 -135 m 329 -135 l 206 -135 l 206 -10 l 329 -10 l 329 -135 z "},"•":{"ha":679,"x_min":64,"x_max":611,"o":"m 611 854 l 488 854 l 488 979 l 611 979 l 611 854 m 471 854 l 346 854 l 346 979 l 471 979 l 471 854 m 611 714 l 488 714 l 488 838 l 611 838 l 611 714 m 329 854 l 206 854 l 206 979 l 329 979 l 329 854 m 471 714 l 346 714 l 346 838 l 471 838 l 471 714 m 611 572 l 488 572 l 488 697 l 611 697 l 611 572 m 189 854 l 64 854 l 64 979 l 189 979 l 189 854 m 329 714 l 206 714 l 206 838 l 329 838 l 329 714 m 471 572 l 346 572 l 346 697 l 471 697 l 471 572 m 611 432 l 488 432 l 488 556 l 611 556 l 611 432 m 189 714 l 64 714 l 64 838 l 189 838 l 189 714 m 329 572 l 206 572 l 206 697 l 329 697 l 329 572 m 471 432 l 346 432 l 346 556 l 471 556 l 471 432 m 611 292 l 488 292 l 488 415 l 611 415 l 611 292 m 189 572 l 64 572 l 64 697 l 189 697 l 189 572 m 329 432 l 206 432 l 206 556 l 329 556 l 329 432 m 471 292 l 346 292 l 346 415 l 471 415 l 471 292 m 611 150 l 488 150 l 488 275 l 611 275 l 611 150 m 471 150 l 346 150 l 346 275 l 471 275 l 471 150 m 189 432 l 64 432 l 64 556 l 189 556 l 189 432 m 329 292 l 206 292 l 206 415 l 329 415 l 329 292 m 611 10 l 488 10 l 488 133 l 611 133 l 611 10 m 329 150 l 206 150 l 206 275 l 329 275 l 329 150 m 471 10 l 346 10 l 346 133 l 471 133 l 471 10 m 189 292 l 64 292 l 64 415 l 189 415 l 189 292 m 611 -132 l 488 -132 l 488 -7 l 611 -7 l 611 -132 m 189 150 l 64 150 l 64 275 l 189 275 l 189 150 m 329 10 l 206 10 l 206 133 l 329 133 l 329 10 m 471 -132 l 346 -132 l 346 -7 l 471 -7 l 471 -132 m 189 10 l 64 10 l 64 133 l 189 133 l 189 10 m 329 -132 l 206 -132 l 206 -7 l 329 -7 l 329 -132 m 189 -132 l 64 -132 l 64 -7 l 189 -7 l 189 -132 m 611 -275 l 488 -275 l 488 -150 l 611 -150 l 611 -275 m 471 -275 l 346 -275 l 346 -150 l 471 -150 l 471 -275 m 329 -275 l 206 -275 l 206 -150 l 329 -150 l 329 -275 m 189 -275 l 64 -275 l 64 -150 l 189 -150 l 189 -275 z "},"¶":{"ha":956,"x_min":57,"x_max":886,"o":"m 886 854 l 761 854 l 761 979 l 886 979 l 886 854 m 744 854 l 621 854 l 621 979 l 744 979 l 744 854 m 886 714 l 761 714 l 761 838 l 886 838 l 886 714 m 604 854 l 481 854 l 481 979 l 604 979 l 604 854 m 744 714 l 621 714 l 621 838 l 744 838 l 744 714 m 886 572 l 761 572 l 761 697 l 886 697 l 886 572 m 464 854 l 339 854 l 339 979 l 464 979 l 464 854 m 744 572 l 621 572 l 621 697 l 744 697 l 744 572 m 886 432 l 761 432 l 761 556 l 886 556 l 886 432 m 322 854 l 199 854 l 199 979 l 322 979 l 322 854 m 464 714 l 339 714 l 339 838 l 464 838 l 464 714 m 744 432 l 621 432 l 621 556 l 744 556 l 744 432 m 886 292 l 761 292 l 761 415 l 886 415 l 886 292 m 322 714 l 199 714 l 199 838 l 322 838 l 322 714 m 464 572 l 339 572 l 339 697 l 464 697 l 464 572 m 886 150 l 761 150 l 761 275 l 886 275 l 886 150 m 744 292 l 621 292 l 621 415 l 744 415 l 744 292 m 182 714 l 57 714 l 57 838 l 182 838 l 182 714 m 322 572 l 199 572 l 199 697 l 322 697 l 322 572 m 464 432 l 339 432 l 339 556 l 464 556 l 464 432 m 744 150 l 621 150 l 621 275 l 744 275 l 744 150 m 886 10 l 761 10 l 761 133 l 886 133 l 886 10 m 182 572 l 57 572 l 57 697 l 182 697 l 182 572 m 322 432 l 199 432 l 199 556 l 322 556 l 322 432 m 464 292 l 339 292 l 339 415 l 464 415 l 464 292 m 744 10 l 621 10 l 621 133 l 744 133 l 744 10 m 464 150 l 339 150 l 339 275 l 464 275 l 464 150 m 464 10 l 339 10 l 339 133 l 464 133 l 464 10 z "},"ß":{"ha":1094,"x_min":64,"x_max":1033,"o":"m 751 854 l 628 854 l 628 979 l 751 979 l 751 854 m 893 714 l 768 714 l 768 838 l 893 838 l 893 714 m 611 854 l 488 854 l 488 979 l 611 979 l 611 854 m 751 714 l 628 714 l 628 838 l 751 838 l 751 714 m 471 854 l 346 854 l 346 979 l 471 979 l 471 854 m 751 572 l 628 572 l 628 697 l 751 697 l 751 572 m 893 432 l 768 432 l 768 556 l 893 556 l 893 432 m 1033 292 l 910 292 l 910 415 l 1033 415 l 1033 292 m 329 854 l 206 854 l 206 979 l 329 979 l 329 854 m 1033 150 l 910 150 l 910 275 l 1033 275 l 1033 150 m 751 432 l 628 432 l 628 556 l 751 556 l 751 432 m 893 292 l 768 292 l 768 415 l 893 415 l 893 292 m 329 714 l 206 714 l 206 838 l 329 838 l 329 714 m 893 150 l 768 150 l 768 275 l 893 275 l 893 150 m 611 432 l 488 432 l 488 556 l 611 556 l 611 432 m 751 292 l 628 292 l 628 415 l 751 415 l 751 292 m 189 714 l 64 714 l 64 838 l 189 838 l 189 714 m 329 572 l 206 572 l 206 697 l 329 697 l 329 572 m 893 10 l 768 10 l 768 133 l 893 133 l 893 10 m 189 572 l 64 572 l 64 697 l 189 697 l 189 572 m 329 432 l 206 432 l 206 556 l 329 556 l 329 432 m 751 10 l 628 10 l 628 133 l 751 133 l 751 10 m 189 432 l 64 432 l 64 556 l 189 556 l 189 432 m 329 292 l 206 292 l 206 415 l 329 415 l 329 292 m 611 10 l 488 10 l 488 133 l 611 133 l 611 10 m 329 150 l 206 150 l 206 275 l 329 275 l 329 150 m 189 292 l 64 292 l 64 415 l 189 415 l 189 292 m 189 150 l 64 150 l 64 275 l 189 275 l 189 150 m 329 10 l 206 10 l 206 133 l 329 133 l 329 10 m 189 10 l 64 10 l 64 133 l 189 133 l 189 10 z "},"®":{"ha":1124,"x_min":64,"x_max":1033,"o":"m 751 854 l 628 854 l 628 979 l 751 979 l 751 854 m 893 714 l 768 714 l 768 838 l 893 838 l 893 714 m 1033 572 l 910 572 l 910 697 l 1033 697 l 1033 572 m 611 854 l 488 854 l 488 979 l 611 979 l 611 854 m 1033 432 l 910 432 l 910 556 l 1033 556 l 1033 432 m 471 854 l 346 854 l 346 979 l 471 979 l 471 854 m 751 572 l 628 572 l 628 697 l 751 697 l 751 572 m 1033 292 l 910 292 l 910 415 l 1033 415 l 1033 292 m 611 572 l 488 572 l 488 697 l 611 697 l 611 572 m 329 714 l 206 714 l 206 838 l 329 838 l 329 714 m 471 572 l 346 572 l 346 697 l 471 697 l 471 572 m 893 150 l 768 150 l 768 275 l 893 275 l 893 150 m 611 432 l 488 432 l 488 556 l 611 556 l 611 432 m 751 292 l 628 292 l 628 415 l 751 415 l 751 292 m 471 432 l 346 432 l 346 556 l 471 556 l 471 432 m 189 572 l 64 572 l 64 697 l 189 697 l 189 572 m 471 292 l 346 292 l 346 415 l 471 415 l 471 292 m 751 10 l 628 10 l 628 133 l 751 133 l 751 10 m 189 432 l 64 432 l 64 556 l 189 556 l 189 432 m 611 10 l 488 10 l 488 133 l 611 133 l 611 10 m 329 150 l 206 150 l 206 275 l 329 275 l 329 150 m 471 10 l 346 10 l 346 133 l 471 133 l 471 10 m 189 292 l 64 292 l 64 415 l 189 415 l 189 292 z "},"©":{"ha":1119,"x_min":64,"x_max":1029,"o":"m 888 714 l 764 714 l 764 838 l 888 838 l 888 714 m 1029 572 l 904 572 l 904 697 l 1029 697 l 1029 572 m 751 854 l 628 854 l 628 979 l 751 979 l 751 854 m 1029 432 l 904 432 l 904 556 l 1029 556 l 1029 432 m 611 854 l 488 854 l 488 979 l 611 979 l 611 854 m 1029 292 l 904 292 l 904 415 l 1029 415 l 1029 292 m 471 854 l 346 854 l 346 979 l 471 979 l 471 854 m 751 572 l 628 572 l 628 697 l 751 697 l 751 572 m 888 150 l 764 150 l 764 275 l 888 275 l 888 150 m 611 572 l 488 572 l 488 697 l 611 697 l 611 572 m 329 714 l 206 714 l 206 838 l 329 838 l 329 714 m 471 572 l 346 572 l 346 697 l 471 697 l 471 572 m 751 292 l 628 292 l 628 415 l 751 415 l 751 292 m 471 432 l 346 432 l 346 556 l 471 556 l 471 432 m 611 292 l 488 292 l 488 415 l 611 415 l 611 292 m 189 572 l 64 572 l 64 697 l 189 697 l 189 572 m 471 292 l 346 292 l 346 415 l 471 415 l 471 292 m 751 10 l 628 10 l 628 133 l 751 133 l 751 10 m 189 432 l 64 432 l 64 556 l 189 556 l 189 432 m 611 10 l 488 10 l 488 133 l 611 133 l 611 10 m 329 150 l 206 150 l 206 275 l 329 275 l 329 150 m 471 10 l 346 10 l 346 133 l 471 133 l 471 10 m 189 292 l 64 292 l 64 415 l 189 415 l 189 292 z "},"™":{"ha":1383,"x_min":64,"x_max":1318,"o":"m 1175 714 l 1050 714 l 1050 838 l 1175 838 l 1175 714 m 751 854 l 628 854 l 628 979 l 751 979 l 751 854 m 893 714 l 768 714 l 768 838 l 893 838 l 893 714 m 1033 572 l 910 572 l 910 697 l 1033 697 l 1033 572 m 751 714 l 628 714 l 628 838 l 751 838 l 751 714 m 471 854 l 346 854 l 346 979 l 471 979 l 471 854 m 751 572 l 628 572 l 628 697 l 751 697 l 751 572 m 329 854 l 206 854 l 206 979 l 329 979 l 329 854 m 189 854 l 64 854 l 64 979 l 189 979 l 189 854 m 329 714 l 206 714 l 206 838 l 329 838 l 329 714 m 329 572 l 206 572 l 206 697 l 329 697 l 329 572 m 1318 854 l 1193 854 l 1193 979 l 1318 979 l 1318 854 m 1318 714 l 1193 714 l 1193 838 l 1318 838 l 1318 714 m 1318 572 l 1193 572 l 1193 697 l 1318 697 l 1318 572 z "},"´":{"ha":819,"x_min":206,"x_max":610,"o":"m 329 853 l 206 853 l 206 978 l 329 978 l 329 853 m 469 999 l 346 999 l 346 1124 l 469 1124 l 469 999 m 610 999 l 486 999 l 486 1124 l 610 1124 l 610 999 z "},"¨":{"ha":819,"x_min":206,"x_max":610,"o":"m 329 997 l 206 997 l 206 1122 l 329 1122 l 329 997 m 610 999 l 486 999 l 486 1124 l 610 1124 l 610 999 z "},"≠":{"ha":836,"x_min":76,"x_max":764,"o":"m 764 572 l 640 572 l 640 697 l 764 697 l 764 572 m 624 572 l 500 572 l 500 697 l 624 697 l 624 572 m 483 572 l 358 572 l 358 697 l 483 697 l 483 572 m 764 292 l 640 292 l 640 415 l 764 415 l 764 292 m 342 572 l 218 572 l 218 697 l 342 697 l 342 572 m 624 292 l 500 292 l 500 415 l 624 415 l 624 292 m 201 572 l 76 572 l 76 697 l 201 697 l 201 572 m 483 292 l 358 292 l 358 415 l 483 415 l 483 292 m 342 292 l 218 292 l 218 415 l 342 415 l 342 292 m 201 292 l 76 292 l 76 415 l 201 415 l 201 292 m 624 713 l 500 713 l 500 838 l 624 838 l 624 713 m 483 432 l 358 432 l 358 557 l 483 557 l 483 432 m 342 153 l 218 153 l 218 276 l 342 276 l 342 153 z "},"Æ":{"ha":1254,"x_min":76,"x_max":1188,"o":"m 482 854 l 358 854 l 358 979 l 482 979 l 482 854 m 342 854 l 218 854 l 218 979 l 342 979 l 342 854 m 201 714 l 76 714 l 76 838 l 201 838 l 201 714 m 482 290 l 358 290 l 358 414 l 482 414 l 482 290 m 201 572 l 76 572 l 76 697 l 201 697 l 201 572 m 342 290 l 218 290 l 218 414 l 342 414 l 342 290 m 201 432 l 76 432 l 76 556 l 201 556 l 201 432 m 201 292 l 76 292 l 76 415 l 201 415 l 201 292 m 201 150 l 76 150 l 76 275 l 201 275 l 201 150 m 201 10 l 76 10 l 76 133 l 201 133 l 201 10 m 482 715 l 358 715 l 358 839 l 482 839 l 482 715 m 342 715 l 218 715 l 218 839 l 342 839 l 342 715 m 1188 854 l 1063 854 l 1063 979 l 1188 979 l 1188 854 m 1046 854 l 922 854 l 922 979 l 1046 979 l 1046 854 m 906 854 l 782 854 l 782 979 l 906 979 l 906 854 m 765 854 l 640 854 l 640 979 l 765 979 l 765 854 m 1046 572 l 922 572 l 922 697 l 1046 697 l 1046 572 m 624 854 l 500 854 l 500 979 l 624 979 l 624 854 m 765 714 l 640 714 l 640 838 l 765 838 l 765 714 m 906 572 l 782 572 l 782 697 l 906 697 l 906 572 m 624 714 l 500 714 l 500 838 l 624 838 l 624 714 m 765 572 l 640 572 l 640 697 l 765 697 l 765 572 m 624 572 l 500 572 l 500 697 l 624 697 l 624 572 m 765 432 l 640 432 l 640 556 l 765 556 l 765 432 m 1188 10 l 1063 10 l 1063 133 l 1188 133 l 1188 10 m 624 432 l 500 432 l 500 556 l 624 556 l 624 432 m 765 292 l 640 292 l 640 415 l 765 415 l 765 292 m 1046 10 l 922 10 l 922 133 l 1046 133 l 1046 10 m 765 150 l 640 150 l 640 275 l 765 275 l 765 150 m 624 292 l 500 292 l 500 415 l 624 415 l 624 292 m 906 10 l 782 10 l 782 133 l 906 133 l 906 10 m 624 150 l 500 150 l 500 275 l 624 275 l 624 150 m 765 10 l 640 10 l 640 133 l 765 133 l 765 10 m 624 10 l 500 10 l 500 133 l 624 133 l 624 10 z "},"Ø":{"ha":1271,"x_min":76,"x_max":1188,"o":"m 906 854 l 781 854 l 781 979 l 906 979 l 906 854 m 1046 714 l 922 714 l 922 838 l 1046 838 l 1046 714 m 1188 572 l 1063 572 l 1063 697 l 1188 697 l 1188 572 m 764 854 l 640 854 l 640 979 l 764 979 l 764 854 m 906 714 l 781 714 l 781 838 l 906 838 l 906 714 m 1046 572 l 922 572 l 922 697 l 1046 697 l 1046 572 m 1188 432 l 1063 432 l 1063 556 l 1188 556 l 1188 432 m 624 854 l 500 854 l 500 979 l 624 979 l 624 854 m 1046 432 l 922 432 l 922 556 l 1046 556 l 1046 432 m 1188 292 l 1063 292 l 1063 415 l 1188 415 l 1188 292 m 483 854 l 358 854 l 358 979 l 483 979 l 483 854 m 1046 292 l 922 292 l 922 415 l 1046 415 l 1046 292 m 483 714 l 358 714 l 358 838 l 483 838 l 483 714 m 1046 150 l 922 150 l 922 275 l 1046 275 l 1046 150 m 342 714 l 218 714 l 218 838 l 342 838 l 342 714 m 906 150 l 781 150 l 781 275 l 906 275 l 906 150 m 342 572 l 218 572 l 218 697 l 342 697 l 342 572 m 906 10 l 781 10 l 781 133 l 906 133 l 906 10 m 201 572 l 76 572 l 76 697 l 201 697 l 201 572 m 342 432 l 218 432 l 218 556 l 342 556 l 342 432 m 764 10 l 640 10 l 640 133 l 764 133 l 764 10 m 483 150 l 358 150 l 358 275 l 483 275 l 483 150 m 201 432 l 76 432 l 76 556 l 201 556 l 201 432 m 342 292 l 218 292 l 218 415 l 342 415 l 342 292 m 624 10 l 500 10 l 500 133 l 624 133 l 624 10 m 483 10 l 358 10 l 358 133 l 483 133 l 483 10 m 201 292 l 76 292 l 76 415 l 201 415 l 201 292 m 906 714 l 781 714 l 781 838 l 906 838 l 906 714 m 764 572 l 640 572 l 640 697 l 764 697 l 764 572 m 624 432 l 500 432 l 500 556 l 624 556 l 624 432 m 483 292 l 358 292 l 358 415 l 483 415 l 483 292 z "},"∞":{"ha":544,"x_min":64,"x_max":471,"o":"m 471 433 l 346 433 l 346 557 l 471 557 l 471 433 m 329 433 l 206 433 l 206 557 l 329 557 l 329 433 m 189 433 l 64 433 l 64 557 l 189 557 l 189 433 m 471 574 l 346 574 l 346 697 l 471 697 l 471 574 m 329 574 l 206 574 l 206 697 l 329 697 l 329 574 m 189 574 l 64 574 l 64 697 l 189 697 l 189 574 z "},"±":{"ha":829,"x_min":64,"x_max":751,"o":"m 471 572 l 346 572 l 346 697 l 471 697 l 471 572 m 751 292 l 628 292 l 628 415 l 751 415 l 751 292 m 471 432 l 346 432 l 346 556 l 471 556 l 471 432 m 611 292 l 488 292 l 488 415 l 611 415 l 611 292 m 471 292 l 346 292 l 346 415 l 471 415 l 471 292 m 329 292 l 206 292 l 206 415 l 329 415 l 329 292 m 189 292 l 64 292 l 64 415 l 189 415 l 189 292 m 471 994 l 346 994 l 346 1119 l 471 1119 l 471 994 m 751 714 l 628 714 l 628 838 l 751 838 l 751 714 m 471 854 l 346 854 l 346 978 l 471 978 l 471 854 m 611 714 l 488 714 l 488 838 l 611 838 l 611 714 m 471 714 l 346 714 l 346 838 l 471 838 l 471 714 m 329 714 l 206 714 l 206 838 l 329 838 l 329 714 m 189 714 l 64 714 l 64 838 l 189 838 l 189 714 z "},"≤":{"ha":1235,"x_min":64,"x_max":1175,"o":"m 1175 432 l 1050 432 l 1050 556 l 1175 556 l 1175 432 m 1033 432 l 910 432 l 910 556 l 1033 556 l 1033 432 m 1175 292 l 1050 292 l 1050 415 l 1175 415 l 1175 292 m 1033 292 l 910 292 l 910 415 l 1033 415 l 1033 292 m 471 714 l 346 714 l 346 838 l 471 838 l 471 714 m 751 432 l 628 432 l 628 556 l 751 556 l 751 432 m 471 572 l 346 572 l 346 697 l 471 697 l 471 572 m 611 432 l 488 432 l 488 556 l 611 556 l 611 432 m 751 292 l 628 292 l 628 415 l 751 415 l 751 292 m 329 572 l 206 572 l 206 697 l 329 697 l 329 572 m 471 432 l 346 432 l 346 556 l 471 556 l 471 432 m 611 292 l 488 292 l 488 415 l 611 415 l 611 292 m 329 432 l 206 432 l 206 556 l 329 556 l 329 432 m 471 292 l 346 292 l 346 415 l 471 415 l 471 292 m 471 150 l 346 150 l 346 275 l 471 275 l 471 150 m 189 432 l 64 432 l 64 556 l 189 556 l 189 432 m 329 292 l 206 292 l 206 415 l 329 415 l 329 292 m 329 150 l 206 150 l 206 275 l 329 275 l 329 150 m 471 10 l 346 10 l 346 133 l 471 133 l 471 10 m 189 292 l 64 292 l 64 415 l 189 415 l 189 292 z "},"≥":{"ha":1235,"x_min":64,"x_max":1175,"o":"m 893 714 l 768 714 l 768 838 l 893 838 l 893 714 m 1033 572 l 910 572 l 910 697 l 1033 697 l 1033 572 m 1175 432 l 1050 432 l 1050 556 l 1175 556 l 1175 432 m 893 572 l 768 572 l 768 697 l 893 697 l 893 572 m 1033 432 l 910 432 l 910 556 l 1033 556 l 1033 432 m 1175 292 l 1050 292 l 1050 415 l 1175 415 l 1175 292 m 893 432 l 768 432 l 768 556 l 893 556 l 893 432 m 1033 292 l 910 292 l 910 415 l 1033 415 l 1033 292 m 1033 150 l 910 150 l 910 275 l 1033 275 l 1033 150 m 751 432 l 628 432 l 628 556 l 751 556 l 751 432 m 893 292 l 768 292 l 768 415 l 893 415 l 893 292 m 893 150 l 768 150 l 768 275 l 893 275 l 893 150 m 611 432 l 488 432 l 488 556 l 611 556 l 611 432 m 751 292 l 628 292 l 628 415 l 751 415 l 751 292 m 751 275 m 893 10 l 768 10 l 768 133 l 893 133 l 893 10 m 611 292 l 488 292 l 488 415 l 611 415 l 611 292 m 329 432 l 206 432 l 206 556 l 329 556 l 329 432 m 611 275 m 189 432 l 64 432 l 64 556 l 189 556 l 189 432 m 329 292 l 206 292 l 206 415 l 329 415 l 329 292 m 329 275 m 189 292 l 64 292 l 64 415 l 189 415 l 189 292 m 189 275 z "},"¥":{"ha":969,"x_min":64,"x_max":894,"o":"m 893 292 l 768 292 l 768 415 l 893 415 l 893 292 m 751 292 l 628 292 l 628 415 l 751 415 l 751 292 m 893 10 l 768 10 l 768 133 l 893 133 l 893 10 m 751 10 l 628 10 l 628 133 l 751 133 l 751 10 m 329 292 l 206 292 l 206 415 l 329 415 l 329 292 m 189 292 l 64 292 l 64 415 l 189 415 l 189 292 m 329 10 l 206 10 l 206 133 l 329 133 l 329 10 m 189 10 l 64 10 l 64 133 l 189 133 l 189 10 m 894 854 l 769 854 l 769 979 l 894 979 l 894 854 m 753 854 l 629 854 l 629 979 l 753 979 l 753 854 m 894 714 l 769 714 l 769 838 l 894 838 l 894 714 m 753 714 l 629 714 l 629 838 l 753 838 l 753 714 m 894 572 l 769 572 l 769 697 l 894 697 l 894 572 m 753 572 l 629 572 l 629 697 l 753 697 l 753 572 m 331 854 l 207 854 l 207 979 l 331 979 l 331 854 m 753 432 l 629 432 l 629 556 l 753 556 l 753 432 m 190 854 l 65 854 l 65 979 l 190 979 l 190 854 m 331 714 l 207 714 l 207 838 l 331 838 l 331 714 m 613 432 l 489 432 l 489 556 l 613 556 l 613 432 m 190 714 l 65 714 l 65 838 l 190 838 l 190 714 m 331 572 l 207 572 l 207 697 l 331 697 l 331 572 m 472 432 l 347 432 l 347 556 l 472 556 l 472 432 m 613 292 l 489 292 l 489 415 l 613 415 l 613 292 m 190 572 l 65 572 l 65 697 l 190 697 l 190 572 m 331 432 l 207 432 l 207 556 l 331 556 l 331 432 m 472 292 l 347 292 l 347 415 l 472 415 l 472 292 m 613 150 l 489 150 l 489 275 l 613 275 l 613 150 m 472 150 l 347 150 l 347 275 l 472 275 l 472 150 m 613 10 l 489 10 l 489 133 l 613 133 l 613 10 m 472 10 l 347 10 l 347 133 l 472 133 l 472 10 z "},"µ":{"ha":1124,"x_min":64,"x_max":1033,"o":"m 1033 572 l 910 572 l 910 697 l 1033 697 l 1033 572 m 893 572 l 768 572 l 768 697 l 893 697 l 893 572 m 1033 432 l 910 432 l 910 556 l 1033 556 l 1033 432 m 751 572 l 628 572 l 628 697 l 751 697 l 751 572 m 893 432 l 768 432 l 768 556 l 893 556 l 893 432 m 1033 292 l 910 292 l 910 415 l 1033 415 l 1033 292 m 1033 150 l 910 150 l 910 275 l 1033 275 l 1033 150 m 611 572 l 488 572 l 488 697 l 611 697 l 611 572 m 471 572 l 346 572 l 346 697 l 471 697 l 471 572 m 1033 10 l 910 10 l 910 133 l 1033 133 l 1033 10 m 751 292 l 628 292 l 628 415 l 751 415 l 751 292 m 329 572 l 206 572 l 206 697 l 329 697 l 329 572 m 893 10 l 768 10 l 768 133 l 893 133 l 893 10 m 189 572 l 64 572 l 64 697 l 189 697 l 189 572 m 329 432 l 206 432 l 206 556 l 329 556 l 329 432 m 471 292 l 346 292 l 346 415 l 471 415 l 471 292 m 611 150 l 488 150 l 488 275 l 611 275 l 611 150 m 751 10 l 628 10 l 628 133 l 751 133 l 751 10 m 189 432 l 64 432 l 64 556 l 189 556 l 189 432 m 611 10 l 488 10 l 488 133 l 611 133 l 611 10 m 471 10 l 346 10 l 346 133 l 471 133 l 471 10 m 189 292 l 64 292 l 64 415 l 189 415 l 189 292 m 189 150 l 64 150 l 64 275 l 189 275 l 189 150 m 329 10 l 206 10 l 206 133 l 329 133 l 329 10 m 189 10 l 64 10 l 64 133 l 189 133 l 189 10 z "},"∂":{"ha":689,"x_min":64,"x_max":611,"o":"m 329 854 l 206 854 l 206 979 l 329 979 l 329 854 m 471 714 l 346 714 l 346 838 l 471 838 l 471 714 m 611 572 l 488 572 l 488 697 l 611 697 l 611 572 m 189 854 l 64 854 l 64 979 l 189 979 l 189 854 m 329 714 l 206 714 l 206 838 l 329 838 l 329 714 m 611 432 l 488 432 l 488 556 l 611 556 l 611 432 m 471 432 l 346 432 l 346 556 l 471 556 l 471 432 m 611 292 l 488 292 l 488 415 l 611 415 l 611 292 m 329 432 l 206 432 l 206 556 l 329 556 l 329 432 m 611 150 l 488 150 l 488 275 l 611 275 l 611 150 m 471 10 l 346 10 l 346 133 l 471 133 l 471 10 m 189 292 l 64 292 l 64 415 l 189 415 l 189 292 m 189 150 l 64 150 l 64 275 l 189 275 l 189 150 m 329 10 l 206 10 l 206 133 l 329 133 l 329 10 z "},"∑":{"ha":824,"x_min":64,"x_max":751,"o":"m 751 854 l 628 854 l 628 979 l 751 979 l 751 854 m 611 854 l 488 854 l 488 979 l 611 979 l 611 854 m 471 854 l 346 854 l 346 979 l 471 979 l 471 854 m 329 854 l 206 854 l 206 979 l 329 979 l 329 854 m 189 854 l 64 854 l 64 979 l 189 979 l 189 854 m 329 714 l 206 714 l 206 838 l 329 838 l 329 714 m 471 572 l 346 572 l 346 697 l 471 697 l 471 572 m 611 432 l 488 432 l 488 556 l 611 556 l 611 432 m 189 714 l 64 714 l 64 838 l 189 838 l 189 714 m 329 572 l 206 572 l 206 697 l 329 697 l 329 572 m 471 432 l 346 432 l 346 556 l 471 556 l 471 432 m 471 292 l 346 292 l 346 415 l 471 415 l 471 292 m 751 10 l 628 10 l 628 133 l 751 133 l 751 10 m 329 292 l 206 292 l 206 415 l 329 415 l 329 292 m 611 10 l 488 10 l 488 133 l 611 133 l 611 10 m 329 150 l 206 150 l 206 275 l 329 275 l 329 150 m 471 10 l 346 10 l 346 133 l 471 133 l 471 10 m 189 150 l 64 150 l 64 275 l 189 275 l 189 150 m 329 10 l 206 10 l 206 133 l 329 133 l 329 10 m 189 10 l 64 10 l 64 133 l 189 133 l 189 10 z "},"∏":{"ha":1119,"x_min":64,"x_max":1033,"o":"m 1033 714 l 910 714 l 910 838 l 1033 838 l 1033 714 m 611 854 l 488 854 l 488 979 l 611 979 l 611 854 m 893 572 l 768 572 l 768 697 l 893 697 l 893 572 m 611 714 l 488 714 l 488 838 l 611 838 l 611 714 m 611 572 l 488 572 l 488 697 l 611 697 l 611 572 m 751 292 l 628 292 l 628 415 l 751 415 l 751 292 m 189 714 l 64 714 l 64 838 l 189 838 l 189 714 m 329 572 l 206 572 l 206 697 l 329 697 l 329 572 m 893 10 l 768 10 l 768 133 l 893 133 l 893 10 m 1033 -132 l 910 -132 l 910 -7 l 1033 -7 l 1033 -132 m 611 292 l 488 292 l 488 415 l 611 415 l 611 292 m 471 292 l 346 292 l 346 415 l 471 415 l 471 292 m 611 150 l 488 150 l 488 275 l 611 275 l 611 150 m 611 10 l 488 10 l 488 133 l 611 133 l 611 10 m 611 -132 l 488 -132 l 488 -7 l 611 -7 l 611 -132 m 329 10 l 206 10 l 206 133 l 329 133 l 329 10 m 189 -132 l 64 -132 l 64 -7 l 189 -7 l 189 -132 m 611 -275 l 488 -275 l 488 -150 l 611 -150 l 611 -275 z "},"π":{"ha":1128,"x_min":64,"x_max":1033,"o":"m 611 714 l 488 714 l 488 838 l 611 838 l 611 714 m 751 572 l 628 572 l 628 697 l 751 697 l 751 572 m 893 432 l 768 432 l 768 556 l 893 556 l 893 432 m 611 572 l 488 572 l 488 697 l 611 697 l 611 572 m 751 432 l 628 432 l 628 556 l 751 556 l 751 432 m 893 292 l 768 292 l 768 415 l 893 415 l 893 292 m 471 572 l 346 572 l 346 697 l 471 697 l 471 572 m 893 150 l 768 150 l 768 275 l 893 275 l 893 150 m 471 432 l 346 432 l 346 556 l 471 556 l 471 432 m 893 10 l 768 10 l 768 133 l 893 133 l 893 10 m 1033 -132 l 910 -132 l 910 -7 l 1033 -7 l 1033 -132 m 893 -132 l 768 -132 l 768 -7 l 893 -7 l 893 -132 m 329 292 l 206 292 l 206 415 l 329 415 l 329 292 m 751 -132 l 628 -132 l 628 -7 l 751 -7 l 751 -132 m 329 150 l 206 150 l 206 275 l 329 275 l 329 150 m 611 -132 l 488 -132 l 488 -7 l 611 -7 l 611 -132 m 329 10 l 206 10 l 206 133 l 329 133 l 329 10 m 471 -132 l 346 -132 l 346 -7 l 471 -7 l 471 -132 m 329 -132 l 206 -132 l 206 -7 l 329 -7 l 329 -132 m 189 -132 l 64 -132 l 64 -7 l 189 -7 l 189 -132 m 611 -275 l 488 -275 l 488 -150 l 611 -150 l 611 -275 m 332 432 l 207 432 l 207 556 l 332 556 l 332 432 z "},"∫":{"ha":700,"x_min":64,"x_max":610,"o":"m 344 1119 l 468 1119 l 468 994 l 344 994 l 344 1119 m 203 978 l 328 978 l 328 854 l 203 854 l 203 978 m 485 1119 l 610 1119 l 610 994 l 485 994 l 485 1119 m 344 978 l 468 978 l 468 854 l 344 854 l 344 978 m 203 838 l 328 838 l 328 713 l 203 713 l 203 838 m 344 838 l 468 838 l 468 713 l 344 713 l 344 838 m 203 696 l 328 696 l 328 572 l 203 572 l 203 696 m 471 432 l 347 432 l 347 556 l 471 556 l 471 432 m 344 696 l 468 696 l 468 572 l 344 572 l 344 696 m 331 432 l 206 432 l 206 556 l 331 556 l 331 432 m 471 290 l 346 290 l 346 415 l 471 415 l 471 290 m 329 290 l 206 290 l 206 415 l 329 415 l 329 290 m 471 150 l 346 150 l 346 274 l 471 274 l 471 150 m 329 150 l 206 150 l 206 274 l 329 274 l 329 150 m 471 8 l 346 8 l 346 133 l 471 133 l 471 8 m 329 8 l 206 8 l 206 133 l 329 133 l 329 8 m 329 -135 l 206 -135 l 206 -10 l 329 -10 l 329 -135 m 189 -135 l 64 -135 l 64 -10 l 189 -10 l 189 -135 z "},"ª":{"ha":836,"x_min":206,"x_max":615,"o":"m 471 1135 l 346 1135 l 346 1260 l 471 1260 l 471 1135 m 611 994 l 488 994 l 488 1118 l 611 1118 l 611 994 m 471 854 l 346 854 l 346 978 l 471 978 l 471 854 m 329 994 l 206 994 l 206 1118 l 329 1118 l 329 994 m 615 433 l 490 433 l 490 557 l 615 557 l 615 433 m 474 433 l 350 433 l 350 557 l 474 557 l 474 433 m 333 433 l 208 433 l 208 557 l 333 557 l 333 433 m 611 854 l 488 854 l 488 978 l 611 978 l 611 854 z "},"º":{"ha":828,"x_min":206,"x_max":619,"o":"m 471 1135 l 346 1135 l 346 1260 l 471 1260 l 471 1135 m 611 994 l 488 994 l 488 1118 l 611 1118 l 611 994 m 471 854 l 346 854 l 346 978 l 471 978 l 471 854 m 329 994 l 206 994 l 206 1118 l 329 1118 l 329 994 m 619 433 l 494 433 l 494 557 l 619 557 l 619 433 m 478 433 l 354 433 l 354 557 l 478 557 l 478 433 m 338 433 l 213 433 l 213 557 l 338 557 l 338 433 z "},"Ω":{"ha":1271,"x_min":76,"x_max":1189,"o":"m 906 854 l 781 854 l 781 979 l 906 979 l 906 854 m 1046 714 l 922 714 l 922 838 l 1046 838 l 1046 714 m 1188 572 l 1063 572 l 1063 697 l 1188 697 l 1188 572 m 764 854 l 640 854 l 640 979 l 764 979 l 764 854 m 906 714 l 781 714 l 781 838 l 906 838 l 906 714 m 1046 572 l 922 572 l 922 697 l 1046 697 l 1046 572 m 1188 432 l 1063 432 l 1063 556 l 1188 556 l 1188 432 m 624 854 l 500 854 l 500 979 l 624 979 l 624 854 m 1046 432 l 922 432 l 922 556 l 1046 556 l 1046 432 m 1188 292 l 1063 292 l 1063 415 l 1188 415 l 1188 292 m 483 854 l 358 854 l 358 979 l 483 979 l 483 854 m 1046 292 l 922 292 l 922 415 l 1046 415 l 1046 292 m 483 714 l 358 714 l 358 838 l 483 838 l 483 714 m 1046 150 l 922 150 l 922 275 l 1046 275 l 1046 150 m 342 714 l 218 714 l 218 838 l 342 838 l 342 714 m 906 150 l 781 150 l 781 275 l 906 275 l 906 150 m 342 572 l 218 572 l 218 697 l 342 697 l 342 572 m 906 10 l 781 10 l 781 133 l 906 133 l 906 10 m 201 572 l 76 572 l 76 697 l 201 697 l 201 572 m 342 432 l 218 432 l 218 556 l 342 556 l 342 432 m 764 10 l 640 10 l 640 133 l 764 133 l 764 10 m 483 150 l 358 150 l 358 275 l 483 275 l 483 150 m 201 432 l 76 432 l 76 556 l 201 556 l 201 432 m 342 292 l 218 292 l 218 415 l 342 415 l 342 292 m 624 10 l 500 10 l 500 133 l 624 133 l 624 10 m 342 150 l 218 150 l 218 275 l 342 275 l 342 150 m 483 10 l 358 10 l 358 133 l 483 133 l 483 10 m 201 292 l 76 292 l 76 415 l 201 415 l 201 292 m 1189 10 l 1064 10 l 1064 133 l 1189 133 l 1189 10 m 1047 10 l 924 10 l 924 133 l 1047 133 l 1047 10 m 346 10 l 222 10 l 222 133 l 346 133 l 346 10 m 206 10 l 81 10 l 81 133 l 206 133 l 206 10 z "},"æ":{"ha":1131,"x_min":78,"x_max":1044,"o":"m 904 572 l 781 572 l 781 697 l 904 697 l 904 572 m 1044 432 l 921 432 l 921 556 l 1044 556 l 1044 432 m 764 572 l 639 572 l 639 697 l 764 697 l 764 572 m 904 432 l 781 432 l 781 556 l 904 556 l 904 432 m 1044 292 l 921 292 l 921 415 l 1044 415 l 1044 292 m 904 292 l 781 292 l 781 415 l 904 415 l 904 292 m 764 292 l 639 292 l 639 415 l 764 415 l 764 292 m 1044 10 l 921 10 l 921 133 l 1044 133 l 1044 10 m 904 10 l 781 10 l 781 133 l 904 133 l 904 10 m 764 10 l 639 10 l 639 133 l 764 133 l 764 10 m 625 572 l 501 572 l 501 697 l 625 697 l 625 572 m 485 572 l 360 572 l 360 697 l 485 697 l 485 572 m 625 432 l 501 432 l 501 556 l 625 556 l 625 432 m 343 572 l 219 572 l 219 697 l 343 697 l 343 572 m 625 292 l 501 292 l 501 415 l 625 415 l 625 292 m 483 292 l 360 292 l 360 415 l 483 415 l 483 292 m 625 150 l 501 150 l 501 275 l 625 275 l 625 150 m 343 292 l 219 292 l 219 415 l 343 415 l 343 292 m 625 10 l 501 10 l 501 133 l 625 133 l 625 10 m 343 150 l 219 150 l 219 275 l 343 275 l 343 150 m 485 10 l 360 10 l 360 133 l 485 133 l 485 10 m 203 292 l 78 292 l 78 415 l 203 415 l 203 292 m 203 150 l 78 150 l 78 275 l 203 275 l 203 150 m 343 10 l 219 10 l 219 133 l 343 133 l 343 10 z "},"ø":{"ha":811,"x_min":64,"x_max":751,"o":"m 611 572 l 488 572 l 488 697 l 611 697 l 611 572 m 751 432 l 628 432 l 628 556 l 751 556 l 751 432 m 471 572 l 346 572 l 346 697 l 471 697 l 471 572 m 611 432 l 488 432 l 488 556 l 611 556 l 611 432 m 751 292 l 628 292 l 628 415 l 751 415 l 751 292 m 329 572 l 206 572 l 206 697 l 329 697 l 329 572 m 751 150 l 628 150 l 628 275 l 751 275 l 751 150 m 611 292 l 488 292 l 488 415 l 611 415 l 611 292 m 329 432 l 206 432 l 206 556 l 329 556 l 329 432 m 611 150 l 488 150 l 488 275 l 611 275 l 611 150 m 189 432 l 64 432 l 64 556 l 189 556 l 189 432 m 329 292 l 206 292 l 206 415 l 329 415 l 329 292 m 611 10 l 488 10 l 488 133 l 611 133 l 611 10 m 329 150 l 206 150 l 206 275 l 329 275 l 329 150 m 471 10 l 346 10 l 346 133 l 471 133 l 471 10 m 189 292 l 64 292 l 64 415 l 189 415 l 189 292 m 189 150 l 64 150 l 64 275 l 189 275 l 189 150 m 329 10 l 206 10 l 206 133 l 329 133 l 329 10 m 468 292 l 344 292 l 344 415 l 468 415 l 468 292 z "},"¿":{"ha":840,"x_min":76,"x_max":764,"o":"m 217 135 l 340 135 l 340 10 l 217 10 l 217 135 m 76 275 l 200 275 l 200 151 l 76 151 l 76 275 m 357 135 l 482 135 l 482 10 l 357 10 l 357 135 m 217 275 l 340 275 l 340 151 l 217 151 l 217 275 m 499 135 l 622 135 l 622 10 l 499 10 l 499 135 m 217 417 l 340 417 l 340 292 l 217 292 l 217 417 m 639 135 l 764 135 l 764 10 l 639 10 l 639 135 m 357 417 l 482 417 l 482 292 l 357 292 l 357 417 m 357 557 l 482 557 l 482 433 l 357 433 l 357 557 m 499 557 l 622 557 l 622 433 l 499 433 l 499 557 m 357 697 l 482 697 l 482 574 l 357 574 l 357 697 m 499 697 l 622 697 l 622 574 l 499 574 l 499 697 m 357 979 l 482 979 l 482 856 l 357 856 l 357 979 m 499 979 l 622 979 l 622 856 l 499 856 l 499 979 z "},"¡":{"ha":401,"x_min":64,"x_max":329,"o":"m 329 10 l 206 10 l 206 135 l 329 135 l 329 10 m 189 10 l 64 10 l 64 135 l 189 135 l 189 10 m 329 151 l 206 151 l 206 275 l 329 275 l 329 151 m 189 151 l 64 151 l 64 275 l 189 275 l 189 151 m 329 292 l 206 292 l 206 417 l 329 417 l 329 292 m 189 292 l 64 292 l 64 417 l 189 417 l 189 292 m 329 433 l 206 433 l 206 557 l 329 557 l 329 433 m 189 433 l 64 433 l 64 557 l 189 557 l 189 433 m 329 574 l 206 574 l 206 697 l 329 697 l 329 574 m 189 574 l 64 574 l 64 697 l 189 697 l 189 574 m 329 856 l 206 856 l 206 979 l 329 979 l 329 856 m 189 856 l 64 856 l 64 979 l 189 979 l 189 856 z "},"¬":{"ha":551,"x_min":64,"x_max":471,"o":"m 471 292 l 346 292 l 346 415 l 471 415 l 471 292 m 471 150 l 346 150 l 346 275 l 471 275 l 471 150 m 329 292 l 206 292 l 206 415 l 329 415 l 329 292 m 189 292 l 64 292 l 64 415 l 189 415 l 189 292 z "},"√":{"ha":1249,"x_min":53,"x_max":1163,"o":"m 1163 854 l 1039 854 l 1039 979 l 1163 979 l 1163 854 m 1022 854 l 899 854 l 899 979 l 1022 979 l 1022 854 m 1022 714 l 899 714 l 899 838 l 1022 838 l 1022 714 m 882 572 l 758 572 l 758 697 l 882 697 l 882 572 m 742 432 l 617 432 l 617 556 l 742 556 l 742 432 m 742 292 l 617 292 l 617 415 l 742 415 l 742 292 m 176 292 l 53 292 l 53 415 l 176 415 l 176 292 m 600 150 l 476 150 l 476 275 l 600 275 l 600 150 m 318 150 l 193 150 l 193 275 l 318 275 l 318 150 m 460 10 l 335 10 l 335 133 l 460 133 l 460 10 z "},"ƒ":{"ha":700,"x_min":64,"x_max":611,"o":"m 346 1119 l 469 1119 l 469 994 l 346 994 l 346 1119 m 204 978 l 329 978 l 329 854 l 204 854 l 204 978 m 486 1119 l 611 1119 l 611 994 l 486 994 l 486 1119 m 346 978 l 469 978 l 469 854 l 346 854 l 346 978 m 204 838 l 329 838 l 329 713 l 204 713 l 204 838 m 346 838 l 469 838 l 469 713 l 346 713 l 346 838 m 204 696 l 329 696 l 329 572 l 204 572 l 204 696 m 471 432 l 347 432 l 347 556 l 471 556 l 471 432 m 346 696 l 469 696 l 469 572 l 346 572 l 346 696 m 331 432 l 206 432 l 206 556 l 331 556 l 331 432 m 471 290 l 346 290 l 346 415 l 471 415 l 471 290 m 329 290 l 206 290 l 206 415 l 329 415 l 329 290 m 471 150 l 346 150 l 346 274 l 471 274 l 471 150 m 329 150 l 206 150 l 206 274 l 329 274 l 329 150 m 471 8 l 346 8 l 346 133 l 471 133 l 471 8 m 329 8 l 206 8 l 206 133 l 329 133 l 329 8 m 329 -135 l 206 -135 l 206 -10 l 329 -10 l 329 -135 m 189 -135 l 64 -135 l 64 -10 l 189 -10 l 189 -135 m 488 697 l 611 697 l 611 574 l 488 574 l 488 697 z "},"≈":{"ha":1128,"x_min":64,"x_max":1033,"o":"m 611 714 l 488 714 l 488 838 l 611 838 l 611 714 m 751 572 l 628 572 l 628 697 l 751 697 l 751 572 m 893 432 l 768 432 l 768 556 l 893 556 l 893 432 m 611 572 l 488 572 l 488 697 l 611 697 l 611 572 m 751 432 l 628 432 l 628 556 l 751 556 l 751 432 m 893 292 l 768 292 l 768 415 l 893 415 l 893 292 m 471 572 l 346 572 l 346 697 l 471 697 l 471 572 m 893 150 l 768 150 l 768 275 l 893 275 l 893 150 m 471 432 l 346 432 l 346 556 l 471 556 l 471 432 m 893 10 l 768 10 l 768 133 l 893 133 l 893 10 m 1033 -132 l 910 -132 l 910 -7 l 1033 -7 l 1033 -132 m 893 -132 l 768 -132 l 768 -7 l 893 -7 l 893 -132 m 329 292 l 206 292 l 206 415 l 329 415 l 329 292 m 751 -132 l 628 -132 l 628 -7 l 751 -7 l 751 -132 m 329 150 l 206 150 l 206 275 l 329 275 l 329 150 m 611 -132 l 488 -132 l 488 -7 l 611 -7 l 611 -132 m 329 10 l 206 10 l 206 133 l 329 133 l 329 10 m 471 -132 l 346 -132 l 346 -7 l 471 -7 l 471 -132 m 329 -132 l 206 -132 l 206 -7 l 329 -7 l 329 -132 m 189 -132 l 64 -132 l 64 -7 l 189 -7 l 189 -132 m 611 -275 l 488 -275 l 488 -150 l 611 -150 l 611 -275 m 332 432 l 207 432 l 207 556 l 332 556 l 332 432 m 1033 572 l 910 572 l 910 697 l 1033 697 l 1033 572 m 751 292 l 628 292 l 628 415 l 751 415 l 751 292 m 611 150 l 488 150 l 488 275 l 611 275 l 611 150 m 471 10 l 346 10 l 346 133 l 471 133 l 471 10 m 189 -275 l 64 -275 l 64 -150 l 189 -150 l 189 -275 z "},"Δ":{"ha":1379,"x_min":64,"x_max":1311,"o":"m 1035 854 l 910 854 l 910 979 l 1035 979 l 1035 854 m 893 854 l 769 854 l 769 979 l 893 979 l 893 854 m 1035 714 l 910 714 l 910 838 l 1035 838 l 1035 714 m 893 714 l 769 714 l 769 838 l 893 838 l 893 714 m 1035 572 l 910 572 l 910 697 l 1035 697 l 1035 572 m 753 714 l 628 714 l 628 838 l 753 838 l 753 714 m 1035 432 l 910 432 l 910 556 l 1035 556 l 1035 432 m 753 572 l 628 572 l 628 697 l 753 697 l 753 572 m 1035 292 l 910 292 l 910 415 l 1035 415 l 1035 292 m 1035 150 l 910 150 l 910 275 l 1035 275 l 1035 150 m 611 572 l 488 572 l 488 697 l 611 697 l 611 572 m 1035 10 l 910 10 l 910 133 l 1035 133 l 1035 10 m 471 572 l 347 572 l 347 697 l 471 697 l 471 572 m 611 432 l 488 432 l 488 556 l 611 556 l 611 432 m 331 572 l 206 572 l 206 697 l 331 697 l 331 572 m 1035 -132 l 910 -132 l 910 -7 l 1035 -7 l 1035 -132 m 611 292 l 488 292 l 488 415 l 611 415 l 611 292 m 189 572 l 65 572 l 65 697 l 189 697 l 189 572 m 611 150 l 488 150 l 488 275 l 611 275 l 611 150 m 753 10 l 628 10 l 628 133 l 753 133 l 753 10 m 893 -132 l 769 -132 l 769 -7 l 893 -7 l 893 -132 m 189 432 l 65 432 l 65 556 l 189 556 l 189 432 m 611 10 l 488 10 l 488 133 l 611 133 l 611 10 m 753 -132 l 628 -132 l 628 -7 l 753 -7 l 753 -132 m 189 292 l 65 292 l 65 415 l 189 415 l 189 292 m 189 150 l 65 150 l 65 275 l 189 275 l 189 150 m 331 10 l 206 10 l 206 133 l 331 133 l 331 10 m 189 10 l 65 10 l 65 133 l 189 133 l 189 10 m 1035 -275 l 910 -275 l 910 -150 l 1035 -150 l 1035 -275 m 893 -275 l 769 -275 l 769 -150 l 893 -150 l 893 -275 m 1175 714 l 1050 714 l 1050 838 l 1175 838 l 1175 714 m 893 432 l 768 432 l 768 556 l 893 556 l 893 432 m 751 292 l 628 292 l 628 415 l 751 415 l 751 292 m 471 10 l 346 10 l 346 133 l 471 133 l 471 10 m 329 -132 l 206 -132 l 206 -7 l 329 -7 l 329 -132 m 189 -275 l 64 -275 l 64 -150 l 189 -150 l 189 -275 m 1311 854 l 1186 854 l 1186 979 l 1311 979 l 1311 854 z "},"«":{"ha":851,"x_min":83,"x_max":768,"o":"m 224 432 l 349 432 l 349 556 l 224 556 l 224 432 m 83 292 l 207 292 l 207 415 l 83 415 l 83 292 m 224 150 l 349 150 l 349 275 l 224 275 l 224 150 m 643 432 l 768 432 l 768 556 l 643 556 l 643 432 m 503 292 l 626 292 l 626 415 l 503 415 l 503 292 m 643 150 l 768 150 l 768 275 l 643 275 l 643 150 z "},"»":{"ha":851,"x_min":83,"x_max":768,"o":"m 628 432 l 503 432 l 503 556 l 628 556 l 628 432 m 768 292 l 644 292 l 644 415 l 768 415 l 768 292 m 628 150 l 503 150 l 503 275 l 628 275 l 628 150 m 208 432 l 83 432 l 83 556 l 208 556 l 208 432 m 349 292 l 225 292 l 225 415 l 349 415 l 349 292 m 208 150 l 83 150 l 83 275 l 208 275 l 208 150 z "},"…":{"ha":1244,"x_min":64,"x_max":1168,"o":"m 329 10 l 206 10 l 206 133 l 329 133 l 329 10 m 189 10 l 64 10 l 64 133 l 189 133 l 189 10 m 747 10 l 624 10 l 624 133 l 747 133 l 747 10 m 607 10 l 482 10 l 482 133 l 607 133 l 607 10 m 1168 10 l 1044 10 l 1044 133 l 1168 133 l 1168 10 m 1028 10 l 903 10 l 903 133 l 1028 133 l 1028 10 z "}," ":{"ha":417,"x_min":0,"x_max":0,"o":""},"À":{"ha":839,"x_min":76,"x_max":764,"o":"m 479 1133 l 356 1133 l 356 1258 l 479 1258 l 479 1133 m 621 993 l 496 993 l 496 1117 l 621 1117 l 621 993 m 339 1133 l 214 1133 l 214 1258 l 339 1258 l 339 1133 m 624 854 l 499 854 l 499 979 l 624 979 l 624 854 m 764 714 l 640 714 l 640 838 l 764 838 l 764 714 m 482 854 l 358 854 l 358 979 l 482 979 l 482 854 m 624 714 l 499 714 l 499 838 l 624 838 l 624 714 m 764 572 l 640 572 l 640 697 l 764 697 l 764 572 m 342 854 l 218 854 l 218 979 l 342 979 l 342 854 m 624 572 l 499 572 l 499 697 l 624 697 l 624 572 m 764 432 l 640 432 l 640 556 l 764 556 l 764 432 m 624 432 l 499 432 l 499 556 l 624 556 l 624 432 m 764 292 l 640 292 l 640 415 l 764 415 l 764 292 m 201 714 l 76 714 l 76 838 l 201 838 l 201 714 m 764 150 l 640 150 l 640 275 l 764 275 l 764 150 m 482 290 l 358 290 l 358 414 l 482 414 l 482 290 m 624 292 l 499 292 l 499 415 l 624 415 l 624 292 m 201 572 l 76 572 l 76 697 l 201 697 l 201 572 m 624 150 l 499 150 l 499 275 l 624 275 l 624 150 m 764 10 l 640 10 l 640 133 l 764 133 l 764 10 m 342 290 l 218 290 l 218 414 l 342 414 l 342 290 m 201 432 l 76 432 l 76 556 l 201 556 l 201 432 m 624 10 l 499 10 l 499 133 l 624 133 l 624 10 m 201 292 l 76 292 l 76 415 l 201 415 l 201 292 m 201 150 l 76 150 l 76 275 l 201 275 l 201 150 m 201 10 l 76 10 l 76 133 l 201 133 l 201 10 m 482 715 l 358 715 l 358 839 l 482 839 l 482 715 m 342 715 l 218 715 l 218 839 l 342 839 l 342 715 z "},"Ã":{"ha":975,"x_min":71,"x_max":906,"o":"m 900 1281 l 775 1281 l 775 1404 l 900 1404 l 900 1281 m 900 1139 l 775 1139 l 775 1264 l 900 1264 l 900 1139 m 478 1281 l 353 1281 l 353 1404 l 478 1404 l 478 1281 m 618 1139 l 494 1139 l 494 1264 l 618 1264 l 618 1139 m 758 999 l 635 999 l 635 1122 l 758 1122 l 758 999 m 336 1281 l 213 1281 l 213 1404 l 336 1404 l 336 1281 m 478 1139 l 353 1139 l 353 1264 l 478 1264 l 478 1139 m 618 999 l 494 999 l 494 1122 l 618 1122 l 618 999 m 196 1139 l 71 1139 l 71 1264 l 196 1264 l 196 1139 m 196 999 l 71 999 l 71 1122 l 196 1122 l 196 999 m 624 854 l 499 854 l 499 979 l 624 979 l 624 854 m 764 714 l 640 714 l 640 838 l 764 838 l 764 714 m 482 854 l 358 854 l 358 979 l 482 979 l 482 854 m 624 714 l 499 714 l 499 838 l 624 838 l 624 714 m 764 572 l 640 572 l 640 697 l 764 697 l 764 572 m 342 854 l 218 854 l 218 979 l 342 979 l 342 854 m 624 572 l 499 572 l 499 697 l 624 697 l 624 572 m 764 432 l 640 432 l 640 556 l 764 556 l 764 432 m 624 432 l 499 432 l 499 556 l 624 556 l 624 432 m 764 292 l 640 292 l 640 415 l 764 415 l 764 292 m 201 714 l 76 714 l 76 838 l 201 838 l 201 714 m 764 150 l 640 150 l 640 275 l 764 275 l 764 150 m 482 290 l 358 290 l 358 414 l 482 414 l 482 290 m 624 292 l 499 292 l 499 415 l 624 415 l 624 292 m 201 572 l 76 572 l 76 697 l 201 697 l 201 572 m 624 150 l 499 150 l 499 275 l 624 275 l 624 150 m 764 10 l 640 10 l 640 133 l 764 133 l 764 10 m 342 290 l 218 290 l 218 414 l 342 414 l 342 290 m 201 432 l 76 432 l 76 556 l 201 556 l 201 432 m 624 10 l 499 10 l 499 133 l 624 133 l 624 10 m 201 292 l 76 292 l 76 415 l 201 415 l 201 292 m 201 150 l 76 150 l 76 275 l 201 275 l 201 150 m 201 10 l 76 10 l 76 133 l 201 133 l 201 10 m 482 715 l 358 715 l 358 839 l 482 839 l 482 715 m 342 715 l 218 715 l 218 839 l 342 839 l 342 715 m 906 10 l 782 10 l 782 133 l 906 133 l 906 10 z "},"Õ":{"ha":1274,"x_min":76,"x_max":1188,"o":"m 1044 1278 l 919 1278 l 919 1401 l 1044 1401 l 1044 1278 m 1044 1136 l 919 1136 l 919 1261 l 1044 1261 l 1044 1136 m 622 1278 l 497 1278 l 497 1401 l 622 1401 l 622 1278 m 763 1136 l 639 1136 l 639 1261 l 763 1261 l 763 1136 m 903 996 l 779 996 l 779 1119 l 903 1119 l 903 996 m 481 1278 l 357 1278 l 357 1401 l 481 1401 l 481 1278 m 622 1136 l 497 1136 l 497 1261 l 622 1261 l 622 1136 m 763 996 l 639 996 l 639 1119 l 763 1119 l 763 996 m 340 1136 l 215 1136 l 215 1261 l 340 1261 l 340 1136 m 340 996 l 215 996 l 215 1119 l 340 1119 l 340 996 m 906 854 l 781 854 l 781 979 l 906 979 l 906 854 m 1046 714 l 922 714 l 922 838 l 1046 838 l 1046 714 m 1188 572 l 1063 572 l 1063 697 l 1188 697 l 1188 572 m 764 854 l 640 854 l 640 979 l 764 979 l 764 854 m 906 714 l 781 714 l 781 838 l 906 838 l 906 714 m 1046 572 l 922 572 l 922 697 l 1046 697 l 1046 572 m 1188 432 l 1063 432 l 1063 556 l 1188 556 l 1188 432 m 624 854 l 500 854 l 500 979 l 624 979 l 624 854 m 1046 432 l 922 432 l 922 556 l 1046 556 l 1046 432 m 1188 292 l 1063 292 l 1063 415 l 1188 415 l 1188 292 m 483 854 l 358 854 l 358 979 l 483 979 l 483 854 m 1046 292 l 922 292 l 922 415 l 1046 415 l 1046 292 m 483 714 l 358 714 l 358 838 l 483 838 l 483 714 m 1046 150 l 922 150 l 922 275 l 1046 275 l 1046 150 m 342 714 l 218 714 l 218 838 l 342 838 l 342 714 m 906 150 l 781 150 l 781 275 l 906 275 l 906 150 m 342 572 l 218 572 l 218 697 l 342 697 l 342 572 m 906 10 l 781 10 l 781 133 l 906 133 l 906 10 m 201 572 l 76 572 l 76 697 l 201 697 l 201 572 m 342 432 l 218 432 l 218 556 l 342 556 l 342 432 m 764 10 l 640 10 l 640 133 l 764 133 l 764 10 m 483 150 l 358 150 l 358 275 l 483 275 l 483 150 m 201 432 l 76 432 l 76 556 l 201 556 l 201 432 m 342 292 l 218 292 l 218 415 l 342 415 l 342 292 m 624 10 l 500 10 l 500 133 l 624 133 l 624 10 m 342 150 l 218 150 l 218 275 l 342 275 l 342 150 m 483 10 l 358 10 l 358 133 l 483 133 l 483 10 m 201 292 l 76 292 l 76 415 l 201 415 l 201 292 z "},"Œ":{"ha":1553,"x_min":76,"x_max":1465,"o":"m 764 854 l 640 854 l 640 979 l 764 979 l 764 854 m 624 854 l 500 854 l 500 979 l 624 979 l 624 854 m 483 854 l 358 854 l 358 979 l 483 979 l 483 854 m 483 714 l 358 714 l 358 838 l 483 838 l 483 714 m 342 714 l 218 714 l 218 838 l 342 838 l 342 714 m 342 572 l 218 572 l 218 697 l 342 697 l 342 572 m 201 572 l 76 572 l 76 697 l 201 697 l 201 572 m 342 432 l 218 432 l 218 556 l 342 556 l 342 432 m 764 10 l 640 10 l 640 133 l 764 133 l 764 10 m 483 150 l 358 150 l 358 275 l 483 275 l 483 150 m 201 432 l 76 432 l 76 556 l 201 556 l 201 432 m 342 292 l 218 292 l 218 415 l 342 415 l 342 292 m 624 10 l 500 10 l 500 133 l 624 133 l 624 10 m 342 150 l 218 150 l 218 275 l 342 275 l 342 150 m 483 10 l 358 10 l 358 133 l 483 133 l 483 10 m 201 292 l 76 292 l 76 415 l 201 415 l 201 292 m 1465 854 l 1340 854 l 1340 979 l 1465 979 l 1465 854 m 1324 854 l 1200 854 l 1200 979 l 1324 979 l 1324 854 m 1183 854 l 1060 854 l 1060 979 l 1183 979 l 1183 854 m 1043 854 l 918 854 l 918 979 l 1043 979 l 1043 854 m 1324 572 l 1200 572 l 1200 697 l 1324 697 l 1324 572 m 901 854 l 778 854 l 778 979 l 901 979 l 901 854 m 1043 714 l 918 714 l 918 838 l 1043 838 l 1043 714 m 1183 572 l 1060 572 l 1060 697 l 1183 697 l 1183 572 m 901 714 l 778 714 l 778 838 l 901 838 l 901 714 m 1043 572 l 918 572 l 918 697 l 1043 697 l 1043 572 m 901 572 l 778 572 l 778 697 l 901 697 l 901 572 m 1043 432 l 918 432 l 918 556 l 1043 556 l 1043 432 m 1465 10 l 1340 10 l 1340 133 l 1465 133 l 1465 10 m 901 432 l 778 432 l 778 556 l 901 556 l 901 432 m 1043 292 l 918 292 l 918 415 l 1043 415 l 1043 292 m 1324 10 l 1200 10 l 1200 133 l 1324 133 l 1324 10 m 1043 150 l 918 150 l 918 275 l 1043 275 l 1043 150 m 901 292 l 778 292 l 778 415 l 901 415 l 901 292 m 1183 10 l 1060 10 l 1060 133 l 1183 133 l 1183 10 m 901 150 l 778 150 l 778 275 l 901 275 l 901 150 m 1043 10 l 918 10 l 918 133 l 1043 133 l 1043 10 m 901 10 l 778 10 l 778 133 l 901 133 l 901 10 z "},"œ":{"ha":1131,"x_min":78,"x_max":1044,"o":"m 904 572 l 781 572 l 781 697 l 904 697 l 904 572 m 1044 432 l 921 432 l 921 556 l 1044 556 l 1044 432 m 764 572 l 639 572 l 639 697 l 764 697 l 764 572 m 904 432 l 781 432 l 781 556 l 904 556 l 904 432 m 1044 292 l 921 292 l 921 415 l 1044 415 l 1044 292 m 904 292 l 781 292 l 781 415 l 904 415 l 904 292 m 764 292 l 639 292 l 639 415 l 764 415 l 764 292 m 1044 10 l 921 10 l 921 133 l 1044 133 l 1044 10 m 904 10 l 781 10 l 781 133 l 904 133 l 904 10 m 764 10 l 639 10 l 639 133 l 764 133 l 764 10 m 625 572 l 501 572 l 501 697 l 625 697 l 625 572 m 485 572 l 360 572 l 360 697 l 485 697 l 485 572 m 625 432 l 501 432 l 501 556 l 625 556 l 625 432 m 343 572 l 219 572 l 219 697 l 343 697 l 343 572 m 625 292 l 501 292 l 501 415 l 625 415 l 625 292 m 343 432 l 219 432 l 219 556 l 343 556 l 343 432 m 625 150 l 501 150 l 501 275 l 625 275 l 625 150 m 203 432 l 78 432 l 78 556 l 203 556 l 203 432 m 343 292 l 219 292 l 219 415 l 343 415 l 343 292 m 625 10 l 501 10 l 501 133 l 625 133 l 625 10 m 343 150 l 219 150 l 219 275 l 343 275 l 343 150 m 485 10 l 360 10 l 360 133 l 485 133 l 485 10 m 203 292 l 78 292 l 78 415 l 203 415 l 203 292 m 203 150 l 78 150 l 78 275 l 203 275 l 203 150 m 343 10 l 219 10 l 219 133 l 343 133 l 343 10 z "},"–":{"ha":544,"x_min":64,"x_max":471,"o":"m 471 433 l 346 433 l 346 557 l 471 557 l 471 433 m 329 433 l 206 433 l 206 557 l 329 557 l 329 433 m 189 433 l 64 433 l 64 557 l 189 557 l 189 433 z "},"—":{"ha":696,"x_min":64,"x_max":615,"o":"m 471 433 l 346 433 l 346 557 l 471 557 l 471 433 m 329 433 l 206 433 l 206 557 l 329 557 l 329 433 m 189 433 l 64 433 l 64 557 l 189 557 l 189 433 m 615 433 l 490 433 l 490 557 l 615 557 l 615 433 z "},"“":{"ha":697,"x_min":64,"x_max":618,"o":"m 353 986 l 476 986 l 476 863 l 353 863 l 353 986 m 353 1128 l 476 1128 l 476 1003 l 353 1003 l 353 1128 m 493 1271 l 618 1271 l 618 1146 l 493 1146 l 493 1271 m 64 986 l 188 986 l 188 863 l 64 863 l 64 986 m 64 1128 l 188 1128 l 188 1003 l 64 1003 l 64 1128 m 204 1271 l 329 1271 l 329 1146 l 204 1146 l 204 1271 z "},"”":{"ha":697,"x_min":64,"x_max":618,"o":"m 329 1147 l 206 1147 l 206 1271 l 329 1271 l 329 1147 m 329 1006 l 206 1006 l 206 1131 l 329 1131 l 329 1006 m 189 863 l 64 863 l 64 988 l 189 988 l 189 863 m 618 1147 l 494 1147 l 494 1271 l 618 1271 l 618 1147 m 618 1006 l 494 1006 l 494 1131 l 618 1131 l 618 1006 m 478 863 l 353 863 l 353 988 l 478 988 l 478 863 z "},"‘":{"ha":419,"x_min":64,"x_max":329,"o":"m 64 986 l 188 986 l 188 863 l 64 863 l 64 986 m 64 1128 l 188 1128 l 188 1003 l 64 1003 l 64 1128 m 204 1271 l 329 1271 l 329 1146 l 204 1146 l 204 1271 z "},"’":{"ha":419,"x_min":64,"x_max":329,"o":"m 329 1147 l 206 1147 l 206 1271 l 329 1271 l 329 1147 m 329 1006 l 206 1006 l 206 1131 l 329 1131 l 329 1006 m 189 863 l 64 863 l 64 988 l 189 988 l 189 863 z "},"÷":{"ha":829,"x_min":64,"x_max":751,"o":"m 471 572 l 346 572 l 346 697 l 471 697 l 471 572 m 751 292 l 628 292 l 628 415 l 751 415 l 751 292 m 611 292 l 488 292 l 488 415 l 611 415 l 611 292 m 471 292 l 346 292 l 346 415 l 471 415 l 471 292 m 329 292 l 206 292 l 206 415 l 329 415 l 329 292 m 471 10 l 346 10 l 346 133 l 471 133 l 471 10 m 189 292 l 64 292 l 64 415 l 189 415 l 189 292 z "},"◊":{"ha":1136,"x_min":65,"x_max":1035,"o":"m 1035 854 l 910 854 l 910 979 l 1035 979 l 1035 854 m 893 854 l 769 854 l 769 979 l 893 979 l 893 854 m 1035 714 l 910 714 l 910 838 l 1035 838 l 1035 714 m 893 714 l 769 714 l 769 838 l 893 838 l 893 714 m 1035 572 l 910 572 l 910 697 l 1035 697 l 1035 572 m 753 714 l 628 714 l 628 838 l 753 838 l 753 714 m 1035 432 l 910 432 l 910 556 l 1035 556 l 1035 432 m 753 572 l 628 572 l 628 697 l 753 697 l 753 572 m 1035 292 l 910 292 l 910 415 l 1035 415 l 1035 292 m 1035 150 l 910 150 l 910 275 l 1035 275 l 1035 150 m 611 572 l 488 572 l 488 697 l 611 697 l 611 572 m 1035 10 l 910 10 l 910 133 l 1035 133 l 1035 10 m 471 572 l 347 572 l 347 697 l 471 697 l 471 572 m 611 432 l 488 432 l 488 556 l 611 556 l 611 432 m 331 572 l 206 572 l 206 697 l 331 697 l 331 572 m 1035 -132 l 910 -132 l 910 -7 l 1035 -7 l 1035 -132 m 611 292 l 488 292 l 488 415 l 611 415 l 611 292 m 189 572 l 65 572 l 65 697 l 189 697 l 189 572 m 611 150 l 488 150 l 488 275 l 611 275 l 611 150 m 753 10 l 628 10 l 628 133 l 753 133 l 753 10 m 893 -132 l 769 -132 l 769 -7 l 893 -7 l 893 -132 m 189 432 l 65 432 l 65 556 l 189 556 l 189 432 m 611 10 l 488 10 l 488 133 l 611 133 l 611 10 m 753 -132 l 628 -132 l 628 -7 l 753 -7 l 753 -132 m 189 292 l 65 292 l 65 415 l 189 415 l 189 292 m 471 10 l 347 10 l 347 133 l 471 133 l 471 10 m 189 150 l 65 150 l 65 275 l 189 275 l 189 150 m 331 10 l 206 10 l 206 133 l 331 133 l 331 10 m 189 10 l 65 10 l 65 133 l 189 133 l 189 10 m 1035 -275 l 910 -275 l 910 -150 l 1035 -150 l 1035 -275 m 893 -275 l 769 -275 l 769 -150 l 893 -150 l 893 -275 z "},"ÿ":{"ha":824,"x_min":64,"x_max":751,"o":"m 751 572 l 628 572 l 628 697 l 751 697 l 751 572 m 611 572 l 488 572 l 488 697 l 611 697 l 611 572 m 751 432 l 628 432 l 628 556 l 751 556 l 751 432 m 611 432 l 488 432 l 488 556 l 611 556 l 611 432 m 751 292 l 628 292 l 628 415 l 751 415 l 751 292 m 329 572 l 206 572 l 206 697 l 329 697 l 329 572 m 611 292 l 488 292 l 488 415 l 611 415 l 611 292 m 189 572 l 64 572 l 64 697 l 189 697 l 189 572 m 329 432 l 206 432 l 206 556 l 329 556 l 329 432 m 611 150 l 488 150 l 488 275 l 611 275 l 611 150 m 471 150 l 346 150 l 346 275 l 471 275 l 471 150 m 189 432 l 64 432 l 64 556 l 189 556 l 189 432 m 329 292 l 206 292 l 206 415 l 329 415 l 329 292 m 611 10 l 488 10 l 488 133 l 611 133 l 611 10 m 329 150 l 206 150 l 206 275 l 329 275 l 329 150 m 471 10 l 346 10 l 346 133 l 471 133 l 471 10 m 189 292 l 64 292 l 64 415 l 189 415 l 189 292 m 471 -132 l 346 -132 l 346 -7 l 471 -7 l 471 -132 m 329 -132 l 206 -132 l 206 -7 l 329 -7 l 329 -132 m 329 -275 l 206 -275 l 206 -150 l 329 -150 l 329 -275 m 189 -275 l 64 -275 l 64 -150 l 189 -150 l 189 -275 m 329 997 l 206 997 l 206 1122 l 329 1122 l 329 997 m 610 999 l 486 999 l 486 1124 l 610 1124 l 610 999 z "},"Ÿ":{"ha":985,"x_min":76,"x_max":906,"o":"m 764 989 l 639 989 l 639 1113 l 764 1113 l 764 989 m 344 989 l 219 989 l 219 1113 l 344 1113 l 344 989 m 906 854 l 781 854 l 781 979 l 906 979 l 906 854 m 764 854 l 640 854 l 640 979 l 764 979 l 764 854 m 906 714 l 781 714 l 781 838 l 906 838 l 906 714 m 764 714 l 640 714 l 640 838 l 764 838 l 764 714 m 906 572 l 781 572 l 781 697 l 906 697 l 906 572 m 764 572 l 640 572 l 640 697 l 764 697 l 764 572 m 342 854 l 218 854 l 218 979 l 342 979 l 342 854 m 764 432 l 640 432 l 640 556 l 764 556 l 764 432 m 201 854 l 76 854 l 76 979 l 201 979 l 201 854 m 342 714 l 218 714 l 218 838 l 342 838 l 342 714 m 624 432 l 500 432 l 500 556 l 624 556 l 624 432 m 201 714 l 76 714 l 76 838 l 201 838 l 201 714 m 342 572 l 218 572 l 218 697 l 342 697 l 342 572 m 483 432 l 358 432 l 358 556 l 483 556 l 483 432 m 624 292 l 500 292 l 500 415 l 624 415 l 624 292 m 201 572 l 76 572 l 76 697 l 201 697 l 201 572 m 342 432 l 218 432 l 218 556 l 342 556 l 342 432 m 483 292 l 358 292 l 358 415 l 483 415 l 483 292 m 624 150 l 500 150 l 500 275 l 624 275 l 624 150 m 483 150 l 358 150 l 358 275 l 483 275 l 483 150 m 624 10 l 500 10 l 500 133 l 624 133 l 624 10 m 483 10 l 358 10 l 358 133 l 483 133 l 483 10 z "},"∕":{"ha":829,"x_min":64,"x_max":751,"o":"m 751 854 l 628 854 l 628 979 l 751 979 l 751 854 m 611 854 l 488 854 l 488 979 l 611 979 l 611 854 m 751 714 l 628 714 l 628 838 l 751 838 l 751 714 m 611 714 l 488 714 l 488 838 l 611 838 l 611 714 m 611 572 l 488 572 l 488 697 l 611 697 l 611 572 m 471 572 l 346 572 l 346 697 l 471 697 l 471 572 m 471 432 l 346 432 l 346 556 l 471 556 l 471 432 m 329 432 l 206 432 l 206 556 l 329 556 l 329 432 m 471 292 l 346 292 l 346 415 l 471 415 l 471 292 m 329 292 l 206 292 l 206 415 l 329 415 l 329 292 m 329 150 l 206 150 l 206 275 l 329 275 l 329 150 m 189 150 l 64 150 l 64 275 l 189 275 l 189 150 m 329 10 l 206 10 l 206 133 l 329 133 l 329 10 m 189 10 l 64 10 l 64 133 l 189 133 l 189 10 z "},"¤":{"ha":544,"x_min":64,"x_max":471,"o":"m 471 433 l 346 433 l 346 557 l 471 557 l 471 433 m 329 297 l 206 297 l 206 421 l 329 421 l 329 297 m 189 433 l 64 433 l 64 557 l 189 557 l 189 433 m 329 569 l 206 569 l 206 693 l 329 693 l 329 569 z "},"‹":{"ha":447,"x_min":83,"x_max":349,"o":"m 224 432 l 349 432 l 349 556 l 224 556 l 224 432 m 83 292 l 207 292 l 207 415 l 83 415 l 83 292 m 224 150 l 349 150 l 349 275 l 224 275 l 224 150 z "},"›":{"ha":447,"x_min":83,"x_max":349,"o":"m 208 432 l 83 432 l 83 556 l 208 556 l 208 432 m 349 292 l 225 292 l 225 415 l 349 415 l 349 292 m 208 150 l 83 150 l 83 275 l 208 275 l 208 150 z "},"ﬁ":{"ha":1235,"x_min":64,"x_max":1033,"o":"m 889 854 l 765 854 l 765 979 l 889 979 l 889 854 m 749 854 l 624 854 l 624 979 l 749 979 l 749 854 m 1033 714 l 910 714 l 910 838 l 1033 838 l 1033 714 m 1033 572 l 910 572 l 910 697 l 1033 697 l 1033 572 m 1033 432 l 910 432 l 910 556 l 1033 556 l 1033 432 m 471 854 l 346 854 l 346 979 l 471 979 l 471 854 m 611 714 l 488 714 l 488 838 l 611 838 l 611 714 m 1033 292 l 910 292 l 910 415 l 1033 415 l 1033 292 m 329 854 l 206 854 l 206 979 l 329 979 l 329 854 m 1033 150 l 910 150 l 910 275 l 1033 275 l 1033 150 m 611 572 l 488 572 l 488 697 l 611 697 l 611 572 m 1033 10 l 910 10 l 910 133 l 1033 133 l 1033 10 m 611 432 l 488 432 l 488 556 l 611 556 l 611 432 m 189 714 l 64 714 l 64 838 l 189 838 l 189 714 m 1033 -132 l 910 -132 l 910 -7 l 1033 -7 l 1033 -132 m 611 292 l 488 292 l 488 415 l 611 415 l 611 292 m 189 572 l 64 572 l 64 697 l 189 697 l 189 572 m 611 150 l 488 150 l 488 275 l 611 275 l 611 150 m 893 -132 l 768 -132 l 768 -7 l 893 -7 l 893 -132 m 189 432 l 64 432 l 64 556 l 189 556 l 189 432 m 611 10 l 488 10 l 488 133 l 611 133 l 611 10 m 751 -132 l 628 -132 l 628 -7 l 751 -7 l 751 -132 m 189 292 l 64 292 l 64 415 l 189 415 l 189 292 m 611 -132 l 488 -132 l 488 -7 l 611 -7 l 611 -132 m 189 150 l 64 150 l 64 275 l 189 275 l 189 150 m 471 -132 l 346 -132 l 346 -7 l 471 -7 l 471 -132 m 189 10 l 64 10 l 64 133 l 189 133 l 189 10 m 329 -132 l 206 -132 l 206 -7 l 329 -7 l 329 -132 m 189 -132 l 64 -132 l 64 -7 l 189 -7 l 189 -132 m 1033 -275 l 910 -275 l 910 -150 l 1033 -150 l 1033 -275 m 611 -275 l 488 -275 l 488 -150 l 611 -150 l 611 -275 m 189 -275 l 64 -275 l 64 -150 l 189 -150 l 189 -275 z "},"ﬂ":{"ha":539,"x_min":64,"x_max":471,"o":"m 471 854 l 346 854 l 346 979 l 471 979 l 471 854 m 329 854 l 206 854 l 206 979 l 329 979 l 329 854 m 471 714 l 346 714 l 346 838 l 471 838 l 471 714 m 189 854 l 64 854 l 64 979 l 189 979 l 189 854 m 329 714 l 206 714 l 206 838 l 329 838 l 329 714 m 471 572 l 346 572 l 346 697 l 471 697 l 471 572 m 189 714 l 64 714 l 64 838 l 189 838 l 189 714 m 329 572 l 206 572 l 206 697 l 329 697 l 329 572 m 189 572 l 64 572 l 64 697 l 189 697 l 189 572 m 329 432 l 206 432 l 206 556 l 329 556 l 329 432 m 189 432 l 64 432 l 64 556 l 189 556 l 189 432 m 329 292 l 206 292 l 206 415 l 329 415 l 329 292 m 329 150 l 206 150 l 206 275 l 329 275 l 329 150 m 471 10 l 346 10 l 346 133 l 471 133 l 471 10 m 189 292 l 64 292 l 64 415 l 189 415 l 189 292 m 189 150 l 64 150 l 64 275 l 189 275 l 189 150 m 329 10 l 206 10 l 206 133 l 329 133 l 329 10 m 471 -132 l 346 -132 l 346 -7 l 471 -7 l 471 -132 m 189 10 l 64 10 l 64 133 l 189 133 l 189 10 m 329 -132 l 206 -132 l 206 -7 l 329 -7 l 329 -132 m 189 -132 l 64 -132 l 64 -7 l 189 -7 l 189 -132 m 471 -275 l 346 -275 l 346 -150 l 471 -150 l 471 -275 m 329 -275 l 206 -275 l 206 -150 l 329 -150 l 329 -275 m 189 -275 l 64 -275 l 64 -150 l 189 -150 l 189 -275 z "},"‡":{"ha":2106,"x_min":65,"x_max":2024,"o":"m 1035 854 l 910 854 l 910 979 l 1035 979 l 1035 854 m 893 854 l 769 854 l 769 979 l 893 979 l 893 854 m 331 854 l 206 854 l 206 979 l 331 979 l 331 854 m 189 714 l 65 714 l 65 838 l 189 838 l 189 714 m 1035 -132 l 910 -132 l 910 -7 l 1035 -7 l 1035 -132 m 189 572 l 65 572 l 65 697 l 189 697 l 189 572 m 893 -132 l 769 -132 l 769 -7 l 893 -7 l 893 -132 m 189 432 l 65 432 l 65 556 l 189 556 l 189 432 m 753 -132 l 628 -132 l 628 -7 l 753 -7 l 753 -132 m 189 292 l 65 292 l 65 415 l 189 415 l 189 292 m 611 -132 l 488 -132 l 488 -7 l 611 -7 l 611 -132 m 189 150 l 65 150 l 65 275 l 189 275 l 189 150 m 471 -132 l 347 -132 l 347 -7 l 471 -7 l 471 -132 m 189 10 l 65 10 l 65 133 l 189 133 l 189 10 m 331 -132 l 206 -132 l 206 -7 l 331 -7 l 331 -132 m 1883 854 l 1758 854 l 1758 979 l 1883 979 l 1883 854 m 2024 714 l 1900 714 l 1900 838 l 2024 838 l 2024 714 m 1742 854 l 1618 854 l 1618 979 l 1742 979 l 1742 854 m 2024 572 l 1900 572 l 1900 697 l 2024 697 l 2024 572 m 1601 854 l 1478 854 l 1478 979 l 1601 979 l 1601 854 m 2024 432 l 1900 432 l 1900 556 l 2024 556 l 2024 432 m 1461 854 l 1336 854 l 1336 979 l 1461 979 l 1461 854 m 2024 292 l 1900 292 l 1900 415 l 2024 415 l 2024 292 m 1319 854 l 1196 854 l 1196 979 l 1319 979 l 1319 854 m 2024 150 l 1900 150 l 1900 275 l 2024 275 l 2024 150 m 1179 854 l 1054 854 l 1054 979 l 1179 979 l 1179 854 m 2024 10 l 1900 10 l 1900 133 l 2024 133 l 2024 10 m 1883 -132 l 1758 -132 l 1758 -7 l 1883 -7 l 1883 -132 m 1742 -132 l 1618 -132 l 1618 -7 l 1742 -7 l 1742 -132 m 1601 -132 l 1478 -132 l 1478 -7 l 1601 -7 l 1601 -132 m 1461 -132 l 1336 -132 l 1336 -7 l 1461 -7 l 1461 -132 m 1319 -132 l 1196 -132 l 1196 -7 l 1319 -7 l 1319 -132 m 1179 -132 l 1054 -132 l 1054 -7 l 1179 -7 l 1179 -132 m 753 997 l 628 997 l 628 1121 l 753 1121 l 753 997 m 611 997 l 488 997 l 488 1121 l 611 1121 l 611 997 m 471 997 l 347 997 l 347 1121 l 471 1121 l 471 997 z "},"·":{"ha":544,"x_min":206,"x_max":329,"o":"m 329 433 l 206 433 l 206 557 l 329 557 l 329 433 z "},"‚":{"ha":404,"x_min":64,"x_max":329,"o":"m 329 10 l 206 10 l 206 133 l 329 133 l 329 10 m 329 -132 l 206 -132 l 206 -7 l 329 -7 l 329 -132 m 189 -275 l 64 -275 l 64 -150 l 189 -150 l 189 -275 z "},"„":{"ha":697,"x_min":64,"x_max":618,"o":"m 329 10 l 206 10 l 206 133 l 329 133 l 329 10 m 329 -132 l 206 -132 l 206 -7 l 329 -7 l 329 -132 m 189 -275 l 64 -275 l 64 -150 l 189 -150 l 189 -275 m 618 10 l 494 10 l 494 133 l 618 133 l 618 10 m 618 -132 l 494 -132 l 494 -7 l 618 -7 l 618 -132 m 478 -275 l 353 -275 l 353 -150 l 478 -150 l 478 -275 z "},"‰":{"ha":2672,"x_min":64,"x_max":2611,"o":"m 1338 854 l 1213 854 l 1213 979 l 1338 979 l 1338 854 m 1338 714 l 1213 714 l 1213 838 l 1338 838 l 1338 714 m 1053 572 l 929 572 l 929 697 l 1053 697 l 1053 572 m 1461 432 l 1336 432 l 1336 556 l 1461 556 l 1461 432 m 611 854 l 488 854 l 488 979 l 611 979 l 611 854 m 751 714 l 628 714 l 628 838 l 751 838 l 751 714 m 471 854 l 346 854 l 346 979 l 471 979 l 471 854 m 611 714 l 488 714 l 488 838 l 611 838 l 611 714 m 751 572 l 628 572 l 628 697 l 751 697 l 751 572 m 1031 432 l 906 432 l 906 556 l 1031 556 l 1031 432 m 1176 292 l 1053 292 l 1053 415 l 1176 415 l 1176 292 m 329 854 l 206 854 l 206 979 l 329 979 l 329 854 m 1176 150 l 1053 150 l 1053 275 l 1176 275 l 1176 150 m 1461 10 l 1336 10 l 1336 133 l 1461 133 l 1461 10 m 611 572 l 488 572 l 488 697 l 611 697 l 611 572 m 329 714 l 206 714 l 206 838 l 329 838 l 329 714 m 892 432 l 768 432 l 768 556 l 892 556 l 892 432 m 894 292 l 771 292 l 771 415 l 894 415 l 894 292 m 189 714 l 64 714 l 64 838 l 189 838 l 189 714 m 329 572 l 206 572 l 206 697 l 329 697 l 329 572 m 471 432 l 346 432 l 346 556 l 471 556 l 471 432 m 754 292 l 631 292 l 631 415 l 754 415 l 754 292 m 189 572 l 64 572 l 64 697 l 189 697 l 189 572 m 329 432 l 206 432 l 206 556 l 329 556 l 329 432 m 754 150 l 631 150 l 631 275 l 754 275 l 754 150 m 614 150 l 489 150 l 489 275 l 614 275 l 614 150 m 614 10 l 489 10 l 489 133 l 614 133 l 614 10 m 472 10 l 349 10 l 349 133 l 472 133 l 472 10 m 1488 854 l 1363 854 l 1363 979 l 1488 979 l 1488 854 m 1611 292 l 1486 292 l 1486 415 l 1611 415 l 1611 292 m 1611 150 l 1486 150 l 1486 275 l 1611 275 l 1611 150 m 1199 714 l 1074 714 l 1074 838 l 1199 838 l 1199 714 m 1199 572 l 1074 572 l 1074 697 l 1199 697 l 1199 572 m 1322 432 l 1197 432 l 1197 556 l 1322 556 l 1322 432 m 1322 292 l 1197 292 l 1197 415 l 1322 415 l 1322 292 m 1322 150 l 1197 150 l 1197 275 l 1322 275 l 1322 150 m 1322 556 l 1322 432 l 1197 432 l 1322 556 m 1322 10 l 1197 10 l 1197 133 l 1322 133 l 1322 10 m 1757 292 l 1632 292 l 1632 415 l 1757 415 l 1757 292 m 1757 150 l 1632 150 l 1632 275 l 1757 275 l 1757 150 m 1611 10 l 1486 10 l 1486 133 l 1611 133 l 1611 10 m 1611 432 l 1486 432 l 1486 556 l 1611 556 l 1611 432 m 611 432 l 488 432 l 488 556 l 611 556 l 611 432 m 2315 432 l 2190 432 l 2190 556 l 2315 556 l 2315 432 m 2031 292 l 1907 292 l 1907 415 l 2031 415 l 2031 292 m 2031 150 l 1907 150 l 1907 275 l 2031 275 l 2031 150 m 2315 10 l 2190 10 l 2190 133 l 2315 133 l 2315 10 m 2465 292 l 2340 292 l 2340 415 l 2465 415 l 2465 292 m 2465 150 l 2340 150 l 2340 275 l 2465 275 l 2465 150 m 2176 432 l 2051 432 l 2051 556 l 2176 556 l 2176 432 m 2176 292 l 2051 292 l 2051 415 l 2176 415 l 2176 292 m 2176 150 l 2051 150 l 2051 275 l 2176 275 l 2176 150 m 2176 556 l 2176 432 l 2051 432 l 2176 556 m 2176 10 l 2051 10 l 2051 133 l 2176 133 l 2176 10 m 2611 292 l 2486 292 l 2486 415 l 2611 415 l 2611 292 m 2611 150 l 2486 150 l 2486 275 l 2611 275 l 2611 150 m 2465 10 l 2340 10 l 2340 133 l 2465 133 l 2465 10 m 2465 432 l 2340 432 l 2340 556 l 2465 556 l 2465 432 z "},"Â":{"ha":846,"x_min":76,"x_max":764,"o":"m 624 854 l 499 854 l 499 979 l 624 979 l 624 854 m 764 714 l 640 714 l 640 838 l 764 838 l 764 714 m 482 854 l 358 854 l 358 979 l 482 979 l 482 854 m 624 714 l 499 714 l 499 838 l 624 838 l 624 714 m 764 572 l 640 572 l 640 697 l 764 697 l 764 572 m 342 854 l 218 854 l 218 979 l 342 979 l 342 854 m 624 572 l 499 572 l 499 697 l 624 697 l 624 572 m 764 432 l 640 432 l 640 556 l 764 556 l 764 432 m 624 432 l 499 432 l 499 556 l 624 556 l 624 432 m 764 292 l 640 292 l 640 415 l 764 415 l 764 292 m 201 714 l 76 714 l 76 838 l 201 838 l 201 714 m 764 150 l 640 150 l 640 275 l 764 275 l 764 150 m 482 290 l 358 290 l 358 414 l 482 414 l 482 290 m 624 292 l 499 292 l 499 415 l 624 415 l 624 292 m 201 572 l 76 572 l 76 697 l 201 697 l 201 572 m 624 150 l 499 150 l 499 275 l 624 275 l 624 150 m 764 10 l 640 10 l 640 133 l 764 133 l 764 10 m 342 290 l 218 290 l 218 414 l 342 414 l 342 290 m 201 432 l 76 432 l 76 556 l 201 556 l 201 432 m 624 10 l 499 10 l 499 133 l 624 133 l 624 10 m 201 292 l 76 292 l 76 415 l 201 415 l 201 292 m 201 150 l 76 150 l 76 275 l 201 275 l 201 150 m 201 10 l 76 10 l 76 133 l 201 133 l 201 10 m 482 715 l 358 715 l 358 839 l 482 839 l 482 715 m 342 715 l 218 715 l 218 839 l 342 839 l 342 715 m 482 1129 l 358 1129 l 358 1254 l 482 1254 l 482 1129 m 624 989 l 499 989 l 499 1113 l 624 1113 l 624 989 m 342 989 l 217 989 l 217 1113 l 342 1113 l 342 989 z "},"Ê":{"ha":857,"x_min":79,"x_max":767,"o":"m 485 1129 l 361 1129 l 361 1254 l 485 1254 l 485 1129 m 626 989 l 501 989 l 501 1113 l 626 1113 l 626 989 m 344 989 l 219 989 l 219 1113 l 344 1113 l 344 989 m 767 854 l 642 854 l 642 979 l 767 979 l 767 854 m 625 854 l 501 854 l 501 979 l 625 979 l 625 854 m 485 854 l 361 854 l 361 979 l 485 979 l 485 854 m 344 854 l 219 854 l 219 979 l 344 979 l 344 854 m 625 572 l 501 572 l 501 697 l 625 697 l 625 572 m 203 854 l 79 854 l 79 979 l 203 979 l 203 854 m 344 714 l 219 714 l 219 838 l 344 838 l 344 714 m 485 572 l 361 572 l 361 697 l 485 697 l 485 572 m 203 714 l 79 714 l 79 838 l 203 838 l 203 714 m 344 572 l 219 572 l 219 697 l 344 697 l 344 572 m 203 572 l 79 572 l 79 697 l 203 697 l 203 572 m 344 432 l 219 432 l 219 556 l 344 556 l 344 432 m 767 10 l 642 10 l 642 133 l 767 133 l 767 10 m 203 432 l 79 432 l 79 556 l 203 556 l 203 432 m 344 292 l 219 292 l 219 415 l 344 415 l 344 292 m 625 10 l 501 10 l 501 133 l 625 133 l 625 10 m 344 150 l 219 150 l 219 275 l 344 275 l 344 150 m 203 292 l 79 292 l 79 415 l 203 415 l 203 292 m 485 10 l 361 10 l 361 133 l 485 133 l 485 10 m 203 150 l 79 150 l 79 275 l 203 275 l 203 150 m 344 10 l 219 10 l 219 133 l 344 133 l 344 10 m 203 10 l 79 10 l 79 133 l 203 133 l 203 10 z "}}}
